<svg width="61" height="70" viewBox="0 0 61 70" fill="none" xmlns="http://www.w3.org/2000/svg">
<path d="M40.5057 8.656C40.2201 6.67019 39.3491 4.81459 38.0038 3.32625C36.6585 1.83791 34.9 0.784409 32.953 0.300325C31.0061 -0.183758 28.959 -0.0764434 27.0733 0.60856C25.1877 1.29356 23.549 2.52515 22.3667 4.146C22.186 4.40045 22.1128 4.71583 22.1629 5.02387C22.213 5.33192 22.3824 5.60783 22.6344 5.7919C22.8864 5.97596 23.2008 6.05336 23.5095 6.00734C23.8182 5.96132 24.0963 5.79558 24.2837 5.546C25.1874 4.30636 26.4401 3.36422 27.8817 2.83992C29.3234 2.31563 30.8887 2.23297 32.3775 2.60251C33.8664 2.97204 35.2114 3.777 36.2406 4.91457C37.2698 6.05214 37.9365 7.47068 38.1557 8.989C38.1968 9.26983 38.3371 9.52667 38.5511 9.71304C38.7652 9.8994 39.0389 10.003 39.3227 10.005C39.3793 10.0095 39.4361 10.0095 39.4927 10.005C39.647 9.98318 39.7954 9.93113 39.9296 9.85182C40.0637 9.77251 40.1808 9.66751 40.2743 9.54284C40.3677 9.41816 40.4357 9.27627 40.4742 9.12529C40.5127 8.9743 40.521 8.81721 40.4987 8.663L40.5057 8.656Z" fill="white"/>
<path d="M57.6371 21.9361L54.0841 16.0001C53.9785 15.8245 53.8295 15.6792 53.6513 15.5781C53.4732 15.477 53.2719 15.4236 53.0671 15.4231H49.6531C49.4931 15.4166 49.3334 15.4424 49.1837 15.4991C49.034 15.5558 48.8972 15.6422 48.7817 15.753C48.6662 15.8639 48.5743 15.997 48.5115 16.1443C48.4487 16.2915 48.4163 16.45 48.4163 16.6101C48.4163 16.7702 48.4487 16.9287 48.5115 17.076C48.5743 17.2233 48.6662 17.3563 48.7817 17.4672C48.8972 17.5781 49.034 17.6645 49.1837 17.7212C49.3334 17.7778 49.4931 17.8037 49.6531 17.7971H52.3921L54.5271 21.3571H6.51407L8.65107 17.7971H9.90607C10.2125 17.7845 10.5021 17.654 10.7144 17.4327C10.9268 17.2115 11.0453 16.9168 11.0453 16.6101C11.0453 16.3035 10.9268 16.0087 10.7144 15.7875C10.5021 15.5663 10.2125 15.4357 9.90607 15.4231H7.98407C7.77798 15.4221 7.57519 15.4748 7.39564 15.576C7.21609 15.6771 7.06598 15.8233 6.96007 16.0001L3.40707 21.9371C3.29878 22.1173 3.24024 22.323 3.23741 22.5331C3.23459 22.7433 3.28758 22.9505 3.39098 23.1335C3.49438 23.3165 3.64449 23.4688 3.82599 23.5749C4.00749 23.6809 4.21387 23.7369 4.42407 23.7371H56.6241C56.8345 23.7375 57.0413 23.6819 57.2232 23.576C57.405 23.4701 57.5554 23.3178 57.659 23.1345C57.7625 22.9513 57.8154 22.7438 57.8122 22.5334C57.8091 22.323 57.75 22.1172 57.6411 21.9371L57.6371 21.9361Z" fill="white"/>
<path d="M51.7188 10.999C51.6375 10.8658 51.5303 10.7503 51.4035 10.6593C51.2767 10.5682 51.133 10.5035 50.9808 10.469L34.7968 6.68402C34.645 6.64771 34.4876 6.64184 34.3335 6.66675C34.1794 6.69166 34.0319 6.74686 33.8993 6.82915C33.7667 6.91145 33.6517 7.0192 33.561 7.1462C33.4703 7.27319 33.4056 7.4169 33.3708 7.56902L32.1498 12.784C32.0834 13.0885 32.1394 13.4068 32.3057 13.6703C32.472 13.9338 32.7352 14.1214 33.0385 14.1925C33.3419 14.2637 33.661 14.2127 33.9271 14.0506C34.1932 13.8885 34.3849 13.6282 34.4608 13.326L35.4038 9.26602L49.2728 12.509L47.1018 21.828C47.0662 21.9796 47.0609 22.1368 47.0861 22.2905C47.1113 22.4442 47.1666 22.5914 47.2488 22.7236C47.331 22.8559 47.4385 22.9707 47.5652 23.0614C47.6918 23.152 47.8351 23.2168 47.9868 23.252C48.0763 23.2732 48.1679 23.2843 48.2598 23.285C48.5269 23.2841 48.7858 23.1931 48.9947 23.0266C49.2036 22.8602 49.3502 22.6281 49.4108 22.368L51.8618 11.907C51.899 11.7548 51.9051 11.5967 51.8798 11.4421C51.8546 11.2874 51.7985 11.1395 51.7148 11.007L51.7188 10.999Z" fill="white"/>
<path d="M31.163 13.8049L30.08 4.65391C30.0427 4.34169 29.8831 4.057 29.6362 3.86224C29.3893 3.66748 29.0753 3.57854 28.763 3.61491L8.91999 5.95391C8.76509 5.97213 8.61531 6.02073 8.47922 6.09691C8.34313 6.1731 8.2234 6.27538 8.12689 6.3979C8.03038 6.52041 7.95899 6.66076 7.91679 6.81091C7.87459 6.96106 7.86243 7.11805 7.88098 7.27291L9.68098 22.5309C9.71509 22.8173 9.85258 23.0815 10.0676 23.2737C10.2827 23.4659 10.5605 23.573 10.849 23.5749H10.989C11.1444 23.5572 11.2948 23.5089 11.4315 23.4328C11.5682 23.3567 11.6885 23.2543 11.7854 23.1315C11.8824 23.0087 11.9541 22.868 11.9964 22.7173C12.0387 22.5667 12.0508 22.4092 12.032 22.2539L10.365 8.17191L27.874 6.10391L28.808 14.0739C28.8449 14.3866 29.0044 14.6718 29.2516 14.8669C29.4988 15.0619 29.8133 15.1508 30.126 15.1139C30.4387 15.077 30.7239 14.9175 30.9189 14.6703C31.114 14.4231 31.2029 14.1086 31.166 13.7959L31.163 13.8049Z" fill="white"/>
<path d="M40.5371 22.097L38.1811 12.297C38.1061 11.9913 37.914 11.7274 37.6461 11.562C37.5128 11.4804 37.3646 11.426 37.2101 11.402C37.0557 11.378 36.898 11.3848 36.7461 11.422L17.6261 16.023C17.4743 16.0589 17.3311 16.1245 17.2047 16.216C17.0783 16.3075 16.9713 16.423 16.8897 16.556C16.8081 16.689 16.7536 16.8368 16.7293 16.9909C16.705 17.145 16.7114 17.3024 16.7481 17.454L17.9151 22.354C17.9465 22.5107 18.0091 22.6595 18.0992 22.7914C18.1893 22.9234 18.3052 23.0358 18.4398 23.1219C18.5744 23.208 18.725 23.2661 18.8825 23.2927C19.0401 23.3193 19.2014 23.3138 19.3568 23.2766C19.5122 23.2394 19.6585 23.1712 19.7869 23.0761C19.9154 22.981 20.0233 22.861 20.1043 22.7232C20.1853 22.5855 20.2376 22.4328 20.2582 22.2744C20.2788 22.1159 20.2672 21.9549 20.2241 21.801L19.3241 18.066L36.1331 14.023L38.2111 22.661C38.2743 22.9254 38.4264 23.1601 38.6419 23.3258C38.8575 23.4914 39.1234 23.578 39.3951 23.571C39.4888 23.5717 39.5822 23.5606 39.6731 23.538C39.8248 23.5018 39.9679 23.4361 40.0942 23.3446C40.2204 23.2531 40.3274 23.1375 40.4089 23.0046C40.4905 22.8717 40.545 22.724 40.5694 22.57C40.5938 22.416 40.5876 22.2586 40.5511 22.107L40.5371 22.097Z" fill="white"/>
<path d="M57.8059 22.4939C57.7903 22.1904 57.659 21.9044 57.4389 21.6948C57.2189 21.4852 56.9269 21.3678 56.6229 21.3669H4.41792C4.114 21.3678 3.82197 21.4852 3.60192 21.6948C3.38187 21.9044 3.25053 22.1904 3.23492 22.4939L0.861924 68.755C0.853608 68.9162 0.878338 69.0775 0.934596 69.2288C0.990855 69.3802 1.07746 69.5185 1.18908 69.6351C1.30071 69.7518 1.435 69.8445 1.58372 69.9074C1.73244 69.9703 1.89245 70.0021 2.05392 70.001H58.9869C59.1479 70.001 59.3072 69.9684 59.4551 69.9052C59.6031 69.8419 59.7368 69.7493 59.8479 69.6329C59.9595 69.517 60.0459 69.3793 60.1017 69.2283C60.1574 69.0774 60.1814 68.9166 60.1719 68.7559L57.8059 22.4939ZM3.29592 67.628L5.55492 23.7389H55.4869L57.7389 67.628H3.29592Z" fill="white"/>
<path d="M39.4169 26.1021C38.7129 26.1024 38.0249 26.3115 37.4397 26.7029C36.8546 27.0943 36.3986 27.6504 36.1294 28.3009C35.8602 28.9513 35.79 29.667 35.9275 30.3574C36.065 31.0478 36.4041 31.682 36.902 32.1797C37.3998 32.6774 38.034 33.0163 38.7245 33.1537C39.4149 33.291 40.1306 33.2205 40.781 32.9512C41.4314 32.6818 41.9874 32.2257 42.3786 31.6404C42.7698 31.0551 42.9787 30.367 42.9789 29.663C42.979 29.1953 42.887 28.7321 42.708 28.2999C42.529 27.8678 42.2666 27.4751 41.9358 27.1444C41.605 26.8137 41.2123 26.5514 40.7801 26.3726C40.3479 26.1937 39.8846 26.1018 39.4169 26.1021ZM39.4169 30.848C39.1818 30.848 38.9521 30.7783 38.7567 30.6477C38.5613 30.5171 38.409 30.3314 38.3191 30.1142C38.2293 29.897 38.2059 29.658 38.2519 29.4275C38.2979 29.197 38.4112 28.9854 38.5776 28.8193C38.7439 28.6532 38.9558 28.5402 39.1864 28.4946C39.4169 28.449 39.6559 28.4728 39.8729 28.5631C40.09 28.6533 40.2753 28.8059 40.4056 29.0015C40.5359 29.1971 40.6053 29.427 40.6049 29.662C40.6044 29.9768 40.479 30.2784 40.2562 30.5008C40.0335 30.7232 39.7316 30.848 39.4169 30.848Z" fill="white"/>
<path d="M21.622 26.1021C20.918 26.1024 20.2299 26.3115 19.6448 26.7029C19.0596 27.0943 18.6036 27.6504 18.3345 28.3009C18.0653 28.9513 17.995 29.667 18.1325 30.3574C18.27 31.0478 18.6092 31.682 19.107 32.1797C19.6049 32.6774 20.2391 33.0163 20.9296 33.1537C21.62 33.291 22.3357 33.2205 22.9861 32.9512C23.6365 32.6818 24.1924 32.2257 24.5837 31.6404C24.9749 31.0551 25.1838 30.367 25.184 29.663C25.1841 29.1953 25.092 28.7321 24.9131 28.2999C24.7341 27.8678 24.4717 27.4751 24.1409 27.1444C23.8101 26.8137 23.4174 26.5514 22.9852 26.3726C22.5529 26.1937 22.0897 26.1018 21.622 26.1021ZM21.622 30.848C21.3869 30.848 21.1572 30.7783 20.9617 30.6477C20.7663 30.5171 20.6141 30.3314 20.5242 30.1142C20.4343 29.897 20.4109 29.658 20.4569 29.4275C20.5029 29.197 20.6163 28.9854 20.7826 28.8193C20.949 28.6532 21.1608 28.5402 21.3914 28.4946C21.622 28.449 21.8609 28.4728 22.078 28.5631C22.295 28.6533 22.4804 28.8059 22.6107 29.0015C22.741 29.1971 22.8104 29.427 22.81 29.662C22.8094 29.9768 22.684 30.2784 22.4613 30.5008C22.2386 30.7232 21.9367 30.848 21.622 30.848Z" fill="white"/>
<path d="M39.4207 29.657H39.3297C39.1739 29.6567 39.0195 29.6872 38.8755 29.7467C38.7315 29.8062 38.6007 29.8936 38.4905 30.0038C38.3803 30.1139 38.2929 30.2448 38.2334 30.3888C38.1739 30.5328 38.1434 30.6872 38.1437 30.843C38.1412 31.0033 38.1722 31.1623 38.2347 31.31V37.38C38.2116 39.411 37.3885 41.3511 35.9441 42.7791C34.4997 44.2072 32.5504 45.0081 30.5192 45.0081C28.488 45.0081 26.5387 44.2072 25.0943 42.7791C23.6499 41.3511 22.8268 39.411 22.8037 37.38V30.843C22.7911 30.5366 22.6606 30.2469 22.4393 30.0346C22.2181 29.8223 21.9233 29.7037 21.6167 29.7037C21.3101 29.7037 21.0153 29.8223 20.7941 30.0346C20.5728 30.2469 20.4423 30.5366 20.4297 30.843V37.38C20.4297 40.056 21.4927 42.6224 23.385 44.5147C25.2772 46.4069 27.8437 47.47 30.5197 47.47C33.1957 47.47 35.7622 46.4069 37.6544 44.5147C39.5466 42.6224 40.6097 40.056 40.6097 37.38V30.843C40.6092 30.5283 40.4838 30.2266 40.261 30.0042C40.0383 29.7819 39.7364 29.657 39.4217 29.657H39.4207Z" fill="white"/>
</svg>
