<svg width="63" height="71" viewBox="0 0 63 71" fill="none" xmlns="http://www.w3.org/2000/svg">
<path d="M1.65191 36.367H11.7719V68.633C11.7718 68.9034 11.8518 69.1677 12.0019 69.3926C12.1519 69.6175 12.3653 69.7928 12.615 69.8964C12.8647 70 13.1396 70.0273 13.4048 69.9747C13.67 69.9221 13.9136 69.792 14.1049 69.601L17.9779 65.728L21.8519 69.6C21.9787 69.727 22.1293 69.8277 22.295 69.8965C22.4608 69.9652 22.6385 70.0006 22.8179 70.0006C22.9974 70.0006 23.175 69.9652 23.3408 69.8965C23.5066 69.8277 23.6571 69.727 23.7839 69.6L27.6569 65.727L31.5309 69.6C31.6579 69.7271 31.8086 69.8278 31.9745 69.8966C32.1405 69.9654 32.3183 70.0008 32.4979 70.0008C32.6775 70.0008 32.8554 69.9654 33.0213 69.8966C33.1872 69.8278 33.338 69.7271 33.4649 69.6L37.3379 65.727L41.2089 69.6C41.3359 69.7271 41.4866 69.8278 41.6525 69.8966C41.8185 69.9654 41.9963 70.0008 42.1759 70.0008C42.3555 70.0008 42.5334 69.9654 42.6993 69.8966C42.8652 69.8278 43.016 69.7271 43.1429 69.6L47.0159 65.727L50.8899 69.6C51.0169 69.7271 51.1676 69.8278 51.3335 69.8966C51.4995 69.9654 51.6773 70.0008 51.8569 70.0008C52.0365 70.0008 52.2144 69.9654 52.3803 69.8966C52.5462 69.8278 52.697 69.7271 52.8239 69.6L56.6949 65.727L60.5649 69.6C60.7577 69.7942 61.0044 69.9259 61.273 69.9781C61.5416 70.0303 61.8197 70.0005 62.0712 69.8927C62.3227 69.785 62.536 69.6041 62.6834 69.3735C62.8308 69.143 62.9056 68.8735 62.8979 68.6V7.11C62.8961 5.22574 62.1471 3.41912 60.8152 2.08628C59.4833 0.753442 57.6772 0.00317614 55.7929 0L7.39491 0C5.50995 0.0023815 3.70288 0.752233 2.37001 2.0851C1.03715 3.41797 0.287294 5.22504 0.284912 7.11V35C0.284912 35.3626 0.428935 35.7103 0.685297 35.9666C0.941659 36.223 1.28936 36.367 1.65191 36.367ZM55.7859 2.735C56.9465 2.73526 58.0596 3.19616 58.8806 4.01646C59.7017 4.83676 60.1636 5.94939 60.1649 7.11V65.333L57.6649 62.833C57.538 62.7059 57.3872 62.6052 57.2213 62.5364C57.0554 62.4676 56.8775 62.4322 56.6979 62.4322C56.5183 62.4322 56.3405 62.4676 56.1745 62.5364C56.0086 62.6052 55.8579 62.7059 55.7309 62.833L51.8489 66.7L47.9759 62.83C47.8491 62.703 47.6986 62.6023 47.5328 62.5335C47.367 62.4648 47.1894 62.4294 47.0099 62.4294C46.8305 62.4294 46.6528 62.4648 46.487 62.5335C46.3213 62.6023 46.1707 62.703 46.0439 62.83L42.1709 66.7L38.2969 62.83C38.17 62.7029 38.0192 62.6022 37.8533 62.5334C37.6874 62.4646 37.5095 62.4292 37.3299 62.4292C37.1503 62.4292 36.9725 62.4646 36.8065 62.5334C36.6406 62.6022 36.4899 62.7029 36.3629 62.83L32.4899 66.7L28.6159 62.83C28.4891 62.703 28.3386 62.6023 28.1728 62.5335C28.007 62.4648 27.8294 62.4294 27.6499 62.4294C27.4705 62.4294 27.2928 62.4648 27.127 62.5335C26.9613 62.6023 26.8107 62.703 26.6839 62.83L22.8109 66.7L18.9379 62.83C18.811 62.7029 18.6602 62.6022 18.4943 62.5334C18.3284 62.4646 18.1505 62.4292 17.9709 62.4292C17.7913 62.4292 17.6135 62.4646 17.4475 62.5334C17.2816 62.6022 17.1309 62.7029 17.0039 62.83L14.5039 65.33V7.11C14.505 5.52334 13.9724 3.98243 12.9919 2.735H55.7859ZM3.01991 7.11C3.01991 5.94968 3.48085 4.83688 4.30132 4.01641C5.12179 3.19594 6.23459 2.735 7.39491 2.735C8.55523 2.735 9.66803 3.19594 10.4885 4.01641C11.309 4.83688 11.7699 5.94968 11.7699 7.11V33.633H3.01991V7.11Z" fill="white"/>
<path d="M37.3359 20.5731C37.7372 20.6367 38.1117 20.814 38.4154 21.0839C38.719 21.3538 38.9389 21.705 39.0492 22.096C39.1594 22.487 39.1553 22.9014 39.0373 23.2902C38.9194 23.6789 38.6925 24.0257 38.3836 24.2895C38.0747 24.5534 37.6966 24.7231 37.2942 24.7788C36.8918 24.8345 36.4818 24.7737 36.1129 24.6036C35.744 24.4335 35.4315 24.1613 35.2124 23.8192C34.9934 23.4771 34.877 23.0793 34.8769 22.6731C34.8769 22.3104 34.7328 21.9626 34.4764 21.7061C34.2199 21.4497 33.8721 21.3056 33.5094 21.3056C33.1467 21.3056 32.7989 21.4497 32.5424 21.7061C32.286 21.9626 32.1419 22.3104 32.1419 22.6731C32.1712 23.7655 32.5632 24.817 33.2561 25.662C33.9491 26.507 34.9035 27.0974 35.9689 27.3401V28.2731C35.9689 28.6358 36.113 28.9836 36.3694 29.2401C36.6259 29.4965 36.9737 29.6406 37.3364 29.6406C37.6991 29.6406 38.0469 29.4965 38.3034 29.2401C38.5598 28.9836 38.7039 28.6358 38.7039 28.2731V27.3401C39.7701 27.0984 40.7253 26.5084 41.4187 25.6632C42.1121 24.818 42.5042 23.7659 42.5329 22.6731C42.4824 21.3425 41.9069 20.0861 40.9324 19.1787C39.9579 18.2713 38.6637 17.7868 37.3329 17.8311C36.9316 17.7671 36.557 17.5895 36.2535 17.3192C35.95 17.049 35.7302 16.6974 35.6203 16.3062C35.5103 15.915 35.5147 15.5005 35.633 15.1117C35.7512 14.7229 35.9784 14.3761 36.2876 14.1124C36.5968 13.8486 36.975 13.679 37.3776 13.6235C37.7802 13.5681 38.1903 13.6291 38.5592 13.7994C38.9282 13.9697 39.2407 14.2421 39.4597 14.5845C39.6787 14.9268 39.795 15.3247 39.7949 15.7311C39.7949 16.0938 39.939 16.4416 40.1954 16.6981C40.4519 16.9545 40.7997 17.0986 41.1624 17.0986C41.5251 17.0986 41.8729 16.9545 42.1294 16.6981C42.3858 16.4416 42.5299 16.0938 42.5299 15.7311C42.5005 14.6384 42.1082 13.5867 41.4149 12.7417C40.7216 11.8966 39.7667 11.3064 38.7009 11.0641V9.94709C38.7009 9.58441 38.5568 9.23658 38.3004 8.98012C38.0439 8.72367 37.6961 8.57959 37.3334 8.57959C36.9707 8.57959 36.6229 8.72367 36.3664 8.98012C36.11 9.23658 35.9659 9.58441 35.9659 9.94709V11.0621C34.9 11.3039 33.945 11.894 33.2519 12.7392C32.5588 13.5844 32.1672 14.6364 32.1389 15.7291C32.1892 17.0587 32.7638 18.3143 33.737 19.2216C34.7103 20.1289 36.0031 20.6141 37.3329 20.5711L37.3359 20.5731Z" fill="white"/>
<path d="M23.5999 20.5729H26.2669C26.6296 20.5729 26.9774 20.4288 27.2339 20.1724C27.4903 19.9159 27.6344 19.5681 27.6344 19.2054C27.6344 18.8427 27.4903 18.4949 27.2339 18.2384C26.9774 17.982 26.6296 17.8379 26.2669 17.8379H23.5999C23.2372 17.8379 22.8894 17.982 22.6329 18.2384C22.3765 18.4949 22.2324 18.8427 22.2324 19.2054C22.2324 19.5681 22.3765 19.9159 22.6329 20.1724C22.8894 20.4288 23.2372 20.5729 23.5999 20.5729Z" fill="white"/>
<path d="M48.408 20.5729H51.073C51.4357 20.5729 51.7836 20.4288 52.04 20.1724C52.2965 19.9159 52.4405 19.5681 52.4405 19.2054C52.4405 18.8427 52.2965 18.4949 52.04 18.2384C51.7836 17.982 51.4357 17.8379 51.073 17.8379H48.408C48.0454 17.8379 47.6975 17.982 47.4411 18.2384C47.1846 18.4949 47.0405 18.8427 47.0405 19.2054C47.0405 19.5681 47.1846 19.9159 47.4411 20.1724C47.6975 20.4288 48.0454 20.5729 48.408 20.5729Z" fill="white"/>
<path d="M22.909 56.7841H44.569C44.9317 56.7841 45.2795 56.64 45.536 56.3835C45.7924 56.1271 45.9365 55.7793 45.9365 55.4166C45.9365 55.0539 45.7924 54.7061 45.536 54.4496C45.2795 54.1931 44.9317 54.0491 44.569 54.0491H22.909C22.5463 54.0491 22.1985 54.1931 21.942 54.4496C21.6856 54.7061 21.5415 55.0539 21.5415 55.4166C21.5415 55.7793 21.6856 56.1271 21.942 56.3835C22.1985 56.64 22.5463 56.7841 22.909 56.7841Z" fill="white"/>
<path d="M50.797 56.3829C51.0203 56.6061 51.3141 56.745 51.6284 56.7759C51.9426 56.8069 52.2578 56.7279 52.5204 56.5524C52.7829 56.377 52.9765 56.1159 53.0682 55.8138C53.1599 55.5116 53.1439 55.187 53.0231 54.8953C52.9023 54.6035 52.6841 54.3627 52.4057 54.2138C52.1272 54.0649 51.8058 54.0171 51.496 54.0786C51.1863 54.1402 50.9075 54.3072 50.7071 54.5512C50.5067 54.7952 50.3971 55.1011 50.397 55.4169C50.3969 55.5963 50.4322 55.774 50.5008 55.9397C50.5695 56.1055 50.6701 56.2561 50.797 56.3829Z" fill="white"/>
<path d="M22.9068 47.7601H44.5668C44.7506 47.7671 44.9339 47.737 45.1058 47.6715C45.2777 47.6061 45.4345 47.5066 45.567 47.379C45.6996 47.2515 45.805 47.0985 45.877 46.9293C45.949 46.76 45.9861 46.578 45.9861 46.3941C45.9861 46.2102 45.949 46.0281 45.877 45.8589C45.805 45.6897 45.6996 45.5367 45.567 45.4092C45.4345 45.2816 45.2777 45.1821 45.1058 45.1167C44.9339 45.0512 44.7506 45.0211 44.5668 45.0281H22.9068C22.723 45.0211 22.5397 45.0512 22.3679 45.1167C22.196 45.1821 22.0391 45.2816 21.9066 45.4092C21.7741 45.5367 21.6687 45.6897 21.5967 45.8589C21.5247 46.0281 21.4875 46.2102 21.4875 46.3941C21.4875 46.578 21.5247 46.76 21.5967 46.9293C21.6687 47.0985 21.7741 47.2515 21.9066 47.379C22.0391 47.5066 22.196 47.6061 22.3679 47.6715C22.5397 47.737 22.723 47.7671 22.9068 47.7601Z" fill="white"/>
<path d="M50.797 47.367C51.0203 47.5903 51.3141 47.7292 51.6284 47.7601C51.9426 47.791 52.2578 47.712 52.5204 47.5365C52.7829 47.3611 52.9765 47.1001 53.0682 46.7979C53.1599 46.4957 53.1439 46.1712 53.0231 45.8794C52.9023 45.5877 52.6841 45.3468 52.4057 45.1979C52.1272 45.049 51.8058 45.0013 51.496 45.0628C51.1863 45.1243 50.9075 45.2913 50.7071 45.5353C50.5067 45.7793 50.3971 46.0853 50.397 46.401C50.3969 46.5804 50.4322 46.7581 50.5008 46.9238C50.5695 47.0896 50.6701 47.2402 50.797 47.367Z" fill="white"/>
<path d="M22.909 38.734H44.569C44.9317 38.734 45.2795 38.59 45.536 38.3335C45.7924 38.077 45.9365 37.7292 45.9365 37.3665C45.9365 37.0038 45.7924 36.656 45.536 36.3996C45.2795 36.1431 44.9317 35.999 44.569 35.999H22.909C22.5463 35.999 22.1985 36.1431 21.942 36.3996C21.6856 36.656 21.5415 37.0038 21.5415 37.3665C21.5415 37.7292 21.6856 38.077 21.942 38.3335C22.1985 38.59 22.5463 38.734 22.909 38.734Z" fill="white"/>
<path d="M50.797 38.337C51.0202 38.5602 51.314 38.6991 51.6281 38.73C51.9423 38.761 52.2574 38.6821 52.52 38.5068C52.7825 38.3315 52.9762 38.0706 53.068 37.7686C53.1598 37.4666 53.1441 37.142 53.0235 36.8503C52.903 36.5586 52.685 36.3176 52.4068 36.1685C52.1285 36.0194 51.8072 35.9713 51.4975 36.0325C51.1878 36.0936 50.9089 36.2602 50.7082 36.5039C50.5076 36.7476 50.3976 37.0533 50.397 37.369C50.3966 37.5487 50.4318 37.7268 50.5004 37.8929C50.5691 38.059 50.6699 38.2099 50.797 38.337Z" fill="white"/>
</svg>
