<svg width="71" height="72" viewBox="0 0 71 72" fill="none" xmlns="http://www.w3.org/2000/svg">
<path d="M69.487 34.8699H59.787L70.287 24.3699C70.499 24.1576 70.6181 23.8699 70.6181 23.5699C70.6181 23.2699 70.499 22.9821 70.287 22.7699L48.834 1.32989C48.6217 1.11787 48.334 0.998779 48.034 0.998779C47.734 0.998779 47.4462 1.11787 47.234 1.32989L13.694 34.8699H1.74399C1.44508 34.8699 1.15837 34.9884 0.946725 35.1995C0.735083 35.4106 0.615785 35.697 0.61499 35.9959V65.3559C0.61499 65.6553 0.733938 65.9425 0.945667 66.1542C1.1574 66.3659 1.44456 66.4849 1.74399 66.4849H18.215L22.399 70.6689C22.5038 70.7745 22.6284 70.8583 22.7657 70.9155C22.903 70.9726 23.0503 71.0021 23.199 71.0021C23.3477 71.0021 23.495 70.9726 23.6323 70.9155C23.7696 70.8583 23.8942 70.7745 23.999 70.6689L28.185 66.4849H69.485C69.7844 66.4849 70.0716 66.3659 70.2833 66.1542C70.495 65.9425 70.614 65.6553 70.614 65.3559V35.9959C70.614 35.6965 70.495 35.4093 70.2833 35.1976C70.0716 34.9858 69.7844 34.8669 69.485 34.8669L69.487 34.8699ZM48.034 3.72389L67.891 23.5809L56.6 34.8699H47.982C47.7067 31.78 46.2846 28.9051 43.9958 26.8111C41.7069 24.7172 38.7171 23.5559 35.615 23.5559C32.5128 23.5559 29.523 24.7172 27.2342 26.8111C24.9454 28.9051 23.5233 31.78 23.248 34.8699H16.888L48.034 3.72389ZM30.225 34.8699C30.1462 34.5032 30.1598 34.1227 30.2646 33.7626C30.3693 33.4025 30.5619 33.0741 30.825 32.8069L32.89 34.8699H30.225ZM42.405 34.8699C42.2831 34.7048 42.1494 34.5487 42.005 34.4029C41.1576 33.5571 40.0092 33.0821 38.812 33.0821C37.6147 33.0821 36.4664 33.5571 35.619 34.4029L32.425 31.2089C32.855 30.7986 33.4266 30.5697 34.021 30.5697C34.6154 30.5697 35.1869 30.7986 35.617 31.2089L37.217 29.6089C36.3696 28.7631 35.2212 28.2881 34.024 28.2881C32.8267 28.2881 31.6784 28.7631 30.831 29.6089L30.021 28.8089L28.421 30.4089L29.221 31.2089C28.7456 31.6836 28.3829 32.259 28.1596 32.8927C27.9364 33.5263 27.8582 34.202 27.931 34.8699H25.515C25.7928 32.3872 26.9759 30.0939 28.838 28.4285C30.7002 26.7631 33.1108 25.8424 35.609 25.8424C38.1072 25.8424 40.5178 26.7631 42.38 28.4285C44.2421 30.0939 45.4252 32.3872 45.703 34.8699H42.403H42.405ZM23.195 68.2749L21.405 66.4849H24.987L23.195 68.2749ZM68.357 64.2339H2.87399V37.1339H68.357V64.2339Z" fill="white"/>
<path d="M32.2269 54.065H29.9709C29.9723 55.262 30.4484 56.4096 31.2948 57.2561C32.1413 58.1025 33.2889 58.5786 34.4859 58.58V59.709H36.7449V58.577C37.9424 58.577 39.0908 58.1013 39.9375 57.2545C40.7843 56.4078 41.2599 55.2594 41.2599 54.062C41.2599 52.8645 40.7843 51.7161 39.9375 50.8694C39.0908 50.0226 37.9424 49.547 36.7449 49.547V45.03C37.3434 45.0313 37.9169 45.2698 38.3398 45.6933C38.7627 46.1167 39.0004 46.6905 39.0009 47.289H41.261C41.2615 46.0905 40.7863 44.9409 39.9397 44.0926C39.0931 43.2443 37.9444 42.7668 36.746 42.765V41.637H34.487V42.766C33.3057 42.7908 32.1812 43.2775 31.3546 44.1217C30.5279 44.9659 30.065 46.1004 30.065 47.282C30.065 48.4635 30.5279 49.598 31.3546 50.4422C32.1812 51.2864 33.3057 51.7731 34.487 51.798V56.322C33.8882 56.3217 33.3139 56.0839 32.8902 55.6608C32.4666 55.2377 32.228 54.6637 32.2269 54.065ZM32.2269 47.298C32.2275 46.699 32.4656 46.1247 32.8892 45.7012C33.3127 45.2777 33.887 45.0395 34.4859 45.039V49.556C33.887 49.5554 33.3127 49.3173 32.8892 48.8937C32.4656 48.4702 32.2275 47.8959 32.2269 47.297V47.298ZM36.7439 51.813C37.0445 51.8066 37.3434 51.8604 37.6229 51.971C37.9025 52.0817 38.1571 52.247 38.3719 52.4574C38.5868 52.6677 38.7574 52.9189 38.8739 53.196C38.9905 53.4732 39.0505 53.7708 39.0505 54.0715C39.0505 54.3721 38.9905 54.6698 38.8739 54.9469C38.7574 55.2241 38.5868 55.4752 38.3719 55.6855C38.1571 55.8959 37.9025 56.0612 37.6229 56.1719C37.3434 56.2825 37.0445 56.3363 36.7439 56.33V51.813Z" fill="white"/>
<path d="M35.6161 63.0969C38.0728 63.0969 40.4743 62.3684 42.5169 61.0035C44.5596 59.6386 46.1516 57.6987 47.0917 55.429C48.0318 53.1593 48.2777 50.6618 47.7983 48.2523C47.319 45.8428 46.1359 43.6296 44.3987 41.8926C42.6615 40.1555 40.4482 38.9726 38.0387 38.4934C35.6292 38.0143 33.1317 38.2604 30.8621 39.2007C28.5924 40.1409 26.6526 41.7331 25.2879 43.7759C23.9232 45.8186 23.1949 48.2202 23.1951 50.6769C23.1953 53.971 24.5041 57.13 26.8335 59.4592C29.1628 61.7884 32.322 63.0969 35.6161 63.0969ZM35.6161 40.5169C37.626 40.5169 39.5907 41.1129 41.2619 42.2296C42.933 43.3462 44.2355 44.9334 45.0046 46.7903C45.7737 48.6472 45.9749 50.6905 45.5827 52.6618C45.1906 54.633 44.2226 56.4437 42.8013 57.8649C41.3801 59.286 39.5693 60.2538 37.598 60.6457C35.6267 61.0377 33.5834 60.8363 31.7265 60.0671C29.8697 59.2978 28.2827 57.9951 27.1662 56.3239C26.0497 54.6526 25.4539 52.6878 25.4541 50.6779C25.4543 47.9829 26.5251 45.3984 28.4308 43.4929C30.3365 41.5874 32.9211 40.5169 35.6161 40.5169Z" fill="white"/>
<path d="M66.0989 60.8389V40.5169C66.0991 40.3686 66.0701 40.2217 66.0135 40.0846C65.9568 39.9475 65.8737 39.8229 65.7688 39.718C65.6639 39.6131 65.5393 39.53 65.4022 39.4733C65.2651 39.4167 65.1182 39.3877 64.9699 39.3879H51.4219V41.6439H63.8499V59.7089H51.4219V61.9679H64.9699C65.2693 61.9679 65.5565 61.849 65.7682 61.6373C65.9799 61.4255 66.0989 61.1384 66.0989 60.8389Z" fill="white"/>
<path d="M6.25888 61.9679H19.8089V59.7089H7.37988V41.6439H19.8089V39.3879H6.25888C6.11062 39.3879 5.96381 39.4171 5.82683 39.4739C5.68986 39.5306 5.5654 39.6138 5.46056 39.7186C5.35572 39.8235 5.27256 39.9479 5.21582 40.0849C5.15908 40.2219 5.12988 40.3687 5.12988 40.5169V60.8379C5.12988 60.9862 5.15908 61.133 5.21582 61.27C5.27256 61.407 5.35572 61.5314 5.46056 61.6363C5.5654 61.7411 5.68986 61.8243 5.82683 61.881C5.96381 61.9377 6.11062 61.9669 6.25888 61.9669V61.9679Z" fill="white"/>
<path d="M53.6809 55.1938H51.4219V57.4528H53.6809V55.1938Z" fill="white"/>
<path d="M58.196 55.1938H55.937V57.4528H58.196V55.1938Z" fill="white"/>
<path d="M53.6809 43.9028H51.4219V46.1618H53.6809V43.9028Z" fill="white"/>
<path d="M58.196 43.9028H55.937V46.1618H58.196V43.9028Z" fill="white"/>
<path d="M48.3419 10.4978L61.1149 23.2728L52.3349 32.0528L53.9349 33.6528L63.5129 24.0718C63.6185 23.967 63.7023 23.8424 63.7595 23.7051C63.8166 23.5678 63.8461 23.4205 63.8461 23.2718C63.8461 23.1231 63.8166 22.9758 63.7595 22.8385C63.7023 22.7012 63.6185 22.5766 63.5129 22.4718L49.1529 8.10081C48.9364 7.89696 48.6503 7.78345 48.3529 7.78345C48.0555 7.78345 47.7694 7.89696 47.5529 8.10081L37.9629 17.6818L39.5629 19.2818L48.3419 10.4978Z" fill="white"/>
<path d="M49.1331 28.8639L50.7331 27.2639L52.3331 28.8639L50.7331 30.4639L49.1331 28.8639Z" fill="white"/>
<path d="M52.325 25.6698L53.925 24.0698L55.5249 25.6698L53.925 27.2698L52.325 25.6698Z" fill="white"/>
<path d="M41.1499 20.882L42.7499 19.282L44.3499 20.882L42.7499 22.482L41.1499 20.882Z" fill="white"/>
<path d="M44.342 17.6869L45.942 16.0869L47.5421 17.6869L45.942 19.2869L44.342 17.6869Z" fill="white"/>
<path d="M15.2949 43.9028H13.0359V46.1618H15.2949V43.9028Z" fill="white"/>
<path d="M19.81 43.9028H17.551V46.1618H19.81V43.9028Z" fill="white"/>
<path d="M15.2949 55.1938H13.0359V57.4528H15.2949V55.1938Z" fill="white"/>
<path d="M19.81 55.1938H17.551V57.4528H19.81V55.1938Z" fill="white"/>
</svg>
