<svg width="73" height="71" viewBox="0 0 73 71" fill="none" xmlns="http://www.w3.org/2000/svg">
<path d="M59.2529 54.948L46.7299 47.903C45.7922 47.3776 44.7087 47.1726 43.6439 47.3189C42.5791 47.4653 41.5911 47.9551 40.8299 48.714L36.4299 53.114C35.9937 53.55 35.416 53.8159 34.8011 53.8638C34.1862 53.9116 33.5744 53.7383 33.0759 53.375C29.9527 51.0406 27.0042 48.4811 24.2539 45.717C21.4934 42.9642 18.937 40.0141 16.6049 36.89C16.2422 36.391 16.0694 35.779 16.1176 35.164C16.1658 34.549 16.4319 33.9713 16.8679 33.535L21.2679 29.135C22.0258 28.3732 22.5149 27.3853 22.6612 26.3208C22.8075 25.2562 22.6031 24.173 22.0789 23.235L15.0339 10.717C14.6727 10.0713 14.1656 9.51892 13.5531 9.10396C12.9406 8.689 12.2395 8.42293 11.5059 8.32698C10.73 8.22201 9.94027 8.29931 9.19943 8.55274C8.45858 8.80617 7.78698 9.22876 7.23792 9.78698L2.58892 14.427C-0.688082 17.705 -0.859082 23.573 2.10592 30.949C4.94092 38.007 10.3339 45.726 17.3059 52.689C24.2779 59.652 31.9849 65.047 39.0399 67.895C41.9959 69.1763 45.167 69.8887 48.3869 69.995C49.6944 70.0652 51.0027 69.8722 52.2342 69.4272C53.4656 68.9823 54.5952 68.2947 55.5559 67.405L60.1979 62.771C60.7581 62.2203 61.182 61.5464 61.4358 60.803C61.6896 60.0597 61.7663 59.2673 61.6599 58.489C61.5637 57.7525 61.2966 57.0487 60.8799 56.4338C60.4632 55.819 59.9084 55.3101 59.2599 54.948H59.2529ZM58.5289 61.098L57.7179 61.909L47.0429 56.085C46.7703 55.9405 46.4517 55.9093 46.1562 55.9981C45.8607 56.087 45.612 56.2886 45.4642 56.5595C45.3164 56.8303 45.2812 57.1485 45.3663 57.4451C45.4514 57.7417 45.65 57.9928 45.9189 58.144L55.9779 63.644L53.8779 65.744C51.3439 68.278 46.2479 68.266 39.8829 65.713C33.1149 62.993 25.6759 57.779 18.9339 51.038C12.1919 44.297 6.99792 36.843 4.27992 30.072C1.72492 23.717 1.71492 18.617 4.24592 16.085L6.34592 13.985L7.47992 16.044C7.62937 16.3169 7.88111 16.5193 8.17976 16.6065C8.32764 16.6498 8.48258 16.6635 8.63574 16.6468C8.78891 16.6301 8.93729 16.5835 9.07242 16.5095C9.20755 16.4355 9.32678 16.3356 9.4233 16.2155C9.51983 16.0954 9.59176 15.9575 9.63498 15.8096C9.67821 15.6618 9.69189 15.5068 9.67523 15.3537C9.65858 15.2005 9.61192 15.0521 9.53792 14.917L8.08992 12.266L8.90092 11.455C9.15281 11.1978 9.4529 10.9927 9.78405 10.8515C10.1152 10.7103 10.4709 10.6357 10.8309 10.632C10.9527 10.6326 11.0743 10.6416 11.1949 10.659C11.5688 10.7054 11.9266 10.8388 12.2397 11.0484C12.5528 11.258 12.8125 11.538 12.9979 11.866L20.0269 24.391C20.3009 24.8824 20.4076 25.4496 20.331 26.007C20.2543 26.5644 19.9984 27.0818 19.6019 27.481L17.5099 29.574L12.0259 19.504C11.954 19.3653 11.8552 19.2423 11.7351 19.1423C11.6151 19.0423 11.4763 18.9673 11.3268 18.9217C11.1774 18.8761 11.0204 18.8608 10.865 18.8767C10.7095 18.8926 10.5588 18.9394 10.4218 19.0143C10.2847 19.0893 10.1639 19.1908 10.0666 19.3131C9.96933 19.4353 9.89743 19.5758 9.85515 19.7262C9.81288 19.8766 9.80107 20.0339 9.82044 20.189C9.8398 20.344 9.88994 20.4936 9.96792 20.629L15.7879 31.302L15.2019 31.879C14.3713 32.7155 13.8662 33.8209 13.7777 34.9964C13.6892 36.1719 14.0229 37.3405 14.7189 38.292C17.1196 41.5087 19.7509 44.5466 22.5919 47.382C25.424 50.2245 28.4601 52.8562 31.6759 55.256C32.6267 55.9528 33.7951 56.2871 34.9706 56.1985C36.1461 56.11 37.2513 55.6044 38.0869 54.773L38.6639 54.196L41.3179 55.644C41.4891 55.7394 41.6819 55.7893 41.8779 55.789C42.1377 55.7879 42.3897 55.7007 42.5946 55.541C42.7994 55.3812 42.9454 55.158 43.0097 54.9063C43.074 54.6546 43.0529 54.3887 42.9498 54.1503C42.8467 53.9119 42.6673 53.7145 42.4399 53.589L40.3819 52.467L42.4759 50.374C42.8744 49.9769 43.3914 49.7206 43.9487 49.6439C44.5059 49.5672 45.073 49.6743 45.5639 49.949L58.0979 56.998C58.4253 57.1833 58.7048 57.4426 58.9142 57.7551C59.1236 58.0676 59.257 58.4247 59.3039 58.798C59.3604 59.2161 59.3187 59.6417 59.1821 60.0409C59.0455 60.4402 58.8177 60.8021 58.5169 61.098H58.5289Z" fill="white"/>
<path d="M47.727 18.7528C47.5751 18.719 47.418 18.7155 47.2647 18.7425C47.1114 18.7694 46.9649 18.8263 46.8336 18.9099C46.7023 18.9935 46.5887 19.1021 46.4994 19.2296C46.4101 19.3571 46.3467 19.5009 46.313 19.6528L43.785 31.0248C43.7467 31.1982 43.7478 31.3779 43.7882 31.5508C43.8286 31.7237 43.9072 31.8853 44.0183 32.0237C44.1294 32.1622 44.2702 32.274 44.4302 32.3508C44.5903 32.4277 44.7655 32.4677 44.943 32.4678H52.602V36.3368C52.5974 36.4953 52.6247 36.653 52.6821 36.8008C52.7396 36.9485 52.8261 37.0832 52.9365 37.1969C53.047 37.3106 53.1791 37.401 53.3251 37.4627C53.4711 37.5244 53.628 37.5562 53.7865 37.5562C53.945 37.5562 54.1019 37.5244 54.2479 37.4627C54.3939 37.401 54.5261 37.3106 54.6365 37.1969C54.747 37.0832 54.8335 36.9485 54.8909 36.8008C54.9484 36.653 54.9756 36.4953 54.971 36.3368V32.4678H56.314C56.4725 32.4724 56.6302 32.4452 56.778 32.3877C56.9257 32.3303 57.0604 32.2438 57.1741 32.1333C57.2878 32.0229 57.3782 31.8907 57.4399 31.7447C57.5016 31.5987 57.5334 31.4418 57.5334 31.2833C57.5334 31.1248 57.5016 30.9679 57.4399 30.8219C57.3782 30.6759 57.2878 30.5438 57.1741 30.4333C57.0604 30.3229 56.9257 30.2364 56.778 30.1789C56.6302 30.1215 56.4725 30.0942 56.314 30.0988H54.967V19.9108C54.9716 19.7524 54.9444 19.5946 54.8869 19.4469C54.8295 19.2991 54.743 19.1644 54.6325 19.0507C54.5221 18.937 54.3899 18.8466 54.2439 18.7849C54.0979 18.7232 53.941 18.6914 53.7825 18.6914C53.624 18.6914 53.4671 18.7232 53.3211 18.7849C53.1751 18.8466 53.043 18.937 52.9325 19.0507C52.8221 19.1644 52.7356 19.2991 52.6781 19.4469C52.6207 19.5946 52.5934 19.7524 52.598 19.9108V30.0978H46.414L48.623 20.1668C48.6914 19.8605 48.6354 19.5396 48.4674 19.2746C48.2994 19.0095 48.0332 18.8218 47.727 18.7528Z" fill="white"/>
<path d="M35.516 29.711C32.93 31.122 30 32.721 30 36.344C30 36.6583 30.1248 36.9597 30.3471 37.1819C30.5693 37.4041 30.8707 37.529 31.185 37.529H41.294C41.6022 37.52 41.8948 37.3913 42.1096 37.1702C42.3244 36.949 42.4446 36.6528 42.4446 36.3445C42.4446 36.0362 42.3244 35.74 42.1096 35.5188C41.8948 35.2977 41.6022 35.169 41.294 35.16H32.594C33.111 33.802 34.569 32.939 36.672 31.794C39.266 30.375 42.498 28.625 42.498 24.613C42.4035 23.0224 41.705 21.5279 40.5454 20.4351C39.3857 19.3423 37.8524 18.7336 36.259 18.7336C34.6656 18.7336 33.1323 19.3423 31.9726 20.4351C30.813 21.5279 30.1145 23.0224 30.02 24.613C30.029 24.9212 30.1577 25.2137 30.3788 25.4286C30.6 25.6434 30.8962 25.7636 31.2045 25.7636C31.5128 25.7636 31.809 25.6434 32.0302 25.4286C32.2513 25.2137 32.38 24.9212 32.389 24.613C32.4819 23.651 32.9297 22.7581 33.6452 22.1084C34.3607 21.4586 35.2925 21.0987 36.259 21.0987C37.2255 21.0987 38.1573 21.4586 38.8728 22.1084C39.5882 22.7581 40.0361 23.651 40.129 24.613C40.119 27.029 38.383 28.146 35.516 29.711Z" fill="white"/>
<path d="M66.0239 49.3019L63.718 49.7649C66.6094 46.9525 68.8819 43.5676 70.3903 39.8267C71.8986 36.0857 72.6096 32.0711 72.4776 28.0397C72.3456 24.0083 71.3736 20.0488 69.6238 16.4145C67.8739 12.7803 65.3848 9.55123 62.3156 6.934C59.2465 4.31678 55.6648 2.36897 51.7997 1.2152C47.9347 0.0614191 43.8714 -0.272927 39.8697 0.233546C35.8681 0.740019 32.0162 2.07616 28.5605 4.15649C25.1048 6.23683 22.1213 9.01555 19.801 12.3149C19.6316 12.5719 19.5689 12.8848 19.6261 13.1872C19.6834 13.4897 19.8561 13.758 20.1076 13.9354C20.3592 14.1127 20.6699 14.1853 20.974 14.1376C21.2781 14.0899 21.5517 13.9258 21.737 13.6799C23.8778 10.6448 26.6302 8.09148 29.8171 6.18405C33.0041 4.27661 36.5549 3.05735 40.2414 2.60469C43.9278 2.15203 47.6682 2.47598 51.222 3.55572C54.7757 4.63545 58.0641 6.44707 60.8756 8.87402C63.6871 11.301 65.9595 14.2895 67.5467 17.6475C69.1338 21.0054 70.0005 24.6584 70.0911 28.3715C70.1816 32.0845 69.494 35.7754 68.0724 39.2067C66.6509 42.638 64.5268 45.7338 61.8369 48.2949L62.3659 45.6549C62.4009 45.5007 62.4046 45.3411 62.3768 45.1855C62.3491 45.0299 62.2906 44.8814 62.2046 44.7487C62.1186 44.6161 62.007 44.502 61.8762 44.4131C61.7455 44.3243 61.5983 44.2625 61.4433 44.2314C61.2883 44.2003 61.1286 44.2006 60.9737 44.2321C60.8188 44.2636 60.6718 44.3258 60.5413 44.4151C60.4109 44.5043 60.2995 44.6187 60.2139 44.7516C60.1283 44.8845 60.0702 45.0332 60.0429 45.1889L58.777 51.5019C58.7428 51.6738 58.7472 51.8512 58.7898 52.0212C58.8324 52.1912 58.9122 52.3496 59.0235 52.485C59.1347 52.6205 59.2746 52.7295 59.4331 52.8044C59.5916 52.8792 59.7647 52.918 59.94 52.9179C60.0178 52.9179 60.0955 52.9105 60.1719 52.8959L66.4899 51.6279C66.6457 51.6007 66.7943 51.5425 66.9272 51.4569C67.0601 51.3713 67.1746 51.26 67.2638 51.1295C67.353 50.999 67.4152 50.852 67.4468 50.6971C67.4783 50.5422 67.4785 50.3826 67.4475 50.2276C67.4164 50.0726 67.3546 49.9254 67.2657 49.7947C67.1769 49.6639 67.0628 49.5523 66.9301 49.4663C66.7975 49.3803 66.649 49.3217 66.4934 49.294C66.3377 49.2663 66.1781 49.27 66.0239 49.3049V49.3019Z" fill="white"/>
<path d="M43.7609 5.0509C43.4475 5.0509 43.1468 5.17506 42.9248 5.39621C42.7027 5.61736 42.5773 5.91749 42.5759 6.2309V8.7609C42.5849 9.06909 42.7136 9.36166 42.9348 9.57648C43.1559 9.79131 43.4521 9.91148 43.7604 9.91148C44.0687 9.91148 44.3649 9.79131 44.5861 9.57648C44.8072 9.36166 44.936 9.06909 44.9449 8.7609V6.2309C44.9453 6.07517 44.9149 5.9209 44.8555 5.77695C44.7961 5.633 44.7088 5.50221 44.5987 5.3921C44.4886 5.28198 44.3578 5.19471 44.2139 5.1353C44.0699 5.07589 43.9156 5.04551 43.7599 5.0459L43.7609 5.0509Z" fill="white"/>
<path d="M62.5449 28.725C62.5455 29.0391 62.6705 29.3402 62.8926 29.5623C63.1147 29.7845 63.4158 29.9095 63.7299 29.91H66.2579C66.5661 29.9011 66.8587 29.7723 67.0735 29.5512C67.2883 29.33 67.4085 29.0338 67.4085 28.7255C67.4085 28.4172 67.2883 28.121 67.0735 27.8998C66.8587 27.6787 66.5661 27.55 66.2579 27.541H63.7199C63.4077 27.5442 63.1093 27.6702 62.8894 27.8918C62.6695 28.1134 62.5457 28.4128 62.5449 28.725Z" fill="white"/>
<path d="M23.6418 18.4839L25.8358 19.7469C26.108 19.9041 26.4316 19.9466 26.7352 19.8653C27.0388 19.7839 27.2977 19.5852 27.4548 19.3129C27.6119 19.0407 27.6545 18.7172 27.5731 18.4136C27.4917 18.1099 27.2931 17.8511 27.0208 17.6939L24.8268 16.4309C24.5546 16.2738 24.231 16.2312 23.9274 16.3126C23.6238 16.394 23.3649 16.5927 23.2078 16.8649C23.0507 17.1372 23.0081 17.4607 23.0895 17.7643C23.1709 18.068 23.3696 18.3268 23.6418 18.4839Z" fill="white"/>
<path d="M60.4289 39.7688L62.6229 41.0318C62.8952 41.189 63.2187 41.2316 63.5223 41.1502C63.8259 41.0688 64.0848 40.8701 64.2419 40.5979C64.3991 40.3256 64.4416 40.0021 64.3602 39.6985C64.2788 39.3949 64.0802 39.136 63.8079 38.9789L61.6139 37.7159C61.3417 37.5587 61.0181 37.5162 60.7145 37.5976C60.4109 37.6789 60.1521 37.8776 59.9949 38.1499C59.8378 38.4221 59.7952 38.7456 59.8766 39.0492C59.958 39.3529 60.1567 39.6117 60.4289 39.7688Z" fill="white"/>
<path d="M53.7738 12.657C53.9817 12.6568 54.1859 12.602 54.366 12.4981C54.546 12.3942 54.6956 12.2448 54.7998 12.065L56.0628 9.87097C56.1487 9.7361 56.2063 9.58526 56.2323 9.42752C56.2583 9.26979 56.2521 9.10842 56.2141 8.95314C56.1761 8.79786 56.1071 8.65187 56.0112 8.52396C55.9153 8.39606 55.7945 8.28888 55.6561 8.20887C55.5177 8.12887 55.3646 8.0777 55.2059 8.05844C55.0472 8.03918 54.8862 8.05223 54.7327 8.0968C54.5792 8.14137 54.4362 8.21655 54.3125 8.3178C54.1888 8.41905 54.0869 8.54429 54.0129 8.68597L52.7478 10.88C52.5916 11.1519 52.5495 11.4747 52.6309 11.7777C52.7122 12.0806 52.9104 12.3389 53.1818 12.496C53.3612 12.6016 53.5657 12.6572 53.7738 12.657Z" fill="white"/>
<path d="M32.724 45.4739L31.459 47.6679C31.3019 47.9401 31.2593 48.2637 31.3407 48.5673C31.4221 48.8709 31.6208 49.1298 31.893 49.2869C32.1653 49.444 32.4888 49.4866 32.7924 49.4052C33.096 49.3238 33.3549 49.1251 33.512 48.8529L34.775 46.6589C34.9165 46.3881 34.948 46.0731 34.8628 45.7797C34.7776 45.4862 34.5823 45.237 34.3178 45.0841C34.0533 44.9312 33.7399 44.8864 33.4431 44.959C33.1463 45.0316 32.8891 45.2161 32.725 45.4739H32.724Z" fill="white"/>
<path d="M62.618 16.4308L60.424 17.6938C60.2862 17.77 60.1649 17.8729 60.0673 17.9965C59.9697 18.1201 59.8977 18.2619 59.8555 18.4137C59.8134 18.5654 59.8019 18.724 59.8217 18.8802C59.8415 19.0365 59.8923 19.1872 59.9711 19.3235C60.0498 19.4599 60.155 19.5792 60.2804 19.6745C60.4058 19.7698 60.5489 19.8391 60.7014 19.8784C60.8539 19.9177 61.0127 19.9263 61.1685 19.9035C61.3244 19.8807 61.4741 19.8271 61.609 19.7458L63.803 18.4828C63.9408 18.4067 64.0621 18.3038 64.1597 18.1802C64.2573 18.0566 64.3293 17.9148 64.3714 17.763C64.4136 17.6113 64.4251 17.4527 64.4053 17.2965C64.3854 17.1402 64.3346 16.9895 64.2559 16.8531C64.1771 16.7168 64.072 16.5974 63.9466 16.5022C63.8212 16.4069 63.6781 16.3376 63.5256 16.2983C63.3731 16.2589 63.2143 16.2504 63.0584 16.2732C62.9026 16.296 62.7529 16.3495 62.618 16.4308Z" fill="white"/>
<path d="M23.2079 40.5969C23.2857 40.7317 23.3893 40.8499 23.5127 40.9447C23.6362 41.0395 23.7771 41.109 23.9275 41.1493C24.0778 41.1896 24.2346 41.1999 24.389 41.1796C24.5433 41.1592 24.6921 41.1087 24.8269 41.0309L27.0209 39.7679C27.2931 39.6107 27.4918 39.3519 27.5732 39.0483C27.6546 38.7446 27.612 38.4211 27.4549 38.1489C27.2977 37.8766 27.0389 37.678 26.7353 37.5966C26.4317 37.5152 26.1081 37.5577 25.8359 37.7149L23.6419 38.9779C23.37 39.1354 23.1716 39.3942 23.0903 39.6977C23.0089 40.0012 23.0512 40.3245 23.2079 40.5969Z" fill="white"/>
<path d="M33.7509 12.6569C33.9585 12.6573 34.1623 12.6016 34.3409 12.4959C34.4758 12.4186 34.5941 12.3154 34.689 12.1922C34.7839 12.0691 34.8535 11.9283 34.8939 11.7782C34.9342 11.628 34.9444 11.4713 34.924 11.3172C34.9036 11.163 34.8529 11.0144 34.7749 10.8799L33.5119 8.68594C33.4357 8.54811 33.3328 8.42685 33.2092 8.32925C33.0856 8.23165 32.9438 8.15966 32.7921 8.11749C32.6403 8.07532 32.4817 8.06382 32.3255 8.08366C32.1693 8.1035 32.0186 8.15428 31.8822 8.23304C31.7458 8.3118 31.6265 8.41694 31.5312 8.54234C31.436 8.66774 31.3666 8.81087 31.3273 8.96337C31.288 9.11587 31.2795 9.27467 31.3022 9.4305C31.325 9.58633 31.3786 9.73606 31.4599 9.87094L32.7249 12.0649C32.8291 12.2448 32.9787 12.3942 33.1588 12.4981C33.3388 12.602 33.543 12.6568 33.7509 12.6569Z" fill="white"/>
<path d="M53.174 45.0398C52.9026 45.1969 52.7044 45.4552 52.6231 45.7581C52.5417 46.061 52.5838 46.3838 52.74 46.6558L54.005 48.8498C54.0791 48.9915 54.181 49.1167 54.3047 49.218C54.4284 49.3192 54.5714 49.3944 54.7249 49.439C54.8784 49.4836 55.0394 49.4966 55.1981 49.4773C55.3568 49.4581 55.5099 49.4069 55.6483 49.3269C55.7867 49.2469 55.9075 49.1397 56.0034 49.0118C56.0993 48.8839 56.1683 48.7379 56.2063 48.5826C56.2443 48.4274 56.2505 48.266 56.2245 48.1083C56.1985 47.9505 56.1409 47.7997 56.055 47.6648L54.792 45.4708C54.7143 45.3359 54.6107 45.2178 54.4871 45.1231C54.3636 45.0284 54.2225 44.959 54.0721 44.9189C53.9216 44.8789 53.7648 44.8689 53.6105 44.8897C53.4562 44.9104 53.3075 44.9614 53.173 45.0398H53.174Z" fill="white"/>
</svg>
