<svg width="34" height="34" viewBox="0 0 34 34" fill="none" xmlns="http://www.w3.org/2000/svg">
<path d="M31.056 28.963C31.6583 28.9606 32.2351 28.7195 32.6599 28.2924C33.0847 27.8654 33.3228 27.2873 33.322 26.685V3.54898C33.3209 2.68629 32.9778 1.85924 32.3678 1.24923C31.7577 0.639212 30.9307 0.296041 30.068 0.294983L3.254 0.294983C2.39131 0.296041 1.56426 0.639212 0.954244 1.24923C0.34423 1.85924 0.00105852 2.68629 0 3.54898L0 26.686C0.000529591 27.2887 0.240176 27.8665 0.666331 28.2927C1.09249 28.7188 1.67033 28.9585 2.273 28.959H2.994V32.31H0.65C0.486416 32.3228 0.333688 32.3969 0.222294 32.5174C0.1109 32.6378 0.0490294 32.7959 0.0490294 32.96C0.0490294 33.1241 0.1109 33.2821 0.222294 33.4026C0.333688 33.5231 0.486416 33.5971 0.65 33.61H32.671C32.8346 33.5971 32.9873 33.5231 33.0987 33.4026C33.2101 33.2821 33.272 33.1241 33.272 32.96C33.272 32.7959 33.2101 32.6378 33.0987 32.5174C32.9873 32.3969 32.8346 32.3228 32.671 32.31H30.328V28.963H31.056ZM3.254 1.59498H30.068C30.5852 1.59578 31.081 1.80158 31.4467 2.16729C31.8124 2.53301 32.0182 3.02879 32.019 3.54598V4.98098H1.3V3.54898C1.3 3.03075 1.50587 2.53374 1.87231 2.1673C2.23876 1.80085 2.73577 1.59498 3.254 1.59498ZM4.3 32.314V26.458H7.159V32.315L4.3 32.314ZM11.588 32.314V19.262H14.452V32.314H11.588ZM18.877 32.314V24.765H21.741V32.314H18.877ZM26.166 32.314V25.302C26.1532 25.1384 26.0791 24.9857 25.9586 24.8743C25.8381 24.7629 25.6801 24.701 25.516 24.701C25.3519 24.701 25.1939 24.7629 25.0734 24.8743C24.9529 24.9857 24.8788 25.1384 24.866 25.302V32.314H23.038V24.114C23.0381 24.0286 23.0214 23.944 22.9888 23.8651C22.9562 23.7862 22.9083 23.7145 22.8479 23.6541C22.7875 23.5937 22.7158 23.5458 22.6369 23.5132C22.558 23.4806 22.4734 23.4639 22.388 23.464H18.223C18.1376 23.4639 18.053 23.4806 17.9741 23.5132C17.8952 23.5458 17.8235 23.5937 17.7631 23.6541C17.7027 23.7145 17.6548 23.7862 17.6222 23.8651C17.5896 23.944 17.5729 24.0286 17.573 24.114V32.314H15.749V18.614C15.7491 18.5286 15.7324 18.444 15.6998 18.3651C15.6672 18.2862 15.6193 18.2145 15.5589 18.1541C15.4985 18.0937 15.4268 18.0458 15.3479 18.0132C15.269 17.9806 15.1844 17.9639 15.099 17.964H10.929C10.8436 17.9639 10.759 17.9806 10.6801 18.0132C10.6012 18.0458 10.5295 18.0937 10.4691 18.1541C10.4087 18.2145 10.3608 18.2862 10.3282 18.3651C10.2956 18.444 10.2789 18.5286 10.279 18.614V32.314H8.461V25.807C8.461 25.7214 8.44414 25.6366 8.41137 25.5575C8.3786 25.4784 8.33058 25.4065 8.27003 25.3459C8.20949 25.2854 8.13761 25.2374 8.05851 25.2046C7.97941 25.1718 7.89462 25.155 7.809 25.155H3.644C3.47143 25.1555 3.3061 25.2244 3.18426 25.3467C3.06242 25.4689 2.994 25.6344 2.994 25.807V27.661H2.273C2.14511 27.661 2.01848 27.6357 1.90041 27.5866C1.78233 27.5375 1.67513 27.4655 1.58498 27.3748C1.49482 27.284 1.4235 27.1764 1.37511 27.058C1.32671 26.9396 1.30221 26.8129 1.303 26.685V6.27998H32.023V26.686C32.023 26.9432 31.9208 27.19 31.7389 27.3719C31.557 27.5538 31.3103 27.656 31.053 27.656H30.332V17.64C30.332 17.4674 30.2636 17.3019 30.1417 17.1797C30.0199 17.0574 29.8546 16.9885 29.682 16.988H25.512C25.4264 16.988 25.3416 17.0048 25.2625 17.0376C25.1834 17.0704 25.1115 17.1184 25.051 17.1789C24.9904 17.2395 24.9424 17.3114 24.9096 17.3905C24.8769 17.4696 24.86 17.5544 24.86 17.64V20.925C24.853 21.0146 24.8645 21.1048 24.894 21.1897C24.9235 21.2747 24.9702 21.3526 25.0313 21.4186C25.0923 21.4847 25.1664 21.5373 25.2487 21.5734C25.3311 21.6094 25.4201 21.628 25.51 21.628C25.5999 21.628 25.6889 21.6094 25.7713 21.5734C25.8536 21.5373 25.9277 21.4847 25.9887 21.4186C26.0498 21.3526 26.0965 21.2747 26.126 21.1897C26.1555 21.1048 26.167 21.0146 26.16 20.925V18.289H29.023V32.314H26.166Z" fill="white"/>
<path d="M14.4522 3.93898H29.1522C29.3246 3.93898 29.49 3.87049 29.6119 3.7486C29.7338 3.6267 29.8022 3.46137 29.8022 3.28898C29.8022 3.11659 29.7338 2.95126 29.6119 2.82936C29.49 2.70746 29.3246 2.63898 29.1522 2.63898H14.4522C14.2798 2.63898 14.1145 2.70746 13.9926 2.82936C13.8707 2.95126 13.8022 3.11659 13.8022 3.28898C13.8022 3.46137 13.8707 3.6267 13.9926 3.7486C14.1145 3.87049 14.2798 3.93898 14.4522 3.93898Z" fill="white"/>
<path d="M6.7689 3.93898C6.91926 3.93903 7.06498 3.88696 7.18125 3.79163C7.29752 3.69631 7.37715 3.56362 7.40658 3.41618C7.436 3.26873 7.4134 3.11564 7.34262 2.98299C7.27184 2.85034 7.15726 2.74633 7.0184 2.68867C6.87954 2.63101 6.72499 2.62328 6.58107 2.66678C6.43715 2.71029 6.31276 2.80234 6.22909 2.92726C6.14542 3.05218 6.10764 3.20225 6.12219 3.3519C6.13675 3.50154 6.20273 3.64152 6.3089 3.74798C6.36926 3.80849 6.44095 3.85651 6.51988 3.88929C6.59882 3.92206 6.68344 3.93894 6.7689 3.93898Z" fill="white"/>
<path d="M4.16588 3.93898C4.31623 3.93903 4.46195 3.88696 4.57822 3.79163C4.6945 3.69631 4.77412 3.56362 4.80355 3.41618C4.83297 3.26873 4.81037 3.11564 4.73959 2.98299C4.66881 2.85034 4.55423 2.74633 4.41537 2.68867C4.27651 2.63101 4.12196 2.62328 3.97804 2.66678C3.83412 2.71029 3.70973 2.80234 3.62606 2.92726C3.54239 3.05218 3.50461 3.20225 3.51917 3.3519C3.53372 3.50154 3.5997 3.64152 3.70588 3.74798C3.76623 3.80849 3.83792 3.85651 3.91686 3.88929C3.99579 3.92206 4.08041 3.93894 4.16588 3.93898Z" fill="white"/>
<path d="M9.37193 3.93898C9.52229 3.93903 9.66801 3.88696 9.78428 3.79163C9.90055 3.69631 9.98018 3.56362 10.0096 3.41618C10.039 3.26873 10.0164 3.11564 9.94564 2.98299C9.87486 2.85034 9.76029 2.74633 9.62143 2.68867C9.48257 2.63101 9.32802 2.62328 9.1841 2.66678C9.04018 2.71029 8.91579 2.80234 8.83212 2.92726C8.74845 3.05218 8.71067 3.20225 8.72522 3.3519C8.73978 3.50154 8.80576 3.64152 8.91194 3.74798C8.97229 3.80849 9.04398 3.85651 9.12291 3.88929C9.20184 3.92206 9.28647 3.93894 9.37193 3.93898Z" fill="white"/>
<path d="M25.512 22.594C25.3872 22.5966 25.266 22.6357 25.1633 22.7066C25.0606 22.7775 24.981 22.877 24.9344 22.9927C24.8877 23.1085 24.8761 23.2354 24.9009 23.3576C24.9258 23.4799 24.986 23.5922 25.0741 23.6806C25.1622 23.769 25.2743 23.8295 25.3965 23.8547C25.5187 23.8799 25.6456 23.8687 25.7615 23.8224C25.8774 23.7761 25.9771 23.6968 26.0483 23.5943C26.1195 23.4919 26.159 23.3707 26.162 23.246C26.1617 23.0735 26.0932 22.9081 25.9715 22.7859C25.8497 22.6638 25.6845 22.5948 25.512 22.594Z" fill="white"/>
<path d="M27.5898 13.827C28.1167 13.8266 28.6281 13.649 29.0417 13.3227C29.4553 12.9963 29.747 12.5402 29.8698 12.0279C29.9926 11.5156 29.9394 10.9768 29.7188 10.4984C29.4981 10.02 29.1229 9.62977 28.6534 9.39061C28.184 9.15145 27.6477 9.07725 27.131 9.17999C26.6142 9.28272 26.1471 9.5564 25.8049 9.95694C25.4626 10.3575 25.2652 10.8616 25.2443 11.388C25.2234 11.9144 25.3803 12.4326 25.6898 12.859L21.3698 17.181C21.0405 16.9987 20.672 16.8988 20.2957 16.8897C19.9194 16.8806 19.5465 16.9627 19.2088 17.129L14.6958 12.615C14.896 12.254 14.9974 11.8465 14.9895 11.4338C14.9816 11.0211 14.8649 10.6177 14.651 10.2647C14.4372 9.91157 14.1339 9.62124 13.7718 9.42307C13.4096 9.22489 13.0016 9.1259 12.5889 9.13612C12.1763 9.14633 11.7736 9.26539 11.4218 9.48125C11.0699 9.6971 10.7813 10.0021 10.5852 10.3653C10.3891 10.7286 10.2924 11.1372 10.305 11.5498C10.3176 11.9624 10.4389 12.3643 10.6568 12.715L6.80881 16.555C6.30858 16.2733 5.72339 16.1821 5.16117 16.298C4.59894 16.414 4.09761 16.7293 3.74962 17.1859C3.40164 17.6424 3.23048 18.2094 3.26771 18.7823C3.30493 19.3551 3.54804 19.8952 3.95219 20.3029C4.35634 20.7106 4.89428 20.9583 5.46678 21.0006C6.03928 21.0428 6.60774 20.8765 7.06731 20.5325C7.52688 20.1885 7.84656 19.69 7.9674 19.1288C8.08823 18.5676 8.00207 17.9816 7.72481 17.479L11.6178 13.59C11.9553 13.7548 12.3276 13.8359 12.703 13.8263C13.0785 13.8167 13.4462 13.7168 13.7748 13.535L18.2448 18.005C18.0297 18.3556 17.9109 18.7566 17.9001 19.1678C17.8894 19.579 17.9871 19.9857 18.1836 20.3471C18.38 20.7085 18.6682 21.0117 19.0192 21.2262C19.3701 21.4408 19.7713 21.5591 20.1825 21.5693C20.5937 21.5794 21.0003 21.4811 21.3614 21.2841C21.7225 21.0871 22.0253 20.7985 22.2393 20.4473C22.4534 20.096 22.5711 19.6946 22.5807 19.2834C22.5902 18.8722 22.4913 18.4657 22.2938 18.105L26.7318 13.667C27.0052 13.7737 27.2963 13.8279 27.5898 13.827ZM27.5898 10.443C27.7959 10.442 27.9976 10.5021 28.1694 10.6157C28.3413 10.7294 28.4756 10.8914 28.5555 11.0814C28.6353 11.2713 28.657 11.4807 28.6178 11.683C28.5786 11.8853 28.4804 12.0714 28.3355 12.2179C28.1905 12.3643 28.0055 12.4645 27.8036 12.5058C27.6017 12.5471 27.3922 12.5276 27.2014 12.4498C27.0106 12.372 26.8471 12.2394 26.7317 12.0687C26.6162 11.8981 26.554 11.697 26.5528 11.491C26.552 11.354 26.5782 11.2183 26.6299 11.0915C26.6816 10.9647 26.7578 10.8494 26.8541 10.752C26.9504 10.6547 27.065 10.5773 27.1912 10.5243C27.3174 10.4712 27.4529 10.4436 27.5898 10.443ZM5.67981 19.652C5.47422 19.6512 5.27346 19.5895 5.10287 19.4748C4.93227 19.36 4.79946 19.1974 4.7212 19.0073C4.64293 18.8171 4.62271 18.6081 4.66308 18.4065C4.70346 18.2049 4.80262 18.0198 4.94807 17.8745C5.09351 17.7292 5.27873 17.6302 5.48035 17.59C5.68198 17.5499 5.89099 17.5703 6.08103 17.6487C6.27106 17.7272 6.43362 17.8601 6.54819 18.0308C6.66276 18.2015 6.72421 18.4024 6.72481 18.608C6.7252 18.7453 6.69844 18.8813 6.64605 19.0082C6.59366 19.1351 6.51669 19.2504 6.41956 19.3474C6.32243 19.4444 6.20706 19.5213 6.08011 19.5736C5.95315 19.6258 5.8171 19.6525 5.67981 19.652ZM12.6458 12.527C12.4394 12.5271 12.2376 12.466 12.066 12.3514C11.8944 12.2368 11.7607 12.0737 11.6819 11.883C11.603 11.6923 11.5826 11.4824 11.6232 11.2801C11.6638 11.0777 11.7635 10.892 11.9098 10.7464C12.0561 10.6008 12.2423 10.5019 12.4449 10.4623C12.6474 10.4227 12.8572 10.4442 13.0475 10.5239C13.2379 10.6037 13.4002 10.7382 13.5141 10.9103C13.6279 11.0825 13.688 11.2846 13.6868 11.491C13.6852 11.7661 13.5749 12.0294 13.3799 12.2235C13.1848 12.4176 12.921 12.5267 12.6458 12.527ZM20.2458 20.275C20.0048 20.2741 19.7716 20.1896 19.586 20.036C19.4003 19.8824 19.2737 19.6691 19.2278 19.4325C19.1818 19.196 19.2193 18.9508 19.3339 18.7388C19.4485 18.5269 19.6331 18.3612 19.8562 18.2702C20.0794 18.1791 20.3271 18.1683 20.5573 18.2395C20.7876 18.3107 20.9859 18.4596 21.1186 18.6608C21.2513 18.8619 21.3101 19.1029 21.285 19.3425C21.2598 19.5822 21.1523 19.8057 20.9808 19.975C20.7851 20.1681 20.5208 20.276 20.2458 20.275Z" fill="white"/>
<path d="M9.19713 9.79799C9.34748 9.79804 9.4932 9.74597 9.60948 9.65064C9.72575 9.55532 9.80537 9.42263 9.83479 9.27518C9.86422 9.12774 9.84162 8.97465 9.77084 8.842C9.70006 8.70935 9.58549 8.60533 9.44663 8.54768C9.30777 8.49002 9.15321 8.48229 9.00929 8.52579C8.86536 8.5693 8.74097 8.66135 8.6573 8.78627C8.57364 8.91119 8.53586 9.06126 8.55042 9.2109C8.56497 9.36055 8.63095 9.50052 8.73712 9.60698C8.85951 9.72847 9.02469 9.79705 9.19713 9.79799Z" fill="white"/>
<path d="M3.64394 9.79799H6.76794C6.93152 9.78514 7.08425 9.71109 7.19564 9.59061C7.30704 9.47013 7.36891 9.31207 7.36891 9.14798C7.36891 8.9839 7.30704 8.82584 7.19564 8.70536C7.08425 8.58488 6.93152 8.51083 6.76794 8.49799H3.64394C3.48035 8.51083 3.32763 8.58488 3.21623 8.70536C3.10484 8.82584 3.04297 8.9839 3.04297 9.14798C3.04297 9.31207 3.10484 9.47013 3.21623 9.59061C3.32763 9.71109 3.48035 9.78514 3.64394 9.79799Z" fill="white"/>
<path d="M6.76894 12.922C6.93252 12.9092 7.08525 12.8351 7.19665 12.7146C7.30804 12.5941 7.36991 12.4361 7.36991 12.272C7.36991 12.1079 7.30804 11.9499 7.19665 11.8294C7.08525 11.7089 6.93252 11.6349 6.76894 11.622H3.64394C3.48035 11.6349 3.32763 11.7089 3.21623 11.8294C3.10484 11.9499 3.04297 12.1079 3.04297 12.272C3.04297 12.4361 3.10484 12.5941 3.21623 12.7146C3.32763 12.8351 3.48035 12.9092 3.64394 12.922H6.76894Z" fill="white"/>
</svg>
