<svg width="33" height="37" viewBox="0 0 33 37" fill="none" xmlns="http://www.w3.org/2000/svg">
<path d="M27.7207 6.75801C27.7197 5.94942 27.398 5.17426 26.8262 4.6025C26.2545 4.03074 25.4793 3.70907 24.6707 3.70801H19.7917V4.92901H24.6707C25.1559 4.92901 25.6212 5.12167 25.9644 5.46465C26.3075 5.80762 26.5005 6.27284 26.5007 6.75801V25.415L25.2857 24.207V11.638C25.2857 11.476 25.2214 11.3205 25.1068 11.206C24.9922 11.0914 24.8368 11.027 24.6747 11.027H19.7917C19.6297 11.027 19.4743 11.0914 19.3597 11.206C19.2451 11.3205 19.1807 11.476 19.1807 11.638V16.518C19.1808 16.6251 19.1526 16.7302 19.0991 16.8229C19.0455 16.9156 18.9685 16.9926 18.8757 17.046L19.4867 18.102C19.5959 18.0393 19.6981 17.9652 19.7917 17.881C20.1269 18.1814 20.5611 18.3476 21.0112 18.3476C21.4613 18.3476 21.8956 18.1814 22.2307 17.881C22.475 18.1004 22.7739 18.2498 23.0959 18.3137C23.4179 18.3776 23.7512 18.3535 24.0607 18.244V23.084C23.6939 22.8582 23.2715 22.7391 22.8407 22.74V20.177C22.8402 20.0153 22.7756 19.8604 22.6611 19.7463C22.5465 19.6321 22.3914 19.568 22.2297 19.568H14.9127C14.751 19.568 14.5959 19.6321 14.4814 19.7463C14.3669 19.8604 14.3022 20.0153 14.3017 20.177V25.057H13.0817V22.613H11.8657V25.666C11.8657 25.8281 11.9301 25.9835 12.0447 26.0981C12.1593 26.2126 12.3147 26.277 12.4767 26.277H20.8047C20.8834 26.4198 20.9769 26.5539 21.0837 26.677L23.9357 30.013C23.4191 31.0047 23.1456 32.1049 23.1376 33.223C23.1296 34.3411 23.3874 35.4451 23.8897 36.444L24.1287 36.922L25.2197 36.376L24.9807 35.898C24.5365 35.0157 24.3234 34.0351 24.3614 33.048C24.3993 32.0609 24.6871 31.0996 25.1977 30.254C25.2625 30.1448 25.2916 30.0181 25.281 29.8916C25.2704 29.7651 25.2207 29.645 25.1387 29.548L22.0047 25.883C21.8272 25.6786 21.7299 25.4167 21.7307 25.146V25.08C21.7315 24.8602 21.7972 24.6456 21.9196 24.463C22.0419 24.2804 22.2155 24.1381 22.4186 24.0539C22.6216 23.9697 22.845 23.9474 23.0606 23.9897C23.2763 24.0321 23.4746 24.1373 23.6307 24.292L28.5097 29.159L29.3727 28.296L27.7207 26.644V6.75801ZM21.6207 23.084C21.2833 23.2917 21.0041 23.5817 20.8094 23.9268C20.6148 24.2719 20.5109 24.6608 20.5077 25.057H19.1807V20.787H21.6197L21.6207 23.084ZM15.5207 20.784H17.9657V25.053H15.5227L15.5207 20.784ZM24.0597 14.684H22.8397V12.248H24.0597V14.684ZM21.6187 12.245V14.688H20.3987V12.248L21.6187 12.245ZM21.0067 17.124C20.8451 17.1237 20.6901 17.0596 20.5757 16.9455C20.4612 16.8314 20.3965 16.6766 20.3957 16.515V15.904H21.6157V16.515C21.6161 16.595 21.6008 16.6743 21.5705 16.7483C21.5403 16.8223 21.4957 16.8897 21.4395 16.9465C21.3832 17.0033 21.3163 17.0485 21.2425 17.0795C21.1688 17.1105 21.0897 17.1266 21.0097 17.127L21.0067 17.124ZM23.4457 17.124C23.2842 17.124 23.1293 17.0598 23.0151 16.9456C22.9009 16.8314 22.8367 16.6765 22.8367 16.515V15.904H24.0567V16.515C24.0567 16.5952 24.0409 16.6745 24.0102 16.7485C23.9794 16.8225 23.9344 16.8898 23.8776 16.9463C23.8209 17.0029 23.7535 17.0477 23.6794 17.0782C23.6053 17.1087 23.5259 17.1243 23.4457 17.124Z" fill="white"/>
<path d="M10.6429 33.595V20.787H9.42285V33.595C9.42312 34.4038 9.74454 35.1794 10.3165 35.7514C10.8884 36.3233 11.664 36.6447 12.4728 36.645H22.2318V35.425H12.4728C11.9877 35.4242 11.5227 35.2311 11.1797 34.8881C10.8367 34.5451 10.6436 34.0801 10.6429 33.595Z" fill="white"/>
<path d="M22.2321 32.985H14.9131V34.205H22.2321V32.985Z" fill="white"/>
<path d="M31.3969 24.559L29.4139 22.084L28.4629 22.846L30.4469 25.321C31.0514 26.079 31.3813 27.0194 31.3829 27.989V36.646H32.6029V27.989C32.6019 26.7429 32.179 25.5339 31.4029 24.559H31.3969Z" fill="white"/>
<path d="M19.1819 28.107H17.9619V29.327H19.1819V28.107Z" fill="white"/>
<path d="M16.7429 28.107H15.5229V29.327H16.7429V28.107Z" fill="white"/>
<path d="M21.6219 28.107H20.4019V29.327H21.6219V28.107Z" fill="white"/>
<path d="M12.4739 21.392C12.634 21.3923 12.7877 21.3294 12.9017 21.2171C13.0157 21.1048 13.0808 20.952 13.0829 20.792V18.349H15.5239C16.3322 18.348 17.107 18.0266 17.6787 17.4552C18.2504 16.8839 18.5723 16.1092 18.5739 15.301V3.09901C18.5729 2.29025 18.2511 1.51494 17.6791 0.943152C17.1071 0.371366 16.3317 0.049805 15.5229 0.0490112L3.32393 0.0490112C2.5151 0.0492763 1.73947 0.3707 1.16754 0.942628C0.595615 1.51456 0.274191 2.29018 0.273926 3.09901V3.70801H1.49393V3.09901C1.49472 2.61391 1.68778 2.1489 2.0308 1.80588C2.37382 1.46286 2.83882 1.2698 3.32393 1.26901H15.5239C16.0091 1.26928 16.4743 1.4622 16.8173 1.80536C17.1603 2.14852 17.3529 2.61384 17.3529 3.09901V15.299C17.3529 15.5392 17.3056 15.777 17.2137 15.9989C17.1218 16.2208 16.9871 16.4225 16.8172 16.5923C16.6474 16.7621 16.4458 16.8969 16.2239 16.9888C16.0019 17.0807 15.7641 17.128 15.5239 17.128H12.4739C12.3124 17.1288 12.1578 17.1935 12.0438 17.308C11.9299 17.4225 11.8659 17.5775 11.8659 17.739V19.487L9.21093 17.275C9.102 17.1814 8.96351 17.1294 8.81993 17.128H3.31993C2.83475 17.128 2.36944 16.9353 2.02627 16.5924C1.68311 16.2494 1.49019 15.7842 1.48993 15.299V4.92901H0.273926V15.298C0.273926 16.107 0.595233 16.8829 1.16719 17.455C1.73915 18.0272 2.51492 18.3487 3.32393 18.349H8.59193L12.0829 21.259C12.1944 21.3467 12.3321 21.3946 12.4739 21.395V21.392Z" fill="white"/>
<path d="M2.71289 12.248V14.077C2.71368 14.5621 2.90674 15.0271 3.24976 15.3702C3.59278 15.7132 4.05779 15.9062 4.54289 15.907H14.3019C14.787 15.9062 15.252 15.7132 15.595 15.3702C15.938 15.0271 16.1311 14.5621 16.1319 14.077V12.248C16.1317 12.1499 16.1078 12.0532 16.0624 11.9662C16.017 11.8792 15.9513 11.8043 15.8709 11.748C16.0421 11.4339 16.1318 11.0818 16.1318 10.724C16.1318 10.3663 16.0421 10.0142 15.8709 9.70004C15.9523 9.64334 16.0187 9.5676 16.0642 9.47941C16.1096 9.39123 16.1329 9.29326 16.1319 9.19404V7.97904C16.1295 6.52381 15.5505 5.12884 14.5217 4.09965C13.4929 3.07046 12.0981 2.49095 10.6429 2.48804H8.20389C6.74832 2.49042 5.35304 3.06969 4.3238 4.09894C3.29455 5.12819 2.71527 6.52346 2.71289 7.97904V9.19304C2.71325 9.29139 2.73734 9.38821 2.78313 9.47526C2.82892 9.56231 2.89504 9.63702 2.97589 9.69304C2.80407 10.007 2.71402 10.3591 2.71402 10.717C2.71402 11.0749 2.80407 11.4271 2.97589 11.741C2.89504 11.7971 2.82892 11.8718 2.78313 11.9588C2.73734 12.0459 2.71325 12.1427 2.71289 12.241V12.248ZM14.9129 14.077C14.9129 14.2391 14.8485 14.3945 14.7339 14.5091C14.6193 14.6237 14.4639 14.688 14.3019 14.688H4.54289C4.46275 14.688 4.38339 14.6722 4.30937 14.6415C4.23536 14.6108 4.16813 14.5657 4.11156 14.509C4.05498 14.4522 4.01016 14.3848 3.97967 14.3107C3.94919 14.2366 3.93363 14.1572 3.93389 14.077V12.857H14.9119L14.9129 14.077ZM3.93389 10.723C3.93374 10.552 3.98167 10.3843 4.07219 10.2391C4.16272 10.094 4.2922 9.97717 4.44589 9.90204L6.61689 11.638H4.84689C4.60448 11.638 4.372 11.5417 4.20059 11.3703C4.02919 11.1989 3.93289 10.9664 3.93289 10.724L3.93389 10.723ZM13.9979 9.80704C14.2332 9.81804 14.4552 9.91925 14.6178 10.0896C14.7804 10.26 14.8711 10.4865 14.8711 10.722C14.8711 10.9576 14.7804 11.184 14.6178 11.3544C14.4552 11.5248 14.2332 11.626 13.9979 11.637H8.57289L10.8599 9.80704H13.9979ZM7.58889 10.856L6.27289 9.80704H8.89989L7.58889 10.856ZM3.93489 7.97904C3.93489 6.84471 4.3855 5.75683 5.18759 4.95474C5.98969 4.15265 7.07756 3.70204 8.21189 3.70204H10.6429C11.7772 3.70204 12.8651 4.15265 13.6672 4.95474C14.4693 5.75683 14.9199 6.84471 14.9199 7.97904V8.58804H3.93389L3.93489 7.97904Z" fill="white"/>
<path d="M7.59402 5.53802H6.37402V6.75802H7.59402V5.53802Z" fill="white"/>
<path d="M10.033 5.53802H8.81299V6.75802H10.033V5.53802Z" fill="white"/>
<path d="M12.4739 5.53802H11.2539V6.75802H12.4739V5.53802Z" fill="white"/>
<path d="M22.232 6.14899H19.793V7.36899H22.232V6.14899Z" fill="white"/>
</svg>
