<svg width="37" height="37" viewBox="0 0 37 37" fill="none" xmlns="http://www.w3.org/2000/svg">
<path d="M35.4691 19.81H30.1181V4.351C30.1181 3.40497 29.7423 2.49769 29.0734 1.82875C28.4044 1.1598 27.4972 0.783997 26.5511 0.783997H14.0651C13.2766 0.783731 12.5202 1.09667 11.9623 1.654C11.4044 2.21133 11.0907 2.96742 11.0901 3.756V7.979C10.4195 8.11746 9.81703 8.48249 9.38381 9.01276C8.95059 9.54304 8.71307 10.2063 8.71114 10.891V15.054H0.990137C0.831007 15.054 0.678394 15.1172 0.565873 15.2297C0.453351 15.3423 0.390137 15.4949 0.390137 15.654L0.390137 32.296C0.390137 32.4551 0.453351 32.6077 0.565873 32.7203C0.678394 32.8328 0.831007 32.896 0.990137 32.896H8.71314V33.496C8.71631 34.2832 9.03146 35.037 9.58949 35.5922C10.1475 36.1475 10.9029 36.4588 11.6901 36.458H23.5781C23.9687 36.4581 24.3554 36.3813 24.7162 36.2319C25.0771 36.0824 25.4049 35.8634 25.681 35.5872C25.9571 35.311 26.1761 34.9831 26.3254 34.6222C26.4747 34.2613 26.5514 33.8745 26.5511 33.484V25.754H32.4971C32.9658 25.754 33.4299 25.6616 33.8629 25.4822C34.2958 25.3027 34.6892 25.0397 35.0204 24.7082C35.3517 24.3766 35.6144 23.9831 35.7935 23.5499C35.9726 23.1168 36.0645 22.6527 36.0641 22.184V20.405C36.0628 20.2476 35.9997 20.097 35.8884 19.9857C35.7771 19.8744 35.6265 19.8113 35.4691 19.81ZM3.95714 31.702H1.57914V16.242H3.95714V31.702ZM6.33614 31.702H5.14614V16.242H6.33614V31.702ZM8.71314 31.702H7.52514V16.242H8.71314V31.702ZM12.2811 3.756C12.2825 3.28326 12.4708 2.83026 12.8051 2.49598C13.1394 2.1617 13.5924 1.97332 14.0651 1.972H23.8901C23.3044 2.62598 22.9804 3.47303 22.9801 4.351V12.674H12.2801L12.2811 3.756ZM25.3621 33.484C25.3608 33.9567 25.1724 34.4097 24.8382 34.744C24.5039 35.0783 24.0509 35.2667 23.5781 35.268H11.6901C11.217 35.2672 10.7635 35.0791 10.4288 34.7447C10.0941 34.4104 9.90546 33.9571 9.90414 33.484V10.891C9.9057 10.5236 10.0204 10.1657 10.2326 9.86579C10.4448 9.56592 10.7442 9.33868 11.0901 9.215V13.27C11.0901 13.4291 11.1534 13.5817 11.2659 13.6943C11.3784 13.8068 11.531 13.87 11.6901 13.87H23.5781C23.7373 13.87 23.8899 13.8068 24.0024 13.6943C24.1149 13.5817 24.1781 13.4291 24.1781 13.27V9.215C24.5245 9.33874 24.8243 9.56604 25.037 9.86605C25.2497 10.1661 25.365 10.5242 25.3671 10.892L25.3621 33.484ZM26.5511 24.565V10.891C26.5495 10.2065 26.3123 9.5434 25.8795 9.01312C25.4466 8.48284 24.8444 8.11769 24.1741 7.979V4.351C24.1649 4.03291 24.2196 3.71621 24.3349 3.41963C24.4503 3.12306 24.624 2.85264 24.8457 2.62438C25.0674 2.39613 25.3327 2.21468 25.6258 2.09077C25.9189 1.96687 26.2339 1.90303 26.5521 1.90303C26.8704 1.90303 27.1853 1.96687 27.4784 2.09077C27.7716 2.21468 28.0368 2.39613 28.2586 2.62438C28.4803 2.85264 28.654 3.12306 28.7693 3.41963C28.8847 3.71621 28.9394 4.03291 28.9301 4.351V22.184C28.9309 23.063 29.2572 23.9105 29.8461 24.563L26.5511 24.565ZM34.8751 22.184C34.8816 22.5004 34.8249 22.815 34.7083 23.1093C34.5917 23.4035 34.4175 23.6715 34.196 23.8976C33.9745 24.1237 33.7101 24.3034 33.4183 24.426C33.1265 24.5486 32.8132 24.6118 32.4966 24.6118C32.1801 24.6118 31.8668 24.5486 31.575 24.426C31.2832 24.3034 31.0188 24.1237 30.7973 23.8976C30.5758 23.6715 30.4016 23.4035 30.285 23.1093C30.1684 22.815 30.1116 22.5004 30.1181 22.184V21H34.8761L34.8751 22.184Z" fill="white"/>
<path d="M14.0643 21H11.6923C11.5342 21 11.3825 21.0624 11.2701 21.1736C11.1578 21.2849 11.0939 21.4359 11.0923 21.594V23.973C11.0923 24.1322 11.1555 24.2848 11.268 24.3973C11.3805 24.5098 11.5332 24.573 11.6923 24.573H14.0693C14.2284 24.573 14.381 24.5098 14.4935 24.3973C14.6061 24.2848 14.6693 24.1322 14.6693 23.973V21.594C14.6677 21.4351 14.6031 21.2832 14.4897 21.1719C14.3762 21.0605 14.2232 20.9987 14.0643 21ZM13.4703 23.377H12.2803V22.188H13.4703V23.377Z" fill="white"/>
<path d="M18.8184 21H16.4394C16.2813 21 16.1295 21.0624 16.0172 21.1736C15.9048 21.2848 15.8409 21.4359 15.8394 21.594V23.973C15.8394 24.1321 15.9026 24.2847 16.0151 24.3973C16.1276 24.5098 16.2802 24.573 16.4394 24.573H18.8184C18.9764 24.5714 19.1275 24.5075 19.2387 24.3952C19.35 24.2828 19.4124 24.1311 19.4124 23.973V21.594C19.4124 21.4365 19.3498 21.2854 19.2384 21.174C19.127 21.0626 18.9759 21 18.8184 21ZM18.2184 23.377H17.0384V22.188H18.2274L18.2184 23.377Z" fill="white"/>
<path d="M23.578 21H21.199C21.0414 21 20.8903 21.0626 20.7789 21.174C20.6675 21.2854 20.605 21.4365 20.605 21.594V23.973C20.605 24.1311 20.6674 24.2828 20.7786 24.3952C20.8898 24.5075 21.0409 24.5714 21.199 24.573H23.578C23.7371 24.573 23.8897 24.5098 24.0022 24.3973C24.1148 24.2847 24.178 24.1321 24.178 23.973V21.594C24.1764 21.4359 24.1125 21.2848 24.0001 21.1736C23.8878 21.0624 23.7361 21 23.578 21ZM22.978 23.377H21.789V22.188H22.978V23.377Z" fill="white"/>
<path d="M14.0643 25.756H11.6923C11.5332 25.756 11.3805 25.8192 11.268 25.9317C11.1555 26.0443 11.0923 26.1969 11.0923 26.356V28.733C11.0923 28.8921 11.1555 29.0447 11.268 29.1573C11.3805 29.2698 11.5332 29.333 11.6923 29.333H14.0693C14.2284 29.333 14.381 29.2698 14.4935 29.1573C14.6061 29.0447 14.6693 28.8921 14.6693 28.733V26.356C14.6693 26.2768 14.6536 26.1984 14.6231 26.1252C14.5927 26.0521 14.548 25.9857 14.4918 25.93C14.4355 25.8742 14.3688 25.8301 14.2954 25.8002C14.2221 25.7704 14.1435 25.7553 14.0643 25.756ZM13.4703 28.135H12.2803V26.945H13.4703V28.135Z" fill="white"/>
<path d="M18.8184 25.756H16.4394C16.2802 25.756 16.1276 25.8192 16.0151 25.9317C15.9026 26.0442 15.8394 26.1969 15.8394 26.356V28.733C15.8394 28.8921 15.9026 29.0447 16.0151 29.1572C16.1276 29.2698 16.2802 29.333 16.4394 29.333H18.8184C18.9764 29.3314 19.1275 29.2675 19.2387 29.1551C19.35 29.0428 19.4124 28.8911 19.4124 28.733V26.356C19.4124 26.1979 19.35 26.0462 19.2387 25.9338C19.1275 25.8215 18.9764 25.7576 18.8184 25.756ZM18.2184 28.135H17.0384V26.945H18.2274L18.2184 28.135Z" fill="white"/>
<path d="M23.578 25.756H21.199C21.0409 25.7576 20.8898 25.8215 20.7786 25.9338C20.6674 26.0462 20.605 26.1979 20.605 26.356V28.733C20.605 28.8911 20.6674 29.0428 20.7786 29.1551C20.8898 29.2675 21.0409 29.3314 21.199 29.333H23.578C23.7371 29.333 23.8897 29.2698 24.0022 29.1572C24.1148 29.0447 24.178 28.8921 24.178 28.733V26.356C24.178 26.1969 24.1148 26.0442 24.0022 25.9317C23.8897 25.8192 23.7371 25.756 23.578 25.756ZM22.978 28.135H21.789V26.945H22.978V28.135Z" fill="white"/>
<path d="M14.0643 30.512H11.6923C11.5332 30.512 11.3805 30.5752 11.268 30.6877C11.1555 30.8002 11.0923 30.9528 11.0923 31.112V33.482C11.0939 33.6401 11.1578 33.7912 11.2701 33.9024C11.3825 34.0136 11.5342 34.076 11.6923 34.076H14.0693C14.2274 34.076 14.3791 34.0136 14.4914 33.9024C14.6038 33.7912 14.6677 33.6401 14.6693 33.482V31.103C14.6669 30.9446 14.602 30.7935 14.4886 30.6828C14.3753 30.572 14.2227 30.5106 14.0643 30.512ZM13.4703 32.891H12.2803V31.702H13.4703V32.891Z" fill="white"/>
<path d="M18.8184 30.512H16.4394C16.2802 30.512 16.1276 30.5752 16.0151 30.6878C15.9026 30.8003 15.8394 30.9529 15.8394 31.112V33.482C15.8409 33.6401 15.9048 33.7912 16.0172 33.9024C16.1295 34.0136 16.2813 34.076 16.4394 34.076H18.8184C18.9759 34.076 19.127 34.0134 19.2384 33.902C19.3498 33.7906 19.4124 33.6396 19.4124 33.482V31.103C19.41 30.9465 19.3466 30.7971 19.2356 30.6867C19.1246 30.5762 18.9749 30.5136 18.8184 30.512ZM18.2184 32.891H17.0384V31.702H18.2274L18.2184 32.891Z" fill="white"/>
<path d="M23.578 30.512H21.199C21.0409 30.5136 20.8898 30.5775 20.7786 30.6899C20.6674 30.8022 20.605 30.9539 20.605 31.112V33.482C20.605 33.6396 20.6675 33.7906 20.7789 33.902C20.8903 34.0134 21.0414 34.076 21.199 34.076H23.578C23.7361 34.076 23.8878 34.0136 24.0001 33.9024C24.1125 33.7912 24.1764 33.6401 24.178 33.482V31.103C24.1756 30.9455 24.1114 30.7952 23.9991 30.6846C23.8868 30.574 23.7356 30.512 23.578 30.512ZM22.978 32.891H21.789V31.702H22.978V32.891Z" fill="white"/>
<path d="M23.5783 16.242H11.6923C11.5332 16.242 11.3805 16.3052 11.268 16.4177C11.1555 16.5303 11.0923 16.6829 11.0923 16.842V19.212C11.0939 19.3701 11.1578 19.5212 11.2701 19.6324C11.3825 19.7436 11.5342 19.806 11.6923 19.806H23.5783C23.7364 19.806 23.8881 19.7436 24.0004 19.6324C24.1128 19.5212 24.1767 19.3701 24.1783 19.212V16.833C24.1759 16.6754 24.1117 16.5251 23.9994 16.4145C23.8871 16.304 23.7359 16.242 23.5783 16.242ZM22.9783 18.621H12.2783V17.432H22.9783V18.621Z" fill="white"/>
<path d="M19.4181 8.51397C19.4164 8.88183 19.3013 9.24021 19.0886 9.5403C18.8758 9.84039 18.5757 10.0676 18.2291 10.191V10.891H17.0381V10.191C16.6916 10.0675 16.3914 9.84032 16.1785 9.54027C15.9656 9.24022 15.8502 8.88188 15.8481 8.51397H17.0381C17.0393 8.63119 17.0752 8.74543 17.1412 8.84233C17.2071 8.93922 17.3003 9.01442 17.409 9.05846C17.5176 9.1025 17.6368 9.11341 17.7517 9.08981C17.8665 9.06622 17.9718 9.00918 18.0542 8.92587C18.1367 8.84257 18.1927 8.73672 18.2151 8.62166C18.2376 8.5066 18.2255 8.38748 18.1803 8.27929C18.1352 8.1711 18.0591 8.07868 17.9615 8.01367C17.864 7.94867 17.7494 7.91398 17.6321 7.91397C17.2143 7.90997 16.8111 7.75942 16.4929 7.48857C16.1747 7.21771 15.9616 6.84375 15.8909 6.4319C15.8202 6.02006 15.8963 5.59645 16.106 5.23498C16.3157 4.87351 16.6455 4.5971 17.0381 4.45397V3.75397H18.2271V4.45397C18.5738 4.57721 18.874 4.80439 19.0867 5.10451C19.2995 5.40462 19.4146 5.76307 19.4161 6.13097H18.2271C18.2271 6.0123 18.192 5.8963 18.126 5.79763C18.0601 5.69896 17.9664 5.62205 17.8568 5.57664C17.7471 5.53123 17.6265 5.51935 17.5101 5.5425C17.3937 5.56565 17.2868 5.62279 17.2029 5.7067C17.119 5.79061 17.0618 5.89753 17.0387 6.01391C17.0155 6.1303 17.0274 6.25094 17.0728 6.36058C17.1182 6.47021 17.1951 6.56392 17.2938 6.62985C17.3925 6.69578 17.5085 6.73097 17.6271 6.73097C18.101 6.73017 18.5558 6.91751 18.8916 7.25183C19.2274 7.58615 19.4168 8.04011 19.4181 8.51397Z" fill="white"/>
<path d="M1.57914 0.783997H0.390137V1.973H1.57914V0.783997Z" fill="white"/>
<path d="M7.52504 0.783997H2.76904V1.973H7.52504V0.783997Z" fill="white"/>
<path d="M1.57914 4.35101H0.390137V5.54001H1.57914V4.35101Z" fill="white"/>
<path d="M7.52504 4.35101H2.76904V5.54001H7.52504V4.35101Z" fill="white"/>
<path d="M1.57914 7.91901H0.390137V9.10801H1.57914V7.91901Z" fill="white"/>
<path d="M7.52504 7.91901H2.76904V9.10801H7.52504V7.91901Z" fill="white"/>
<path d="M36.064 28.135H34.875V29.324H36.064V28.135Z" fill="white"/>
<path d="M33.6852 28.135H28.9292V29.324H33.6852V28.135Z" fill="white"/>
<path d="M36.064 31.702H34.875V32.891H36.064V31.702Z" fill="white"/>
<path d="M33.6852 31.702H28.9292V32.891H33.6852V31.702Z" fill="white"/>
<path d="M36.064 35.269H34.875V36.458H36.064V35.269Z" fill="white"/>
<path d="M33.6852 35.269H28.9292V36.458H33.6852V35.269Z" fill="white"/>
</svg>
