<svg width="37" height="38" viewBox="0 0 37 38" fill="none" xmlns="http://www.w3.org/2000/svg">
<path d="M33.9328 28.588C34.7127 28.5869 35.4603 28.2766 36.0116 27.7251C36.563 27.1735 36.873 26.4258 36.8738 25.646V10.354C36.8726 9.67174 36.6345 9.0111 36.2002 8.48492C35.7659 7.95873 35.1624 7.59964 34.4928 7.46898C34.3608 5.85597 33.6286 4.35113 32.4409 3.25177C31.2532 2.15242 29.6964 1.53852 28.078 1.53136C26.4596 1.5242 24.8974 2.1243 23.7 3.2131C22.5026 4.3019 21.7571 5.8002 21.6108 7.41198H13.3448C13.3457 6.30977 13.065 5.22559 12.5294 4.26227C11.9938 3.29894 11.221 2.48839 10.2843 1.90748C9.3476 1.32656 8.27804 0.994544 7.17703 0.942899C6.07603 0.891255 4.98008 1.1217 3.99311 1.61238C3.00613 2.10306 2.16085 2.83771 1.53742 3.74667C0.913983 4.65563 0.533058 5.70877 0.430763 6.80623C0.328468 7.90369 0.508194 9.00909 0.952899 10.0176C1.3976 11.0261 2.09255 11.9043 2.97183 12.569C2.5346 12.9536 2.18432 13.4269 1.9443 13.9575C1.70428 14.4881 1.58004 15.0637 1.57983 15.646V18.984C1.5796 20.1171 1.91466 21.225 2.54281 22.1682C3.17097 23.1113 4.06413 23.8475 5.10983 24.284V25.935C4.04068 26.5322 3.15003 27.4036 2.52958 28.4594C1.90912 29.5152 1.58129 30.7173 1.57983 31.942V37.412H15.0258V37.399C15.6344 37.3683 16.2317 37.2224 16.7858 36.969L21.5708 34.794C21.7531 34.7104 21.9216 34.5999 22.0708 34.466H24.5158C24.8797 34.4646 25.2342 34.3508 25.5309 34.1401C25.8275 33.9294 26.0518 33.6321 26.1728 33.289H35.1028C35.3381 33.2946 35.5721 33.2531 35.7911 33.1669C36.01 33.0808 36.2096 32.9517 36.3779 32.7873C36.5463 32.6229 36.6801 32.4265 36.7714 32.2096C36.8628 31.9927 36.9098 31.7598 36.9098 31.5245C36.9098 31.2892 36.8628 31.0562 36.7714 30.8394C36.6801 30.6225 36.5463 30.4261 36.3779 30.2617C36.2096 30.0973 36.01 29.9682 35.7911 29.882C35.5721 29.7959 35.3381 29.7544 35.1028 29.76H31.5798C31.4251 29.7597 31.2768 29.6981 31.1675 29.5886C31.0582 29.4791 30.9968 29.3307 30.9968 29.176V28.593L33.9328 28.588ZM33.9328 27.411H13.6328C12.6356 26.277 11.2953 25.4996 9.81583 25.197V24.332C10.1083 24.2338 10.3797 24.0814 10.6158 23.883H35.6978V25.647C35.6973 26.1149 35.5112 26.5636 35.1803 26.8944C34.8494 27.2253 34.4008 27.4115 33.9328 27.412V27.411ZM23.3448 29.769H22.3058C21.7169 29.7705 21.1355 29.902 20.6032 30.1543C20.071 30.4065 19.601 30.7731 19.2268 31.228V28.597H23.9328V29.825C23.7407 29.7852 23.545 29.7651 23.3488 29.765L23.3448 29.769ZM15.5888 33.069L15.2888 30.969C15.1686 30.1303 14.8929 29.3215 14.4758 28.584H18.0598V31.948L15.5888 33.069ZM7.82683 16.234L8.25283 15.384C8.30129 15.2858 8.37642 15.2032 8.46962 15.1457C8.56283 15.0883 8.67033 15.0582 8.77983 15.059H12.1698C12.3258 15.059 12.4753 15.1209 12.5856 15.2312C12.6959 15.3415 12.7578 15.491 12.7578 15.647C12.7578 15.8029 12.6959 15.9525 12.5856 16.0628C12.4753 16.173 12.3258 16.235 12.1698 16.235L7.82683 16.234ZM28.0508 2.70698C29.0979 2.70698 30.1214 3.01747 30.992 3.59918C31.8626 4.1809 32.5412 5.00771 32.9419 5.97506C33.3425 6.94241 33.4474 8.00686 33.2431 9.03379C33.0388 10.0607 32.5346 11.004 31.7943 11.7444C31.0539 12.4848 30.1106 12.989 29.0836 13.1933C28.0567 13.3975 26.9923 13.2927 26.0249 12.892C25.0576 12.4913 24.2307 11.8128 23.649 10.9422C23.0673 10.0716 22.7568 9.04804 22.7568 8.00098C22.7568 7.30577 22.8938 6.61736 23.1598 5.97506C23.4259 5.33276 23.8158 4.74915 24.3074 4.25756C24.799 3.76597 25.3826 3.37601 26.0249 3.10997C26.6672 2.84392 27.3556 2.70698 28.0508 2.70698ZM21.6098 8.58898C21.7552 10.1878 22.4899 11.6754 23.6711 12.7625C24.8524 13.8497 26.3957 14.4587 28.001 14.4712C29.6064 14.4837 31.159 13.8987 32.3569 12.83C33.5549 11.7613 34.3127 10.2853 34.4828 8.68898C34.835 8.80421 35.1418 9.02751 35.3598 9.32714C35.5777 9.62677 35.6956 9.98748 35.6968 10.358V22.705H11.3898C11.4846 22.4006 11.5185 22.0805 11.4898 21.763L11.0548 17.412H12.1708C12.6389 17.412 13.0879 17.226 13.4189 16.895C13.7499 16.564 13.9358 16.1151 13.9358 15.647C13.9358 15.1789 13.7499 14.7299 13.4189 14.3989C13.0879 14.0679 12.6389 13.882 12.1708 13.882H10.9318C10.8486 13.4904 10.6859 13.1201 10.4538 12.794C11.175 12.3167 11.7922 11.6987 12.2686 10.977C12.7449 10.2552 13.0705 9.44468 13.2258 8.59398L21.6098 8.58898ZM1.57983 7.41198C1.57584 6.48255 1.81634 5.56841 2.27719 4.76127C2.73805 3.95413 3.40306 3.28237 4.2055 2.8134C5.00795 2.34442 5.91962 2.09471 6.84905 2.08932C7.77847 2.08393 8.69297 2.32305 9.50081 2.78269C10.3086 3.24232 10.9814 3.90632 11.4516 4.70806C11.9218 5.5098 12.1729 6.42109 12.1796 7.35051C12.1864 8.27993 11.9487 9.19479 11.4903 10.0033C11.0318 10.8118 10.3689 11.4856 9.56783 11.957C9.11092 11.6782 8.5861 11.5304 8.05083 11.53H5.69783C5.13027 11.532 4.56935 11.6522 4.05083 11.883C3.29562 11.4063 2.67312 10.7465 2.24112 9.96483C1.80913 9.18319 1.58166 8.30506 1.57983 7.41198ZM2.75683 15.648C2.75763 14.8682 3.06774 14.1206 3.61911 13.5693C4.17048 13.0179 4.91807 12.7078 5.69783 12.707H8.05083C8.41422 12.7057 8.76915 12.8166 9.06715 13.0246C9.36514 13.2326 9.59168 13.5275 9.71583 13.869H8.77783C8.44979 13.8675 8.12793 13.9582 7.84893 14.1308C7.56993 14.3034 7.34502 14.5508 7.19983 14.845L6.51083 16.222H2.75783L2.75683 15.648ZM2.75683 18.986V17.411H4.36883C4.08379 17.8483 3.93165 18.3589 3.93083 18.881C3.93366 19.6024 4.22117 20.2935 4.73083 20.804L5.11183 21.185V22.969C4.39913 22.5746 3.80503 21.9965 3.39125 21.2948C2.97747 20.5932 2.7591 19.7936 2.75883 18.979L2.75683 18.986ZM5.56283 19.969C5.27429 19.6791 5.11185 19.287 5.11083 18.878C5.11027 18.6754 5.14993 18.4748 5.22752 18.2877C5.30511 18.1005 5.41909 17.9307 5.56283 17.788L5.94783 17.407H9.87183L10.3238 21.877C10.3436 22.0664 10.3207 22.2579 10.2569 22.4373C10.193 22.6168 10.0898 22.7796 9.95483 22.914C9.71314 23.1541 9.38651 23.2892 9.04583 23.29H7.46283V24.469H8.63883V25.069C8.58183 25.069 8.52683 25.06 8.46983 25.06C7.726 25.06 6.98721 25.1819 6.28283 25.421V20.7L5.56283 19.969ZM16.3048 35.899C15.8246 36.1187 15.3028 36.233 14.7746 36.2339C14.2465 36.2349 13.7242 36.1226 13.2432 35.9047C12.7621 35.6867 12.3334 35.3681 11.9859 34.9703C11.6384 34.5726 11.3802 34.105 11.2288 33.599L10.3788 30.769L9.25283 31.106L10.1008 33.933C10.3699 34.8289 10.8927 35.6277 11.6058 36.233H2.75783V31.946C2.76878 30.509 3.32102 29.129 4.30441 28.0812C5.2878 27.0334 6.63004 26.3948 8.06341 26.2929C9.49678 26.1909 10.9159 26.633 12.0377 27.5311C13.1595 28.4291 13.9016 29.7171 14.1158 31.138L14.4658 33.577L13.6828 33.933L14.1698 35.004L17.6528 33.42L18.3468 34.969L16.3048 35.899ZM21.0908 33.724L19.4268 34.481L18.7368 32.93L20.3708 32.187C20.4882 32.1362 20.615 32.1109 20.7428 32.113C20.9315 32.1178 21.1131 32.1857 21.2585 32.3059C21.404 32.4261 21.5049 32.5917 21.5451 32.7761C21.5853 32.9604 21.5625 33.153 21.4803 33.3228C21.3981 33.4927 21.2613 33.6301 21.0918 33.713L21.0908 33.724ZM24.5258 33.286H22.7258C22.745 33.176 22.7554 33.0646 22.7568 32.953C22.7561 32.5449 22.6314 32.1467 22.3993 31.8112C22.1671 31.4756 21.8384 31.2185 21.4568 31.074C21.7317 30.9808 22.0196 30.9315 22.3098 30.928H23.3488C23.8166 30.9282 24.2651 31.1142 24.5959 31.4449C24.9266 31.7757 25.1126 32.2242 25.1128 32.692C25.1126 32.8465 25.0511 32.9947 24.9418 33.1039C24.8325 33.2132 24.6844 33.2747 24.5298 33.275L24.5258 33.286ZM31.5848 30.934H35.1078C35.2638 30.934 35.4133 30.9959 35.5236 31.1062C35.6339 31.2165 35.6958 31.366 35.6958 31.522C35.6958 31.6779 35.6339 31.8275 35.5236 31.9378C35.4133 32.048 35.2638 32.11 35.1078 32.11H26.2238C26.0779 31.4095 25.6806 30.7866 25.1068 30.359V28.579H29.8158V29.169C29.8166 29.6368 30.0028 30.0853 30.3337 30.4161C30.6645 30.747 31.113 30.9332 31.5808 30.934H31.5848Z" fill="white"/>
<path d="M34.5207 25.058H33.3447V26.234H34.5207V25.058Z" fill="white"/>
<path d="M29.8147 25.058H28.6387V26.234H29.8147V25.058Z" fill="white"/>
<path d="M32.1677 25.058H30.9917V26.234H32.1677V25.058Z" fill="white"/>
<path d="M25.697 5.06H24.521V6.236H25.697V5.06Z" fill="white"/>
<path d="M31.58 5.06H26.874V6.236H31.58V5.06Z" fill="white"/>
<path d="M25.697 7.41101H24.521V8.58701H25.697V7.41101Z" fill="white"/>
<path d="M31.58 7.41101H26.874V8.58701H31.58V7.41101Z" fill="white"/>
<path d="M25.697 9.76398H24.521V10.94H25.697V9.76398Z" fill="white"/>
<path d="M31.58 9.76398H26.874V10.94H31.58V9.76398Z" fill="white"/>
<path d="M20.9928 16.823H15.1108V21.529H20.9928V16.823ZM19.8158 20.352H16.2868V18H19.8158V20.352Z" fill="white"/>
<path d="M20.9928 14.47H15.1108V15.646H20.9928V14.47Z" fill="white"/>
<path d="M20.9928 12.117H15.1108V13.293H20.9928V12.117Z" fill="white"/>
<path d="M20.9928 9.76398H15.1108V10.94H20.9928V9.76398Z" fill="white"/>
<path d="M23.344 20.352H22.168V21.528H23.344V20.352Z" fill="white"/>
<path d="M34.521 20.352H24.521V21.528H34.521V20.352Z" fill="white"/>
<path d="M34.521 18H22.168V19.176H34.521V18Z" fill="white"/>
<path d="M34.521 15.647H22.168V16.823H34.521V15.647Z" fill="white"/>
<path d="M9.49695 7.82C9.19007 7.50892 8.83052 7.25466 8.43495 7.069C8.75419 6.75737 8.97329 6.35766 9.06428 5.92091C9.15527 5.48416 9.11401 5.0302 8.94577 4.61701C8.77754 4.20382 8.48996 3.85016 8.11977 3.60119C7.74958 3.35222 7.31357 3.21924 6.86745 3.21924C6.42132 3.21924 5.98532 3.35222 5.61513 3.60119C5.24494 3.85016 4.95736 4.20382 4.78912 4.61701C4.62089 5.0302 4.57963 5.48416 4.67062 5.92091C4.7616 6.35766 4.98071 6.75737 5.29995 7.069C4.65706 7.36957 4.11317 7.84716 3.73202 8.4458C3.35087 9.04444 3.14827 9.73932 3.14795 10.449V10.668H4.13295V10.449C4.14665 9.73282 4.44076 9.0506 4.95209 8.54896C5.46342 8.04732 6.15114 7.7663 6.86745 7.7663C7.58376 7.7663 8.27148 8.04732 8.78281 8.54896C9.29414 9.0506 9.58825 9.73282 9.60195 10.449V10.668H10.5849V10.449C10.5864 9.96063 10.491 9.47681 10.3042 9.02555C10.1175 8.57429 9.84309 8.16454 9.49695 7.82ZM8.12395 5.473C8.12355 5.72153 8.0495 5.96436 7.91113 6.17081C7.77277 6.37726 7.57632 6.53806 7.3466 6.63289C7.11688 6.72772 6.8642 6.75233 6.6205 6.70361C6.37679 6.65488 6.15301 6.535 5.97741 6.35913C5.80182 6.18326 5.6823 5.95928 5.63396 5.7155C5.58562 5.47172 5.61063 5.21908 5.70583 4.98951C5.80102 4.75994 5.96214 4.56374 6.16881 4.42571C6.37548 4.28768 6.61842 4.214 6.86695 4.214C7.03227 4.21387 7.196 4.24635 7.34875 4.30959C7.5015 4.37283 7.64028 4.46557 7.75714 4.58252C7.87399 4.69947 7.96663 4.83832 8.02975 4.99112C8.09286 5.14393 8.12521 5.30768 8.12495 5.473H8.12395Z" fill="white"/>
</svg>
