<?xml version="1.0" encoding="utf-8"?>
<!-- Generator: Adobe Illustrator 25.1.0, SVG Export Plug-In . SVG Version: 6.00 Build 0)  -->
<svg version="1.1" id="Layer_1" xmlns="http://www.w3.org/2000/svg" xmlns:xlink="http://www.w3.org/1999/xlink" x="0px" y="0px"
	 viewBox="0 0 366.1 284.6" style="enable-background:new 0 0 366.1 284.6;" xml:space="preserve">
<g>
	<path d="M83.1,54.1c-14-17.5-4.1-42.3,19.3-44.3c0.1-2.1,0.3-4.3,0.4-6.5c13.8-4.1,30.9,2.4,38.6,15c1.3,2.1,2.6,2.9,5,2.8
		c5.7-0.2,11.5-0.1,17.2,0c8.9,0.1,15.7,6.7,15.7,15.2c0,8.4-6.5,15-15.2,15.3c-5.9,0.2-11.8,0.1-17.6,0c-2.4-0.1-3.8,0.6-5.1,2.7
		c-6.3,10.1-15.6,15.2-27.4,15.5c-2.1,0.1-3.3,0.5-4.3,2.6c-6.5,13.5-11.6,27.4-12.9,42.4c-1.2,13.6,0.7,26.5,10.8,36.9
		c5.8,5.9,12.9,9.3,21.1,10.5c8.1,1.2,16.1,2,24.2,0.3c14.3-3,23-12.7,26.1-28.9c0.1-0.7,0.2-1.5,0.4-2.2c0.9-3.3,0.6-5.5-3.2-7.3
		c-7.3-3.5-10.5-12.2-8.4-20.2c2-7.6,8.9-13.1,17.1-13.2c26-0.1,52,0,78,0c1.5,0,3,0,4.9,0c0-25.9,0-51.6,0-77.6c33,0,65.5,0,98.4,0
		c0,29,0,58.2,0,87.9c-5.4,0-10.9,0-16.7,0c-0.1,1.8-0.3,3-0.2,4.2c1,6-1.6,10.2-5.8,14.3c-12.5,12.4-24.5,25.3-36.8,38
		c-1.7,1.8-1.8,2.9-0.5,5c10.9,17.7,16.5,37,17.2,58.3c-3.4,0-6.7,0-10.4,0c1.6,19.8-4.3,36.2-19.3,48.8
		c-11.1,9.4-24.1,13.3-38.6,12.3c-26.3-1.9-52.7-25.1-49.6-60.8c-24.2,0-48.4,0-72.9,0c0,3.9,0,7.8,0,12c-3.7,0-7,0-10.6,0
		c-0.5,2.5-0.9,4.8-1.5,7c-5.8,25.5-28.5,42.7-55.3,41.8c-24.8-0.8-46.6-20.4-50.4-45.4c-0.4-2.8-1.3-3.6-4-3.4
		c-2.3,0.2-4.7,0-7.3,0c-0.9-10.5,0.6-20.4,4.6-29.8c7.3-17.2,19.7-29.3,37.2-35.9c2.8-1.1,3.5-2.4,3.4-5.1c-0.2-15-0.2-30,3-44.8
		c4.8-22.1,14.1-42,28.2-59.8C81,56.8,82.1,55.4,83.1,54.1z M130.6,210.6c60.4,0,120.8,0,181.3,0c0-0.6,0.2-1,0.1-1.3
		c-5.9-37-25.5-64.1-58.7-81.4c-1.3-0.7-2.8-1-4.3-1c-18.1-0.1-36.2,0-54.4,0c-1.3,0-2.7,0-4.1,0c-0.5,2.9-0.8,5.3-1.2,7.8
		c-3.7,21.1-15.8,34.8-35.4,38.1c-8.3,1.4-17.2,0.5-25.7-0.2c-12.2-1.1-22.5-6.6-30.4-16c-10.1-11.8-12.7-26-11.6-41.1
		c1.2-17.3,6.9-33.4,14.6-48.8c0.6-1.2,1.1-2.5,1.7-3.7c-3.3-0.8-6-1.6-8.9-2c-1.1-0.2-2.9,0.3-3.6,1.1
		c-10.2,12.2-18,25.8-23.4,40.7c-7.1,19.7-8.5,40.1-7.5,60.9C94.6,161.9,118.3,177.6,130.6,210.6z M278.5,90.6c25.9,0,51.6,0,77.3,0
		c0-22.5,0-44.6,0-67c-10.3,0-20.3,0-30.8,0c0,5.1,0,10,0,15.2c-3.6,0-6.8,0-10.4,0c0-5.1,0-10,0-15.1c-12.3,0-24.2,0-36.1,0
		C278.5,46.1,278.5,68.3,278.5,90.6z M121.7,222.9c-1-23.4-23.1-49.4-54.9-48.8c-30.6,0.6-51.9,26.4-52.5,48.8
		C50.1,222.9,85.9,222.9,121.7,222.9z M262.3,120.7c14.2,7.9,26.1,18,36.2,30.6c12.4-12.9,24.4-25.6,36.7-38
		c3.6-3.6,4.2-7.2,3.4-11.9c-24.4,0-48.7,0-73.3,0C267.7,108.4,266.9,114.7,262.3,120.7z M289.7,221.1c1.1,23-10.7,37.8-29.9,38.1
		c-19.5,0.3-31.3-14-30.9-38.1c-2.6,0-5.2,0-7.7,0c-5.2,0-5.2,0-5.4,5.4c-1,27.1,22.2,48.3,49.3,45.1c23.1-2.7,40.4-24.6,37.6-47.8
		c-0.1-1-1.6-2.5-2.5-2.6C296.7,220.9,293.4,221.1,289.7,221.1z M99,233.7c-5.4,16.7-15.6,25.5-29.9,26c-15.1,0.4-25.1-7.5-32.2-26
		c-3.8,0-7.7,0-11.5,0c-1.1,17.7,19.4,37.1,40,38.1c28.2,1.5,44.9-21.6,45.5-38.1C107,233.7,103.1,233.7,99,233.7z M217.1,116.4
		c10.4,0,20.7,0.1,31.1,0c5.8-0.1,9.4-5.1,7.6-10.2c-1.2-3.5-3.9-5-9.1-5c-20.1,0-40.2,0-60.3,0c-5.6,0-9.1,3.1-9,7.8
		c0.1,4.5,3.6,7.4,9,7.4C196.7,116.5,206.9,116.4,217.1,116.4z M259.4,221.1c-5,0-10,0.3-15-0.1c-4.2-0.4-5.2,1.6-5.5,5.1
		c-0.5,8.6,2.7,15.5,10.2,19.8c7.5,4.3,15.2,3.9,22.2-1.1c7-5.1,9.4-12.3,8-20.8c-0.3-2-1.2-3-3.5-2.9
		C270.4,221.2,264.9,221.1,259.4,221.1z M113.2,59.1c7.7,0.9,15.8-3.7,19.9-11c4.5-8.1,3.8-19.3-1.9-26.5c-4.6-5.8-10.5-8.6-18-8.5
		C113.2,28.8,113.2,44,113.2,59.1z M48.1,233.5c1.7,9.2,10.5,15.9,20.3,15.7c9.4-0.2,18.1-7.2,19.2-15.7c-0.9,0-1.8,0-2.6,0
		C72.9,233.5,60.7,233.5,48.1,233.5z M102.1,51.7c0-10.4,0-20.8,0-31.2C92.4,21.8,86.2,29,87,37.6C87.8,46,94.6,52.3,102.1,51.7z
		 M146.3,41.2c6.2,0,12.2,0.3,18.3-0.2c1.5-0.1,3.4-2.7,3.9-4.5c0.6-2.4-1-4.6-3.6-4.7c-6.2-0.3-12.3-0.1-18.6-0.1
		C146.3,35,146.3,37.9,146.3,41.2z"/>
</g>
</svg>
