<?xml version="1.0" encoding="utf-8"?>
<!-- Generator: Adobe Illustrator 25.1.0, SVG Export Plug-In . SVG Version: 6.00 Build 0)  -->
<svg version="1.1" id="Layer_1" xmlns="http://www.w3.org/2000/svg" xmlns:xlink="http://www.w3.org/1999/xlink" x="0px" y="0px"
	 viewBox="0 0 384 384" style="enable-background:new 0 0 384 384;" xml:space="preserve">
<g>
	<path d="M384,112.5c-1.4,5.5-4.6,9.8-8.1,14.1c-6,7.5-11.9,15.1-17.8,22.7c-0.7,0.9-1.3,1.8-2.1,2.9c0.8,1.2,1.5,2.3,2.2,3.4
		c5.5,8.2,10.7,16.6,16.6,24.5c7.3,9.9,4.5,22.1-5.6,28.8c-39.4,26-78.5,52.4-117.7,78.7c-2.4,1.6-4.7,3.8-6.5,6.1
		c-18.7,23.6-37.2,47.3-55.7,71c-3.8,4.9-8.3,8.2-14.6,8.7c-5.1,0.4-9.6-1.3-13.5-4.5c-4.7-3.7-9.4-7.4-14.3-11.2
		c-1.1,0.7-2.1,1.3-3.1,1.9c-8.8,5.9-17.6,11.9-26.5,17.7c-3.8,2.5-8,4.4-12.1,6.6c-2.2,0-4.5,0-6.8,0c-6.6-1.9-10.8-6.4-14.5-12
		C58.4,333.6,32.7,295.4,7,257.3c-2.9-4.2-5.7-8.5-6.8-13.6c0-1.2,0-2.5,0-3.8c0.2-0.5,0.5-0.9,0.6-1.4c1-5.8,4.4-9.8,9.2-13
		c35.1-23.4,70.1-46.9,105.2-70.3c3.1-2,5.6-4.4,7.9-7.3c36.1-46.5,72.6-92.9,109-139.4c3.3-4.2,7.4-6.9,12.4-8.5c2.2,0,4.5,0,6.8,0
		c4,1.4,7.6,3.6,11,6.2c36.7,28.7,73.4,57.4,110.2,86c5.5,4.3,10.1,8.8,11.6,15.8C384,109.5,384,111,384,112.5z M310.3,104.7
		c-29.4,13.1-54.9,8-77-15.1c-1.5,1-3,2-4.4,2.9c-1.5,1-2.9,2-4.4,2.9c-3.5,2.2-6.5,1.8-8.4-1.2c-1.8-2.9-1.2-5.8,2.1-8
		c16.4-11,32.7-22.1,49.2-32.8c2.6-1.7,6-2.7,9.1-3c7.7-0.7,13.2,3.1,17.5,9.5c17.5,26.3,35.2,52.5,52.8,78.7
		c0.8,1.1,1.5,2.2,2.5,3.5c0.8-0.8,1.4-1.4,1.9-2.1c6.3-8.1,12.7-16.1,19-24.2c3.8-4.9,3.4-8.4-1.5-12.2
		C330.3,73.7,292,43.8,253.6,13.9c-5.2-4-8.6-3.5-12.7,1.6c-29.5,37.6-58.9,75.1-88.4,112.7c-0.5,0.7-1,1.5-1.5,2.2
		c1.5-0.4,2.5-1,3.5-1.7c11.4-7.6,22.8-15.3,34.2-22.9c0.9-0.6,1.8-1.3,2.8-1.8c2.8-1.4,5.5-0.7,7.2,1.8c1.8,2.6,1.5,5.3-0.9,7.4
		c-1.4,1.2-3,2.2-4.6,3.2c-44.9,30.1-89.9,60.2-134.8,90.3c-1.3,0.9-2.6,1.8-3.6,2.6c13.1,29.6,7.9,55-15.2,76.9
		c9.8,14.6,19.6,29.1,29.2,43.5c29.4-13.1,54.9-8.1,77.1,15c59.5-39.8,119-79.7,178.6-119.6c-6.8-13.2-9-26.7-6.2-41
		c2.9-14.4,10.2-26.1,21.3-35.6c-9.6-14.4-19.1-28.5-28.6-42.6C310.9,105.4,310.6,105.1,310.3,104.7z M346.2,158
		c-18.4,14.7-22.6,42.6-11.8,60.4c10.1-6.8,20.3-13.5,30.4-20.4c3.3-2.3,3.9-6.2,1.7-9.7c-1.9-3.2-4.1-6.2-6.2-9.3
		C355.6,172.1,351,165.2,346.2,158z M303.6,94.8c-0.4-0.6-0.7-1.3-1.1-1.9c-6-9-12.1-18-18.1-27c-3.5-5.1-7-5.8-12.3-2.2
		c-8.7,5.8-17.4,11.7-26.1,17.5c-0.9,0.6-1.7,1.3-2.6,1.9C255.8,99.2,282.8,106.4,303.6,94.8z M136,351.3
		c-14.3-18.9-44-22.3-60.3-11.7c4.4,6.5,8.7,13,13.1,19.5c2.3,3.4,4.5,6.9,6.9,10.2c2.4,3.3,6,4.5,9.2,2.4
		C115.3,365.2,125.6,358.2,136,351.3z M33,276.1c19.1-15.5,22.1-43.7,12-60.1c-0.1,0-0.3-0.1-0.4,0c-10.1,6.7-20.2,13.3-30.1,20.1
		c-3.4,2.3-4,6.1-1.7,9.6C19.4,255.8,26.1,265.8,33,276.1z M216.1,311.9c-0.1-0.1-0.3-0.3-0.4-0.4c-19.7,13.2-39.3,26.3-59.2,39.7
		c3.9,3.1,7.3,5.7,10.6,8.3c5.4,4.2,8.8,3.9,13-1.4c11.6-14.7,23.1-29.4,34.6-44.2C215.2,313.2,215.6,312.5,216.1,311.9z"/>
	<path d="M263.7,217.2c-0.4,31.7-20.2,59.3-50.1,69.6c-1.3,0.4-2.6,0.9-3.9,1.2c-3.2,0.6-5.5-0.8-6.4-3.7c-0.9-3.1,0.2-5.7,3.4-6.9
		c2.4-1,4.9-1.7,7.4-2.8c25.8-10.8,41.3-37.4,37.9-65.2c-3.3-27.3-24.6-49.5-51.7-54.1c-34.7-5.8-67.3,17.8-72.6,52.4
		c-4.9,32.4,16,62.8,48.4,70.4c2.3,0.5,4.5,1,5.4,3.4c0.8,2.1,0.5,4.2-0.9,6c-1.5,2-3.6,2.4-5.7,1.7c-5.9-1.9-12.1-3.3-17.6-6.1
		c-24.1-12.3-38.2-32.1-41-59.1c-4-38.9,23-73.6,61.6-80c40.4-6.7,78.8,21.2,84.9,61.9C263.2,209.8,263.3,213.5,263.7,217.2z"/>
	<path d="M216.1,247.1c1,1.5,2,3,2.9,4.7c1.5,2.9,0.7,5.8-1.9,7.5c-2.6,1.7-5.2,1.2-7.3-1.3c-1-1.3-1.9-2.6-2.6-3.7
		c-4.5,1.2-8.8,2.3-13.1,3.3c-1.2,0.3-2.5,0.3-3.7,0.3c-3.5-0.1-5.7-2.2-5.8-5.5s2-5.5,5.5-5.7s7-0.4,10.3-2.6
		c-3.9-5.9-7.8-11.7-11.7-17.4c-1.5-2.2-2.5-5.1-4.6-6.3c-1.8-1-4.8,0-7.3,0.1c-8.2,0.1-15.1-2.3-19.1-10c-4.2-7.9-3.4-15.6,1.5-23
		c0.5-0.7,1-1.4,1.6-2.3c-0.8-1.3-1.7-2.5-2.4-3.8c-1.8-3.1-1.1-6,1.7-7.8c2.7-1.7,5.4-1.2,7.6,1.5c0.8,1.1,1.6,2.2,2,2.9
		c4.8-0.6,9.2-1.5,13.6-1.5c4.4-0.1,6.6,4.1,4.9,8c-1,2.1-2.7,3.1-5.1,3.2c-1.9,0-3.9,0.2-6.7,0.4c1.7,2.5,2.9,4.3,4.1,6.1
		c2.4,3.5,4.8,7,7.1,10.6c1.2,2,2.6,2.3,4.9,2.1c4.6-0.4,9.3-0.9,13.7-0.1c9.3,1.7,16,10.4,16.7,20.6
		C223.2,234.8,221.9,238.8,216.1,247.1z M196,217.2c4.6,6.8,8.8,13.2,13.5,20.1c2.9-6.1,2.9-11.2-0.4-16
		C206,217,201.8,215.9,196,217.2z M167.6,195.2c-3.4,8.2,1.1,14.7,9.2,13.8C173.8,204.4,170.9,200.1,167.6,195.2z"/>
	<path d="M78.2,297.8c-3.1-0.2-4.9-1.3-5.8-3.4s-0.7-4.2,0.9-5.9c0.7-0.8,1.7-1.4,2.6-2.1c7.8-5.2,15.5-10.4,23.3-15.6
		c0.7-0.5,1.4-1,2.2-1.4c2.6-1.2,5.4-0.5,7,1.7c1.7,2.4,1.4,5.3-0.9,7.4c-0.6,0.6-1.4,1.1-2.1,1.6c-7.9,5.3-15.7,10.6-23.6,15.8
		C80.5,296.8,79,297.4,78.2,297.8z"/>
	<path d="M307.4,142.9c-0.5,0.8-1.2,2.8-2.6,3.7c-8.7,6-17.5,11.9-26.4,17.7c-2.9,1.9-6.2,1-7.9-1.6c-1.5-2.5-1-5.8,1.7-7.6
		c8.7-6,17.5-11.9,26.4-17.7C302.5,134.9,307.3,137.5,307.4,142.9z"/>
</g>
</svg>
