<?xml version="1.0" encoding="utf-8"?>
<!-- Generator: Adobe Illustrator 25.1.0, SVG Export Plug-In . SVG Version: 6.00 Build 0)  -->
<svg version="1.1" id="Layer_1" xmlns="http://www.w3.org/2000/svg" xmlns:xlink="http://www.w3.org/1999/xlink" x="0px" y="0px"
	 viewBox="0 0 384 384" style="enable-background:new 0 0 384 384;" xml:space="preserve">
<g>
	<path d="M368.7,0.8c2.2,1.4,4.7,2.5,6.4,4.3c4.1,4.2,5.2,9.3,2.8,14.8c-7.2,16.3-14.3,32.6-21.6,48.9c-2.3,5.2-7.1,5.6-10.6,1.2
		c-3-3.8-5.9-7.7-8.8-11.6c-0.1-0.1-0.2-0.1-0.7-0.3c-2.3,1.7-4.8,3.5-7.3,5.4c-13.3,9.9-26.5,19.9-39.8,29.8c-9.5,7-17,6.7-25.9-1
		c-6.3-5.5-12.5-11-19.1-16.8c-3.6,2.7-7.2,5.3-10.8,8c-29.1,21.7-58.1,43.5-87.2,65.2c-8.4,6.3-15.7,6.2-24.2-0.1
		c-6.2-4.6-12.4-9.2-18.6-13.8c-0.2-0.1-0.5-0.2-0.9-0.3c-21,15.7-42,31.4-63.1,47.2c-3.1,2.3-6.2,4.7-9.3,6.9
		c-3.4,2.4-6.2,2.1-8.8-1.2c-4.5-5.8-8.9-11.7-13.2-17.7c-2.6-3.5-2.1-6.3,1.5-9c27.6-20.7,55.3-41.4,83-62c6.3-4.7,14.1-4.6,20.6,0
		c6.2,4.4,12.3,8.9,18.2,13.7c2.2,1.8,3.6,1.5,5.7-0.1c31.7-23.8,63.5-47.5,95.2-71.3c9.6-7.2,17.1-7,26.2,0.9
		c6.3,5.5,12.5,11,19,16.7c6.5-4.8,12.8-9.6,19.2-14.3c6.3-4.7,12.5-9.4,19-14.3c-3-4-5.8-7.8-8.5-11.5c-4.1-5.5-2.3-9.8,4.5-10.7
		c15.9-2.1,31.9-4.1,47.8-6.2c0.8-0.1,1.6-0.5,2.5-0.7C364.2,0.8,366.4,0.8,368.7,0.8z M27.2,176.5c1.2-0.8,1.9-1.3,2.6-1.8
		c22.7-16.9,45.3-33.9,68-50.8c4.2-3.1,5.8-3.2,10,0c6.9,5.1,13.8,10.3,20.6,15.5c5,3.7,6.5,3.7,11.6-0.1
		c33.2-24.9,66.5-49.7,99.7-74.6c3.9-2.9,6-2.8,9.6,0.3c7.1,6.2,14.2,12.5,21.4,18.8c4.9,4.3,6.5,4.3,11.7,0.4
		c16.5-12.3,32.9-24.6,49.4-37c5.9-4.4,7.8-4.2,12.2,1.7c1.8,2.4,3.6,4.7,5.6,7.3c5.9-13.4,11.7-26.4,17.4-39.4
		c0.5-1.1,0.9-3.2,0.3-3.7c-0.9-0.8-2.7-1-4-0.8c-9.2,1.1-18.3,2.3-27.4,3.5c-4.8,0.6-9.6,1.3-15,2.1c2.4,3.2,4.4,5.8,6.3,8.4
		c3.2,4.3,2.8,7-1.4,10.1c-14.7,11-29.3,22-44,32.9c-3.7,2.7-5.8,2.6-9.3-0.4c-7.2-6.3-14.4-12.7-21.6-19c-4.6-4-6.5-4-11.4-0.3
		c-33.4,25-66.9,50-100.3,75c-3.9,2.9-5.8,2.9-9.7,0c-6.9-5.1-13.8-10.3-20.7-15.5c-5.2-3.9-6.4-3.9-11.5-0.1
		c-17.2,12.8-34.4,25.7-51.5,38.5c-8.5,6.3-16.9,12.7-25.6,19.2C22.4,170.1,24.7,173.1,27.2,176.5z"/>
	<path d="M292.3,384c-6.9-2.1-12.9-5.7-15.6-12.7c-1.3-3.3-1.9-7-1.9-10.5c-0.1-75.1-0.1-150.2-0.1-225.3c0-14.5,8.9-23.2,23.4-23.2
		c16.7,0,33.4,0,50.1,0c13.8,0,22.8,8.8,22.8,22.6c0.1,14.8,0,29.7,0,44.5c0,4.7-1.8,7-5.3,7.1c-3.7,0.1-5.8-2.3-5.9-7
		c0-14.5,0-28.9,0-43.4c0-8.9-3.6-12.5-12.4-12.5c-16.5,0-32.9,0-49.4,0c-8.3,0-12.1,3.8-12.2,12.1c0,75,0,149.9,0,224.9
		c0,8.5,3.8,12.2,12.4,12.2c16.2,0,32.4,0,48.6,0c9.4,0,12.9-3.5,12.9-12.8c0-51,0-102,0-153c0-1.6,0-3.3,0.3-4.8
		c0.6-2.8,2.7-4.3,5.4-4.2c2.9,0.1,4.9,1.7,5.3,4.8c0.2,1.5,0.1,3,0.1,4.5c0,50.1,0,100.3,0,150.4c0,15.5-3.2,20.4-17.4,26.4
		C333.2,384,312.8,384,292.3,384z"/>
	<path d="M176.3,384c-2.4-1.1-4.9-1.8-7.1-3.2c-6.9-4.3-10.3-10.6-10.3-18.8c0-23.3,0-46.6,0-70c0-33.8,0-67.6,0-101.4
		c0-15,8.7-23.7,23.7-23.7c16.3,0,32.7,0,49,0c15.1,0,23.8,8.8,23.8,24c0,55.6,0,111.2,0,166.9c0,15.2-3.8,20.7-17.8,26.1
		C217.2,384,196.7,384,176.3,384z M170.2,275.5c0,28.4,0,56.9,0,85.3c0,8.1,3.8,12,11.8,12c16.7,0,33.4,0,50.1,0
		c8.2,0,12.1-3.9,12.1-12.2c0-56.6,0-113.2,0-169.9c0-8.5-3.9-12.4-12.3-12.4c-16.3,0-32.7,0-49,0c-9.1,0-12.7,3.6-12.7,12.7
		C170.2,219.1,170.2,247.3,170.2,275.5z"/>
	<path d="M61,384c-0.7-0.3-1.4-0.6-2.1-0.8c-9.4-2.8-15.6-10.6-15.8-20.4c-0.2-8.1-0.1-16.2,0-24.3c0-4,2.3-6.6,5.6-6.6
		c3.3,0,5.6,2.5,5.6,6.5c0.1,7.6,0,15.2,0,22.8c0.1,7.5,4.1,11.6,11.6,11.6c17,0,33.9,0,50.9,0c7.5,0,11.6-4,11.6-11.5
		c0-38.9,0-77.8,0-116.7c0-7.3-4-11.4-11.3-11.5c-17.1-0.1-34.2-0.1-51.3,0c-7.5,0-11.5,4.1-11.5,11.7c0,22.3,0,44.6,0,67
		c0,1.2,0.1,2.5-0.1,3.7c-0.3,3-2,4.8-5,5c-3.2,0.3-5.2-1.5-5.9-4.5c-0.3-1.1-0.2-2.2-0.2-3.3c0-22.4,0-44.9,0-67.3
		c0-14.6,8.9-23.5,23.6-23.5c16.5,0,32.9,0,49.4,0c14.8,0,23.5,8.8,23.5,23.5c0,37.3-0.3,74.6,0.2,111.9
		c0.2,13.4-4.3,22.6-17.4,26.9C101.9,384,81.5,384,61,384z"/>
</g>
</svg>
