<svg width="1080" height="234" viewBox="0 0 1080 234" fill="none" xmlns="http://www.w3.org/2000/svg">
<path d="M1537 131.882L1082.5 234H-665L-337.776 -199C-301.277 -152.546 -264.583 -106.093 -227.598 -60.0395C-183.02 -4.47537 -133.09 45.7827 -74.7892 86.4296C-10.9406 130.881 59.5266 157.812 135.444 170.727C215.255 184.243 295.65 184.443 375.363 174.732C426.851 168.524 477.56 154.608 528.172 142.294C576.642 130.48 624.432 116.164 672.513 102.849C719.815 89.6333 766.923 75.4168 814.517 63.1026C915.546 37.0725 1017.45 15.0472 1121.79 9.4406C1204.42 4.93539 1286.47 10.4418 1366.87 32.1668C1405.99 42.7792 1441.03 63.1025 1474.81 85.6287C1496.51 99.9452 1517.14 115.463 1537 131.882Z" fill="#F5F5F5"/>
</svg>
