<?xml version="1.0" encoding="utf-8"?>
<!-- Generator: Adobe Illustrator 24.3.0, SVG Export Plug-In . SVG Version: 6.00 Build 0)  -->
<svg version="1.1" id="Layer_1" xmlns="http://www.w3.org/2000/svg" xmlns:xlink="http://www.w3.org/1999/xlink" x="0px" y="0px"
	 viewBox="0 0 320 320" style="enable-background:new 0 0 320 320;" xml:space="preserve">
<style type="text/css">
	.st0{fill:#E4ECEF;}
</style>
<g>
	<path class="st0" d="M3,1.5C3,2.3,2.3,3,1.5,3C0.7,3,0,2.3,0,1.5C0,0.7,0.7,0,1.5,0C2.3,0,3,0.7,3,1.5z"/>
	<path class="st0" d="M23,1.5C23,2.3,22.3,3,21.5,3S20,2.3,20,1.5C20,0.7,20.7,0,21.5,0S23,0.7,23,1.5z"/>
	<path class="st0" d="M3,21.5C3,22.3,2.3,23,1.5,23C0.7,23,0,22.3,0,21.5S0.7,20,1.5,20C2.3,20,3,20.7,3,21.5z"/>
	<path class="st0" d="M23,21.5c0,0.8-0.7,1.5-1.5,1.5S20,22.3,20,21.5s0.7-1.5,1.5-1.5S23,20.7,23,21.5z"/>
	<path class="st0" d="M43,1.5C43,2.3,42.3,3,41.5,3S40,2.3,40,1.5C40,0.7,40.7,0,41.5,0S43,0.7,43,1.5z"/>
	<path class="st0" d="M63,1.5C63,2.3,62.3,3,61.5,3S60,2.3,60,1.5C60,0.7,60.7,0,61.5,0S63,0.7,63,1.5z"/>
	<path class="st0" d="M43,21.5c0,0.8-0.7,1.5-1.5,1.5S40,22.3,40,21.5s0.7-1.5,1.5-1.5S43,20.7,43,21.5z"/>
	<path class="st0" d="M63,21.5c0,0.8-0.7,1.5-1.5,1.5S60,22.3,60,21.5s0.7-1.5,1.5-1.5S63,20.7,63,21.5z"/>
	<path class="st0" d="M83,1.5C83,2.3,82.3,3,81.5,3S80,2.3,80,1.5C80,0.7,80.7,0,81.5,0S83,0.7,83,1.5z"/>
	<path class="st0" d="M103,1.5c0,0.8-0.7,1.5-1.5,1.5S100,2.3,100,1.5c0-0.8,0.7-1.5,1.5-1.5S103,0.7,103,1.5z"/>
	<path class="st0" d="M83,21.5c0,0.8-0.7,1.5-1.5,1.5S80,22.3,80,21.5s0.7-1.5,1.5-1.5S83,20.7,83,21.5z"/>
	<path class="st0" d="M103,21.5c0,0.8-0.7,1.5-1.5,1.5s-1.5-0.7-1.5-1.5s0.7-1.5,1.5-1.5S103,20.7,103,21.5z"/>
	<path class="st0" d="M123,1.5c0,0.8-0.7,1.5-1.5,1.5S120,2.3,120,1.5c0-0.8,0.7-1.5,1.5-1.5S123,0.7,123,1.5z"/>
	<path class="st0" d="M143,1.5c0,0.8-0.7,1.5-1.5,1.5S140,2.3,140,1.5c0-0.8,0.7-1.5,1.5-1.5S143,0.7,143,1.5z"/>
	<path class="st0" d="M123,21.5c0,0.8-0.7,1.5-1.5,1.5s-1.5-0.7-1.5-1.5s0.7-1.5,1.5-1.5S123,20.7,123,21.5z"/>
	<path class="st0" d="M143,21.5c0,0.8-0.7,1.5-1.5,1.5s-1.5-0.7-1.5-1.5s0.7-1.5,1.5-1.5S143,20.7,143,21.5z"/>
	<path class="st0" d="M163,1.5c0,0.8-0.7,1.5-1.5,1.5S160,2.3,160,1.5c0-0.8,0.7-1.5,1.5-1.5S163,0.7,163,1.5z"/>
	<path class="st0" d="M183,1.5c0,0.8-0.7,1.5-1.5,1.5S180,2.3,180,1.5c0-0.8,0.7-1.5,1.5-1.5S183,0.7,183,1.5z"/>
	<path class="st0" d="M163,21.5c0,0.8-0.7,1.5-1.5,1.5s-1.5-0.7-1.5-1.5s0.7-1.5,1.5-1.5S163,20.7,163,21.5z"/>
	<path class="st0" d="M183,21.5c0,0.8-0.7,1.5-1.5,1.5s-1.5-0.7-1.5-1.5s0.7-1.5,1.5-1.5S183,20.7,183,21.5z"/>
	<path class="st0" d="M203,1.5c0,0.8-0.7,1.5-1.5,1.5S200,2.3,200,1.5c0-0.8,0.7-1.5,1.5-1.5S203,0.7,203,1.5z"/>
	<path class="st0" d="M223,1.5c0,0.8-0.7,1.5-1.5,1.5S220,2.3,220,1.5c0-0.8,0.7-1.5,1.5-1.5S223,0.7,223,1.5z"/>
	<path class="st0" d="M203,21.5c0,0.8-0.7,1.5-1.5,1.5s-1.5-0.7-1.5-1.5s0.7-1.5,1.5-1.5S203,20.7,203,21.5z"/>
	<path class="st0" d="M223,21.5c0,0.8-0.7,1.5-1.5,1.5s-1.5-0.7-1.5-1.5s0.7-1.5,1.5-1.5S223,20.7,223,21.5z"/>
	<path class="st0" d="M243,1.5c0,0.8-0.7,1.5-1.5,1.5S240,2.3,240,1.5c0-0.8,0.7-1.5,1.5-1.5S243,0.7,243,1.5z"/>
	<path class="st0" d="M263,1.5c0,0.8-0.7,1.5-1.5,1.5S260,2.3,260,1.5c0-0.8,0.7-1.5,1.5-1.5S263,0.7,263,1.5z"/>
	<path class="st0" d="M243,21.5c0,0.8-0.7,1.5-1.5,1.5s-1.5-0.7-1.5-1.5s0.7-1.5,1.5-1.5S243,20.7,243,21.5z"/>
	<path class="st0" d="M263,21.5c0,0.8-0.7,1.5-1.5,1.5s-1.5-0.7-1.5-1.5s0.7-1.5,1.5-1.5S263,20.7,263,21.5z"/>
	<path class="st0" d="M283,1.5c0,0.8-0.7,1.5-1.5,1.5S280,2.3,280,1.5c0-0.8,0.7-1.5,1.5-1.5S283,0.7,283,1.5z"/>
	<path class="st0" d="M303,1.5c0,0.8-0.7,1.5-1.5,1.5S300,2.3,300,1.5c0-0.8,0.7-1.5,1.5-1.5S303,0.7,303,1.5z"/>
	<path class="st0" d="M283,21.5c0,0.8-0.7,1.5-1.5,1.5s-1.5-0.7-1.5-1.5s0.7-1.5,1.5-1.5S283,20.7,283,21.5z"/>
	<path class="st0" d="M303,21.5c0,0.8-0.7,1.5-1.5,1.5s-1.5-0.7-1.5-1.5s0.7-1.5,1.5-1.5S303,20.7,303,21.5z"/>
	<path class="st0" d="M3,41.5C3,42.3,2.3,43,1.5,43C0.7,43,0,42.3,0,41.5S0.7,40,1.5,40C2.3,40,3,40.7,3,41.5z"/>
	<path class="st0" d="M23,41.5c0,0.8-0.7,1.5-1.5,1.5S20,42.3,20,41.5s0.7-1.5,1.5-1.5S23,40.7,23,41.5z"/>
	<path class="st0" d="M3,61.5C3,62.3,2.3,63,1.5,63C0.7,63,0,62.3,0,61.5S0.7,60,1.5,60C2.3,60,3,60.7,3,61.5z"/>
	<path class="st0" d="M23,61.5c0,0.8-0.7,1.5-1.5,1.5S20,62.3,20,61.5s0.7-1.5,1.5-1.5S23,60.7,23,61.5z"/>
	<path class="st0" d="M43,41.5c0,0.8-0.7,1.5-1.5,1.5S40,42.3,40,41.5s0.7-1.5,1.5-1.5S43,40.7,43,41.5z"/>
	<path class="st0" d="M63,41.5c0,0.8-0.7,1.5-1.5,1.5S60,42.3,60,41.5s0.7-1.5,1.5-1.5S63,40.7,63,41.5z"/>
	<path class="st0" d="M43,61.5c0,0.8-0.7,1.5-1.5,1.5S40,62.3,40,61.5s0.7-1.5,1.5-1.5S43,60.7,43,61.5z"/>
	<path class="st0" d="M63,61.5c0,0.8-0.7,1.5-1.5,1.5S60,62.3,60,61.5s0.7-1.5,1.5-1.5S63,60.7,63,61.5z"/>
	<path class="st0" d="M83,41.5c0,0.8-0.7,1.5-1.5,1.5S80,42.3,80,41.5s0.7-1.5,1.5-1.5S83,40.7,83,41.5z"/>
	<path class="st0" d="M103,41.5c0,0.8-0.7,1.5-1.5,1.5s-1.5-0.7-1.5-1.5s0.7-1.5,1.5-1.5S103,40.7,103,41.5z"/>
	<path class="st0" d="M83,61.5c0,0.8-0.7,1.5-1.5,1.5S80,62.3,80,61.5s0.7-1.5,1.5-1.5S83,60.7,83,61.5z"/>
	<path class="st0" d="M103,61.5c0,0.8-0.7,1.5-1.5,1.5s-1.5-0.7-1.5-1.5s0.7-1.5,1.5-1.5S103,60.7,103,61.5z"/>
	<path class="st0" d="M123,41.5c0,0.8-0.7,1.5-1.5,1.5s-1.5-0.7-1.5-1.5s0.7-1.5,1.5-1.5S123,40.7,123,41.5z"/>
	<path class="st0" d="M143,41.5c0,0.8-0.7,1.5-1.5,1.5s-1.5-0.7-1.5-1.5s0.7-1.5,1.5-1.5S143,40.7,143,41.5z"/>
	<path class="st0" d="M123,61.5c0,0.8-0.7,1.5-1.5,1.5s-1.5-0.7-1.5-1.5s0.7-1.5,1.5-1.5S123,60.7,123,61.5z"/>
	<path class="st0" d="M143,61.5c0,0.8-0.7,1.5-1.5,1.5s-1.5-0.7-1.5-1.5s0.7-1.5,1.5-1.5S143,60.7,143,61.5z"/>
	<path class="st0" d="M163,41.5c0,0.8-0.7,1.5-1.5,1.5s-1.5-0.7-1.5-1.5s0.7-1.5,1.5-1.5S163,40.7,163,41.5z"/>
	<path class="st0" d="M183,41.5c0,0.8-0.7,1.5-1.5,1.5s-1.5-0.7-1.5-1.5s0.7-1.5,1.5-1.5S183,40.7,183,41.5z"/>
	<path class="st0" d="M163,61.5c0,0.8-0.7,1.5-1.5,1.5s-1.5-0.7-1.5-1.5s0.7-1.5,1.5-1.5S163,60.7,163,61.5z"/>
	<path class="st0" d="M183,61.5c0,0.8-0.7,1.5-1.5,1.5s-1.5-0.7-1.5-1.5s0.7-1.5,1.5-1.5S183,60.7,183,61.5z"/>
	<path class="st0" d="M203,41.5c0,0.8-0.7,1.5-1.5,1.5s-1.5-0.7-1.5-1.5s0.7-1.5,1.5-1.5S203,40.7,203,41.5z"/>
	<path class="st0" d="M223,41.5c0,0.8-0.7,1.5-1.5,1.5s-1.5-0.7-1.5-1.5s0.7-1.5,1.5-1.5S223,40.7,223,41.5z"/>
	<path class="st0" d="M203,61.5c0,0.8-0.7,1.5-1.5,1.5s-1.5-0.7-1.5-1.5s0.7-1.5,1.5-1.5S203,60.7,203,61.5z"/>
	<path class="st0" d="M223,61.5c0,0.8-0.7,1.5-1.5,1.5s-1.5-0.7-1.5-1.5s0.7-1.5,1.5-1.5S223,60.7,223,61.5z"/>
	<path class="st0" d="M243,41.5c0,0.8-0.7,1.5-1.5,1.5s-1.5-0.7-1.5-1.5s0.7-1.5,1.5-1.5S243,40.7,243,41.5z"/>
	<path class="st0" d="M263,41.5c0,0.8-0.7,1.5-1.5,1.5s-1.5-0.7-1.5-1.5s0.7-1.5,1.5-1.5S263,40.7,263,41.5z"/>
	<path class="st0" d="M243,61.5c0,0.8-0.7,1.5-1.5,1.5s-1.5-0.7-1.5-1.5s0.7-1.5,1.5-1.5S243,60.7,243,61.5z"/>
	<path class="st0" d="M263,61.5c0,0.8-0.7,1.5-1.5,1.5s-1.5-0.7-1.5-1.5s0.7-1.5,1.5-1.5S263,60.7,263,61.5z"/>
	<path class="st0" d="M283,41.5c0,0.8-0.7,1.5-1.5,1.5s-1.5-0.7-1.5-1.5s0.7-1.5,1.5-1.5S283,40.7,283,41.5z"/>
	<path class="st0" d="M303,41.5c0,0.8-0.7,1.5-1.5,1.5s-1.5-0.7-1.5-1.5s0.7-1.5,1.5-1.5S303,40.7,303,41.5z"/>
	<path class="st0" d="M283,61.5c0,0.8-0.7,1.5-1.5,1.5s-1.5-0.7-1.5-1.5s0.7-1.5,1.5-1.5S283,60.7,283,61.5z"/>
	<path class="st0" d="M303,61.5c0,0.8-0.7,1.5-1.5,1.5s-1.5-0.7-1.5-1.5s0.7-1.5,1.5-1.5S303,60.7,303,61.5z"/>
	<path class="st0" d="M3,81.5C3,82.3,2.3,83,1.5,83C0.7,83,0,82.3,0,81.5S0.7,80,1.5,80C2.3,80,3,80.7,3,81.5z"/>
	<path class="st0" d="M23,81.5c0,0.8-0.7,1.5-1.5,1.5S20,82.3,20,81.5s0.7-1.5,1.5-1.5S23,80.7,23,81.5z"/>
	<path class="st0" d="M3,101.5c0,0.8-0.7,1.5-1.5,1.5c-0.8,0-1.5-0.7-1.5-1.5s0.7-1.5,1.5-1.5C2.3,100,3,100.7,3,101.5z"/>
	<path class="st0" d="M23,101.5c0,0.8-0.7,1.5-1.5,1.5s-1.5-0.7-1.5-1.5s0.7-1.5,1.5-1.5S23,100.7,23,101.5z"/>
	<path class="st0" d="M43,81.5c0,0.8-0.7,1.5-1.5,1.5S40,82.3,40,81.5s0.7-1.5,1.5-1.5S43,80.7,43,81.5z"/>
	<path class="st0" d="M63,81.5c0,0.8-0.7,1.5-1.5,1.5S60,82.3,60,81.5s0.7-1.5,1.5-1.5S63,80.7,63,81.5z"/>
	<path class="st0" d="M43,101.5c0,0.8-0.7,1.5-1.5,1.5s-1.5-0.7-1.5-1.5s0.7-1.5,1.5-1.5S43,100.7,43,101.5z"/>
	<path class="st0" d="M63,101.5c0,0.8-0.7,1.5-1.5,1.5s-1.5-0.7-1.5-1.5s0.7-1.5,1.5-1.5S63,100.7,63,101.5z"/>
	<path class="st0" d="M83,81.5c0,0.8-0.7,1.5-1.5,1.5S80,82.3,80,81.5s0.7-1.5,1.5-1.5S83,80.7,83,81.5z"/>
	<path class="st0" d="M103,81.5c0,0.8-0.7,1.5-1.5,1.5s-1.5-0.7-1.5-1.5s0.7-1.5,1.5-1.5S103,80.7,103,81.5z"/>
	<path class="st0" d="M83,101.5c0,0.8-0.7,1.5-1.5,1.5s-1.5-0.7-1.5-1.5s0.7-1.5,1.5-1.5S83,100.7,83,101.5z"/>
	<path class="st0" d="M103,101.5c0,0.8-0.7,1.5-1.5,1.5s-1.5-0.7-1.5-1.5s0.7-1.5,1.5-1.5S103,100.7,103,101.5z"/>
	<path class="st0" d="M123,81.5c0,0.8-0.7,1.5-1.5,1.5s-1.5-0.7-1.5-1.5s0.7-1.5,1.5-1.5S123,80.7,123,81.5z"/>
	<path class="st0" d="M143,81.5c0,0.8-0.7,1.5-1.5,1.5s-1.5-0.7-1.5-1.5s0.7-1.5,1.5-1.5S143,80.7,143,81.5z"/>
	<path class="st0" d="M123,101.5c0,0.8-0.7,1.5-1.5,1.5s-1.5-0.7-1.5-1.5s0.7-1.5,1.5-1.5S123,100.7,123,101.5z"/>
	<path class="st0" d="M143,101.5c0,0.8-0.7,1.5-1.5,1.5s-1.5-0.7-1.5-1.5s0.7-1.5,1.5-1.5S143,100.7,143,101.5z"/>
	<path class="st0" d="M163,81.5c0,0.8-0.7,1.5-1.5,1.5s-1.5-0.7-1.5-1.5s0.7-1.5,1.5-1.5S163,80.7,163,81.5z"/>
	<path class="st0" d="M183,81.5c0,0.8-0.7,1.5-1.5,1.5s-1.5-0.7-1.5-1.5s0.7-1.5,1.5-1.5S183,80.7,183,81.5z"/>
	<path class="st0" d="M163,101.5c0,0.8-0.7,1.5-1.5,1.5s-1.5-0.7-1.5-1.5s0.7-1.5,1.5-1.5S163,100.7,163,101.5z"/>
	<path class="st0" d="M183,101.5c0,0.8-0.7,1.5-1.5,1.5s-1.5-0.7-1.5-1.5s0.7-1.5,1.5-1.5S183,100.7,183,101.5z"/>
	<path class="st0" d="M203,81.5c0,0.8-0.7,1.5-1.5,1.5s-1.5-0.7-1.5-1.5s0.7-1.5,1.5-1.5S203,80.7,203,81.5z"/>
	<path class="st0" d="M223,81.5c0,0.8-0.7,1.5-1.5,1.5s-1.5-0.7-1.5-1.5s0.7-1.5,1.5-1.5S223,80.7,223,81.5z"/>
	<path class="st0" d="M203,101.5c0,0.8-0.7,1.5-1.5,1.5s-1.5-0.7-1.5-1.5s0.7-1.5,1.5-1.5S203,100.7,203,101.5z"/>
	<path class="st0" d="M223,101.5c0,0.8-0.7,1.5-1.5,1.5s-1.5-0.7-1.5-1.5s0.7-1.5,1.5-1.5S223,100.7,223,101.5z"/>
	<path class="st0" d="M243,81.5c0,0.8-0.7,1.5-1.5,1.5s-1.5-0.7-1.5-1.5s0.7-1.5,1.5-1.5S243,80.7,243,81.5z"/>
	<path class="st0" d="M263,81.5c0,0.8-0.7,1.5-1.5,1.5s-1.5-0.7-1.5-1.5s0.7-1.5,1.5-1.5S263,80.7,263,81.5z"/>
	<path class="st0" d="M243,101.5c0,0.8-0.7,1.5-1.5,1.5s-1.5-0.7-1.5-1.5s0.7-1.5,1.5-1.5S243,100.7,243,101.5z"/>
	<path class="st0" d="M263,101.5c0,0.8-0.7,1.5-1.5,1.5s-1.5-0.7-1.5-1.5s0.7-1.5,1.5-1.5S263,100.7,263,101.5z"/>
	<path class="st0" d="M283,81.5c0,0.8-0.7,1.5-1.5,1.5s-1.5-0.7-1.5-1.5s0.7-1.5,1.5-1.5S283,80.7,283,81.5z"/>
	<path class="st0" d="M303,81.5c0,0.8-0.7,1.5-1.5,1.5s-1.5-0.7-1.5-1.5s0.7-1.5,1.5-1.5S303,80.7,303,81.5z"/>
	<path class="st0" d="M283,101.5c0,0.8-0.7,1.5-1.5,1.5s-1.5-0.7-1.5-1.5s0.7-1.5,1.5-1.5S283,100.7,283,101.5z"/>
	<path class="st0" d="M303,101.5c0,0.8-0.7,1.5-1.5,1.5s-1.5-0.7-1.5-1.5s0.7-1.5,1.5-1.5S303,100.7,303,101.5z"/>
	<path class="st0" d="M3,121.5c0,0.8-0.7,1.5-1.5,1.5c-0.8,0-1.5-0.7-1.5-1.5s0.7-1.5,1.5-1.5C2.3,120,3,120.7,3,121.5z"/>
	<path class="st0" d="M23,121.5c0,0.8-0.7,1.5-1.5,1.5s-1.5-0.7-1.5-1.5s0.7-1.5,1.5-1.5S23,120.7,23,121.5z"/>
	<path class="st0" d="M3,141.5c0,0.8-0.7,1.5-1.5,1.5c-0.8,0-1.5-0.7-1.5-1.5s0.7-1.5,1.5-1.5C2.3,140,3,140.7,3,141.5z"/>
	<path class="st0" d="M23,141.5c0,0.8-0.7,1.5-1.5,1.5s-1.5-0.7-1.5-1.5s0.7-1.5,1.5-1.5S23,140.7,23,141.5z"/>
	<path class="st0" d="M43,121.5c0,0.8-0.7,1.5-1.5,1.5s-1.5-0.7-1.5-1.5s0.7-1.5,1.5-1.5S43,120.7,43,121.5z"/>
	<path class="st0" d="M63,121.5c0,0.8-0.7,1.5-1.5,1.5s-1.5-0.7-1.5-1.5s0.7-1.5,1.5-1.5S63,120.7,63,121.5z"/>
	<path class="st0" d="M43,141.5c0,0.8-0.7,1.5-1.5,1.5s-1.5-0.7-1.5-1.5s0.7-1.5,1.5-1.5S43,140.7,43,141.5z"/>
	<path class="st0" d="M63,141.5c0,0.8-0.7,1.5-1.5,1.5s-1.5-0.7-1.5-1.5s0.7-1.5,1.5-1.5S63,140.7,63,141.5z"/>
	<path class="st0" d="M83,121.5c0,0.8-0.7,1.5-1.5,1.5s-1.5-0.7-1.5-1.5s0.7-1.5,1.5-1.5S83,120.7,83,121.5z"/>
	<path class="st0" d="M103,121.5c0,0.8-0.7,1.5-1.5,1.5s-1.5-0.7-1.5-1.5s0.7-1.5,1.5-1.5S103,120.7,103,121.5z"/>
	<path class="st0" d="M83,141.5c0,0.8-0.7,1.5-1.5,1.5s-1.5-0.7-1.5-1.5s0.7-1.5,1.5-1.5S83,140.7,83,141.5z"/>
	<path class="st0" d="M103,141.5c0,0.8-0.7,1.5-1.5,1.5s-1.5-0.7-1.5-1.5s0.7-1.5,1.5-1.5S103,140.7,103,141.5z"/>
	<path class="st0" d="M123,121.5c0,0.8-0.7,1.5-1.5,1.5s-1.5-0.7-1.5-1.5s0.7-1.5,1.5-1.5S123,120.7,123,121.5z"/>
	<path class="st0" d="M143,121.5c0,0.8-0.7,1.5-1.5,1.5s-1.5-0.7-1.5-1.5s0.7-1.5,1.5-1.5S143,120.7,143,121.5z"/>
	<path class="st0" d="M123,141.5c0,0.8-0.7,1.5-1.5,1.5s-1.5-0.7-1.5-1.5s0.7-1.5,1.5-1.5S123,140.7,123,141.5z"/>
	<path class="st0" d="M143,141.5c0,0.8-0.7,1.5-1.5,1.5s-1.5-0.7-1.5-1.5s0.7-1.5,1.5-1.5S143,140.7,143,141.5z"/>
	<path class="st0" d="M163,121.5c0,0.8-0.7,1.5-1.5,1.5s-1.5-0.7-1.5-1.5s0.7-1.5,1.5-1.5S163,120.7,163,121.5z"/>
	<path class="st0" d="M183,121.5c0,0.8-0.7,1.5-1.5,1.5s-1.5-0.7-1.5-1.5s0.7-1.5,1.5-1.5S183,120.7,183,121.5z"/>
	<path class="st0" d="M163,141.5c0,0.8-0.7,1.5-1.5,1.5s-1.5-0.7-1.5-1.5s0.7-1.5,1.5-1.5S163,140.7,163,141.5z"/>
	<path class="st0" d="M183,141.5c0,0.8-0.7,1.5-1.5,1.5s-1.5-0.7-1.5-1.5s0.7-1.5,1.5-1.5S183,140.7,183,141.5z"/>
	<path class="st0" d="M203,121.5c0,0.8-0.7,1.5-1.5,1.5s-1.5-0.7-1.5-1.5s0.7-1.5,1.5-1.5S203,120.7,203,121.5z"/>
	<path class="st0" d="M223,121.5c0,0.8-0.7,1.5-1.5,1.5s-1.5-0.7-1.5-1.5s0.7-1.5,1.5-1.5S223,120.7,223,121.5z"/>
	<path class="st0" d="M203,141.5c0,0.8-0.7,1.5-1.5,1.5s-1.5-0.7-1.5-1.5s0.7-1.5,1.5-1.5S203,140.7,203,141.5z"/>
	<path class="st0" d="M223,141.5c0,0.8-0.7,1.5-1.5,1.5s-1.5-0.7-1.5-1.5s0.7-1.5,1.5-1.5S223,140.7,223,141.5z"/>
	<path class="st0" d="M243,121.5c0,0.8-0.7,1.5-1.5,1.5s-1.5-0.7-1.5-1.5s0.7-1.5,1.5-1.5S243,120.7,243,121.5z"/>
	<path class="st0" d="M263,121.5c0,0.8-0.7,1.5-1.5,1.5s-1.5-0.7-1.5-1.5s0.7-1.5,1.5-1.5S263,120.7,263,121.5z"/>
	<path class="st0" d="M243,141.5c0,0.8-0.7,1.5-1.5,1.5s-1.5-0.7-1.5-1.5s0.7-1.5,1.5-1.5S243,140.7,243,141.5z"/>
	<path class="st0" d="M263,141.5c0,0.8-0.7,1.5-1.5,1.5s-1.5-0.7-1.5-1.5s0.7-1.5,1.5-1.5S263,140.7,263,141.5z"/>
	<path class="st0" d="M283,121.5c0,0.8-0.7,1.5-1.5,1.5s-1.5-0.7-1.5-1.5s0.7-1.5,1.5-1.5S283,120.7,283,121.5z"/>
	<path class="st0" d="M303,121.5c0,0.8-0.7,1.5-1.5,1.5s-1.5-0.7-1.5-1.5s0.7-1.5,1.5-1.5S303,120.7,303,121.5z"/>
	<path class="st0" d="M283,141.5c0,0.8-0.7,1.5-1.5,1.5s-1.5-0.7-1.5-1.5s0.7-1.5,1.5-1.5S283,140.7,283,141.5z"/>
	<path class="st0" d="M303,141.5c0,0.8-0.7,1.5-1.5,1.5s-1.5-0.7-1.5-1.5s0.7-1.5,1.5-1.5S303,140.7,303,141.5z"/>
	<path class="st0" d="M3,161.5c0,0.8-0.7,1.5-1.5,1.5c-0.8,0-1.5-0.7-1.5-1.5s0.7-1.5,1.5-1.5C2.3,160,3,160.7,3,161.5z"/>
	<path class="st0" d="M23,161.5c0,0.8-0.7,1.5-1.5,1.5s-1.5-0.7-1.5-1.5s0.7-1.5,1.5-1.5S23,160.7,23,161.5z"/>
	<path class="st0" d="M3,181.5c0,0.8-0.7,1.5-1.5,1.5c-0.8,0-1.5-0.7-1.5-1.5s0.7-1.5,1.5-1.5C2.3,180,3,180.7,3,181.5z"/>
	<path class="st0" d="M23,181.5c0,0.8-0.7,1.5-1.5,1.5s-1.5-0.7-1.5-1.5s0.7-1.5,1.5-1.5S23,180.7,23,181.5z"/>
	<path class="st0" d="M43,161.5c0,0.8-0.7,1.5-1.5,1.5s-1.5-0.7-1.5-1.5s0.7-1.5,1.5-1.5S43,160.7,43,161.5z"/>
	<path class="st0" d="M63,161.5c0,0.8-0.7,1.5-1.5,1.5s-1.5-0.7-1.5-1.5s0.7-1.5,1.5-1.5S63,160.7,63,161.5z"/>
	<path class="st0" d="M43,181.5c0,0.8-0.7,1.5-1.5,1.5s-1.5-0.7-1.5-1.5s0.7-1.5,1.5-1.5S43,180.7,43,181.5z"/>
	<path class="st0" d="M63,181.5c0,0.8-0.7,1.5-1.5,1.5s-1.5-0.7-1.5-1.5s0.7-1.5,1.5-1.5S63,180.7,63,181.5z"/>
	<path class="st0" d="M83,161.5c0,0.8-0.7,1.5-1.5,1.5s-1.5-0.7-1.5-1.5s0.7-1.5,1.5-1.5S83,160.7,83,161.5z"/>
	<path class="st0" d="M103,161.5c0,0.8-0.7,1.5-1.5,1.5s-1.5-0.7-1.5-1.5s0.7-1.5,1.5-1.5S103,160.7,103,161.5z"/>
	<path class="st0" d="M83,181.5c0,0.8-0.7,1.5-1.5,1.5s-1.5-0.7-1.5-1.5s0.7-1.5,1.5-1.5S83,180.7,83,181.5z"/>
	<path class="st0" d="M103,181.5c0,0.8-0.7,1.5-1.5,1.5s-1.5-0.7-1.5-1.5s0.7-1.5,1.5-1.5S103,180.7,103,181.5z"/>
	<path class="st0" d="M123,161.5c0,0.8-0.7,1.5-1.5,1.5s-1.5-0.7-1.5-1.5s0.7-1.5,1.5-1.5S123,160.7,123,161.5z"/>
	<path class="st0" d="M143,161.5c0,0.8-0.7,1.5-1.5,1.5s-1.5-0.7-1.5-1.5s0.7-1.5,1.5-1.5S143,160.7,143,161.5z"/>
	<path class="st0" d="M123,181.5c0,0.8-0.7,1.5-1.5,1.5s-1.5-0.7-1.5-1.5s0.7-1.5,1.5-1.5S123,180.7,123,181.5z"/>
	<path class="st0" d="M143,181.5c0,0.8-0.7,1.5-1.5,1.5s-1.5-0.7-1.5-1.5s0.7-1.5,1.5-1.5S143,180.7,143,181.5z"/>
	<path class="st0" d="M163,161.5c0,0.8-0.7,1.5-1.5,1.5s-1.5-0.7-1.5-1.5s0.7-1.5,1.5-1.5S163,160.7,163,161.5z"/>
	<path class="st0" d="M183,161.5c0,0.8-0.7,1.5-1.5,1.5s-1.5-0.7-1.5-1.5s0.7-1.5,1.5-1.5S183,160.7,183,161.5z"/>
	<path class="st0" d="M163,181.5c0,0.8-0.7,1.5-1.5,1.5s-1.5-0.7-1.5-1.5s0.7-1.5,1.5-1.5S163,180.7,163,181.5z"/>
	<path class="st0" d="M183,181.5c0,0.8-0.7,1.5-1.5,1.5s-1.5-0.7-1.5-1.5s0.7-1.5,1.5-1.5S183,180.7,183,181.5z"/>
	<path class="st0" d="M203,161.5c0,0.8-0.7,1.5-1.5,1.5s-1.5-0.7-1.5-1.5s0.7-1.5,1.5-1.5S203,160.7,203,161.5z"/>
	<path class="st0" d="M223,161.5c0,0.8-0.7,1.5-1.5,1.5s-1.5-0.7-1.5-1.5s0.7-1.5,1.5-1.5S223,160.7,223,161.5z"/>
	<path class="st0" d="M203,181.5c0,0.8-0.7,1.5-1.5,1.5s-1.5-0.7-1.5-1.5s0.7-1.5,1.5-1.5S203,180.7,203,181.5z"/>
	<path class="st0" d="M223,181.5c0,0.8-0.7,1.5-1.5,1.5s-1.5-0.7-1.5-1.5s0.7-1.5,1.5-1.5S223,180.7,223,181.5z"/>
	<path class="st0" d="M243,161.5c0,0.8-0.7,1.5-1.5,1.5s-1.5-0.7-1.5-1.5s0.7-1.5,1.5-1.5S243,160.7,243,161.5z"/>
	<path class="st0" d="M263,161.5c0,0.8-0.7,1.5-1.5,1.5s-1.5-0.7-1.5-1.5s0.7-1.5,1.5-1.5S263,160.7,263,161.5z"/>
	<path class="st0" d="M243,181.5c0,0.8-0.7,1.5-1.5,1.5s-1.5-0.7-1.5-1.5s0.7-1.5,1.5-1.5S243,180.7,243,181.5z"/>
	<path class="st0" d="M263,181.5c0,0.8-0.7,1.5-1.5,1.5s-1.5-0.7-1.5-1.5s0.7-1.5,1.5-1.5S263,180.7,263,181.5z"/>
	<path class="st0" d="M283,161.5c0,0.8-0.7,1.5-1.5,1.5s-1.5-0.7-1.5-1.5s0.7-1.5,1.5-1.5S283,160.7,283,161.5z"/>
	<path class="st0" d="M303,161.5c0,0.8-0.7,1.5-1.5,1.5s-1.5-0.7-1.5-1.5s0.7-1.5,1.5-1.5S303,160.7,303,161.5z"/>
	<path class="st0" d="M283,181.5c0,0.8-0.7,1.5-1.5,1.5s-1.5-0.7-1.5-1.5s0.7-1.5,1.5-1.5S283,180.7,283,181.5z"/>
	<path class="st0" d="M303,181.5c0,0.8-0.7,1.5-1.5,1.5s-1.5-0.7-1.5-1.5s0.7-1.5,1.5-1.5S303,180.7,303,181.5z"/>
	<path class="st0" d="M3,201.5c0,0.8-0.7,1.5-1.5,1.5c-0.8,0-1.5-0.7-1.5-1.5s0.7-1.5,1.5-1.5C2.3,200,3,200.7,3,201.5z"/>
	<path class="st0" d="M23,201.5c0,0.8-0.7,1.5-1.5,1.5s-1.5-0.7-1.5-1.5s0.7-1.5,1.5-1.5S23,200.7,23,201.5z"/>
	<path class="st0" d="M3,221.5c0,0.8-0.7,1.5-1.5,1.5c-0.8,0-1.5-0.7-1.5-1.5s0.7-1.5,1.5-1.5C2.3,220,3,220.7,3,221.5z"/>
	<path class="st0" d="M23,221.5c0,0.8-0.7,1.5-1.5,1.5s-1.5-0.7-1.5-1.5s0.7-1.5,1.5-1.5S23,220.7,23,221.5z"/>
	<path class="st0" d="M43,201.5c0,0.8-0.7,1.5-1.5,1.5s-1.5-0.7-1.5-1.5s0.7-1.5,1.5-1.5S43,200.7,43,201.5z"/>
	<path class="st0" d="M63,201.5c0,0.8-0.7,1.5-1.5,1.5s-1.5-0.7-1.5-1.5s0.7-1.5,1.5-1.5S63,200.7,63,201.5z"/>
	<path class="st0" d="M43,221.5c0,0.8-0.7,1.5-1.5,1.5s-1.5-0.7-1.5-1.5s0.7-1.5,1.5-1.5S43,220.7,43,221.5z"/>
	<path class="st0" d="M63,221.5c0,0.8-0.7,1.5-1.5,1.5s-1.5-0.7-1.5-1.5s0.7-1.5,1.5-1.5S63,220.7,63,221.5z"/>
	<path class="st0" d="M83,201.5c0,0.8-0.7,1.5-1.5,1.5s-1.5-0.7-1.5-1.5s0.7-1.5,1.5-1.5S83,200.7,83,201.5z"/>
	<path class="st0" d="M103,201.5c0,0.8-0.7,1.5-1.5,1.5s-1.5-0.7-1.5-1.5s0.7-1.5,1.5-1.5S103,200.7,103,201.5z"/>
	<path class="st0" d="M83,221.5c0,0.8-0.7,1.5-1.5,1.5s-1.5-0.7-1.5-1.5s0.7-1.5,1.5-1.5S83,220.7,83,221.5z"/>
	<path class="st0" d="M103,221.5c0,0.8-0.7,1.5-1.5,1.5s-1.5-0.7-1.5-1.5s0.7-1.5,1.5-1.5S103,220.7,103,221.5z"/>
	<path class="st0" d="M123,201.5c0,0.8-0.7,1.5-1.5,1.5s-1.5-0.7-1.5-1.5s0.7-1.5,1.5-1.5S123,200.7,123,201.5z"/>
	<path class="st0" d="M143,201.5c0,0.8-0.7,1.5-1.5,1.5s-1.5-0.7-1.5-1.5s0.7-1.5,1.5-1.5S143,200.7,143,201.5z"/>
	<path class="st0" d="M123,221.5c0,0.8-0.7,1.5-1.5,1.5s-1.5-0.7-1.5-1.5s0.7-1.5,1.5-1.5S123,220.7,123,221.5z"/>
	<path class="st0" d="M143,221.5c0,0.8-0.7,1.5-1.5,1.5s-1.5-0.7-1.5-1.5s0.7-1.5,1.5-1.5S143,220.7,143,221.5z"/>
	<path class="st0" d="M163,201.5c0,0.8-0.7,1.5-1.5,1.5s-1.5-0.7-1.5-1.5s0.7-1.5,1.5-1.5S163,200.7,163,201.5z"/>
	<path class="st0" d="M183,201.5c0,0.8-0.7,1.5-1.5,1.5s-1.5-0.7-1.5-1.5s0.7-1.5,1.5-1.5S183,200.7,183,201.5z"/>
	<path class="st0" d="M163,221.5c0,0.8-0.7,1.5-1.5,1.5s-1.5-0.7-1.5-1.5s0.7-1.5,1.5-1.5S163,220.7,163,221.5z"/>
	<path class="st0" d="M183,221.5c0,0.8-0.7,1.5-1.5,1.5s-1.5-0.7-1.5-1.5s0.7-1.5,1.5-1.5S183,220.7,183,221.5z"/>
	<path class="st0" d="M203,201.5c0,0.8-0.7,1.5-1.5,1.5s-1.5-0.7-1.5-1.5s0.7-1.5,1.5-1.5S203,200.7,203,201.5z"/>
	<path class="st0" d="M223,201.5c0,0.8-0.7,1.5-1.5,1.5s-1.5-0.7-1.5-1.5s0.7-1.5,1.5-1.5S223,200.7,223,201.5z"/>
	<path class="st0" d="M203,221.5c0,0.8-0.7,1.5-1.5,1.5s-1.5-0.7-1.5-1.5s0.7-1.5,1.5-1.5S203,220.7,203,221.5z"/>
	<path class="st0" d="M223,221.5c0,0.8-0.7,1.5-1.5,1.5s-1.5-0.7-1.5-1.5s0.7-1.5,1.5-1.5S223,220.7,223,221.5z"/>
	<path class="st0" d="M243,201.5c0,0.8-0.7,1.5-1.5,1.5s-1.5-0.7-1.5-1.5s0.7-1.5,1.5-1.5S243,200.7,243,201.5z"/>
	<path class="st0" d="M263,201.5c0,0.8-0.7,1.5-1.5,1.5s-1.5-0.7-1.5-1.5s0.7-1.5,1.5-1.5S263,200.7,263,201.5z"/>
	<path class="st0" d="M243,221.5c0,0.8-0.7,1.5-1.5,1.5s-1.5-0.7-1.5-1.5s0.7-1.5,1.5-1.5S243,220.7,243,221.5z"/>
	<path class="st0" d="M263,221.5c0,0.8-0.7,1.5-1.5,1.5s-1.5-0.7-1.5-1.5s0.7-1.5,1.5-1.5S263,220.7,263,221.5z"/>
	<path class="st0" d="M283,201.5c0,0.8-0.7,1.5-1.5,1.5s-1.5-0.7-1.5-1.5s0.7-1.5,1.5-1.5S283,200.7,283,201.5z"/>
	<path class="st0" d="M303,201.5c0,0.8-0.7,1.5-1.5,1.5s-1.5-0.7-1.5-1.5s0.7-1.5,1.5-1.5S303,200.7,303,201.5z"/>
	<path class="st0" d="M283,221.5c0,0.8-0.7,1.5-1.5,1.5s-1.5-0.7-1.5-1.5s0.7-1.5,1.5-1.5S283,220.7,283,221.5z"/>
	<path class="st0" d="M303,221.5c0,0.8-0.7,1.5-1.5,1.5s-1.5-0.7-1.5-1.5s0.7-1.5,1.5-1.5S303,220.7,303,221.5z"/>
	<path class="st0" d="M3,241.5c0,0.8-0.7,1.5-1.5,1.5c-0.8,0-1.5-0.7-1.5-1.5s0.7-1.5,1.5-1.5C2.3,240,3,240.7,3,241.5z"/>
	<path class="st0" d="M23,241.5c0,0.8-0.7,1.5-1.5,1.5s-1.5-0.7-1.5-1.5s0.7-1.5,1.5-1.5S23,240.7,23,241.5z"/>
	<path class="st0" d="M3,261.5c0,0.8-0.7,1.5-1.5,1.5c-0.8,0-1.5-0.7-1.5-1.5s0.7-1.5,1.5-1.5C2.3,260,3,260.7,3,261.5z"/>
	<path class="st0" d="M23,261.5c0,0.8-0.7,1.5-1.5,1.5s-1.5-0.7-1.5-1.5s0.7-1.5,1.5-1.5S23,260.7,23,261.5z"/>
	<path class="st0" d="M43,241.5c0,0.8-0.7,1.5-1.5,1.5s-1.5-0.7-1.5-1.5s0.7-1.5,1.5-1.5S43,240.7,43,241.5z"/>
	<path class="st0" d="M63,241.5c0,0.8-0.7,1.5-1.5,1.5s-1.5-0.7-1.5-1.5s0.7-1.5,1.5-1.5S63,240.7,63,241.5z"/>
	<path class="st0" d="M43,261.5c0,0.8-0.7,1.5-1.5,1.5s-1.5-0.7-1.5-1.5s0.7-1.5,1.5-1.5S43,260.7,43,261.5z"/>
	<path class="st0" d="M63,261.5c0,0.8-0.7,1.5-1.5,1.5s-1.5-0.7-1.5-1.5s0.7-1.5,1.5-1.5S63,260.7,63,261.5z"/>
	<path class="st0" d="M83,241.5c0,0.8-0.7,1.5-1.5,1.5s-1.5-0.7-1.5-1.5s0.7-1.5,1.5-1.5S83,240.7,83,241.5z"/>
	<path class="st0" d="M103,241.5c0,0.8-0.7,1.5-1.5,1.5s-1.5-0.7-1.5-1.5s0.7-1.5,1.5-1.5S103,240.7,103,241.5z"/>
	<path class="st0" d="M83,261.5c0,0.8-0.7,1.5-1.5,1.5s-1.5-0.7-1.5-1.5s0.7-1.5,1.5-1.5S83,260.7,83,261.5z"/>
	<path class="st0" d="M103,261.5c0,0.8-0.7,1.5-1.5,1.5s-1.5-0.7-1.5-1.5s0.7-1.5,1.5-1.5S103,260.7,103,261.5z"/>
	<path class="st0" d="M123,241.5c0,0.8-0.7,1.5-1.5,1.5s-1.5-0.7-1.5-1.5s0.7-1.5,1.5-1.5S123,240.7,123,241.5z"/>
	<path class="st0" d="M143,241.5c0,0.8-0.7,1.5-1.5,1.5s-1.5-0.7-1.5-1.5s0.7-1.5,1.5-1.5S143,240.7,143,241.5z"/>
	<path class="st0" d="M123,261.5c0,0.8-0.7,1.5-1.5,1.5s-1.5-0.7-1.5-1.5s0.7-1.5,1.5-1.5S123,260.7,123,261.5z"/>
	<path class="st0" d="M143,261.5c0,0.8-0.7,1.5-1.5,1.5s-1.5-0.7-1.5-1.5s0.7-1.5,1.5-1.5S143,260.7,143,261.5z"/>
	<path class="st0" d="M163,241.5c0,0.8-0.7,1.5-1.5,1.5s-1.5-0.7-1.5-1.5s0.7-1.5,1.5-1.5S163,240.7,163,241.5z"/>
	<path class="st0" d="M183,241.5c0,0.8-0.7,1.5-1.5,1.5s-1.5-0.7-1.5-1.5s0.7-1.5,1.5-1.5S183,240.7,183,241.5z"/>
	<path class="st0" d="M163,261.5c0,0.8-0.7,1.5-1.5,1.5s-1.5-0.7-1.5-1.5s0.7-1.5,1.5-1.5S163,260.7,163,261.5z"/>
	<path class="st0" d="M183,261.5c0,0.8-0.7,1.5-1.5,1.5s-1.5-0.7-1.5-1.5s0.7-1.5,1.5-1.5S183,260.7,183,261.5z"/>
	<path class="st0" d="M203,241.5c0,0.8-0.7,1.5-1.5,1.5s-1.5-0.7-1.5-1.5s0.7-1.5,1.5-1.5S203,240.7,203,241.5z"/>
	<path class="st0" d="M223,241.5c0,0.8-0.7,1.5-1.5,1.5s-1.5-0.7-1.5-1.5s0.7-1.5,1.5-1.5S223,240.7,223,241.5z"/>
	<path class="st0" d="M203,261.5c0,0.8-0.7,1.5-1.5,1.5s-1.5-0.7-1.5-1.5s0.7-1.5,1.5-1.5S203,260.7,203,261.5z"/>
	<path class="st0" d="M223,261.5c0,0.8-0.7,1.5-1.5,1.5s-1.5-0.7-1.5-1.5s0.7-1.5,1.5-1.5S223,260.7,223,261.5z"/>
	<path class="st0" d="M243,241.5c0,0.8-0.7,1.5-1.5,1.5s-1.5-0.7-1.5-1.5s0.7-1.5,1.5-1.5S243,240.7,243,241.5z"/>
	<path class="st0" d="M263,241.5c0,0.8-0.7,1.5-1.5,1.5s-1.5-0.7-1.5-1.5s0.7-1.5,1.5-1.5S263,240.7,263,241.5z"/>
	<path class="st0" d="M243,261.5c0,0.8-0.7,1.5-1.5,1.5s-1.5-0.7-1.5-1.5s0.7-1.5,1.5-1.5S243,260.7,243,261.5z"/>
	<path class="st0" d="M263,261.5c0,0.8-0.7,1.5-1.5,1.5s-1.5-0.7-1.5-1.5s0.7-1.5,1.5-1.5S263,260.7,263,261.5z"/>
	<path class="st0" d="M283,241.5c0,0.8-0.7,1.5-1.5,1.5s-1.5-0.7-1.5-1.5s0.7-1.5,1.5-1.5S283,240.7,283,241.5z"/>
	<path class="st0" d="M303,241.5c0,0.8-0.7,1.5-1.5,1.5s-1.5-0.7-1.5-1.5s0.7-1.5,1.5-1.5S303,240.7,303,241.5z"/>
	<path class="st0" d="M283,261.5c0,0.8-0.7,1.5-1.5,1.5s-1.5-0.7-1.5-1.5s0.7-1.5,1.5-1.5S283,260.7,283,261.5z"/>
	<path class="st0" d="M303,261.5c0,0.8-0.7,1.5-1.5,1.5s-1.5-0.7-1.5-1.5s0.7-1.5,1.5-1.5S303,260.7,303,261.5z"/>
	<path class="st0" d="M3,281.5c0,0.8-0.7,1.5-1.5,1.5c-0.8,0-1.5-0.7-1.5-1.5s0.7-1.5,1.5-1.5C2.3,280,3,280.7,3,281.5z"/>
	<path class="st0" d="M23,281.5c0,0.8-0.7,1.5-1.5,1.5s-1.5-0.7-1.5-1.5s0.7-1.5,1.5-1.5S23,280.7,23,281.5z"/>
	<path class="st0" d="M3,301.5c0,0.8-0.7,1.5-1.5,1.5c-0.8,0-1.5-0.7-1.5-1.5s0.7-1.5,1.5-1.5C2.3,300,3,300.7,3,301.5z"/>
	<path class="st0" d="M23,301.5c0,0.8-0.7,1.5-1.5,1.5s-1.5-0.7-1.5-1.5s0.7-1.5,1.5-1.5S23,300.7,23,301.5z"/>
	<path class="st0" d="M43,281.5c0,0.8-0.7,1.5-1.5,1.5s-1.5-0.7-1.5-1.5s0.7-1.5,1.5-1.5S43,280.7,43,281.5z"/>
	<path class="st0" d="M63,281.5c0,0.8-0.7,1.5-1.5,1.5s-1.5-0.7-1.5-1.5s0.7-1.5,1.5-1.5S63,280.7,63,281.5z"/>
	<path class="st0" d="M43,301.5c0,0.8-0.7,1.5-1.5,1.5s-1.5-0.7-1.5-1.5s0.7-1.5,1.5-1.5S43,300.7,43,301.5z"/>
	<path class="st0" d="M63,301.5c0,0.8-0.7,1.5-1.5,1.5s-1.5-0.7-1.5-1.5s0.7-1.5,1.5-1.5S63,300.7,63,301.5z"/>
	<path class="st0" d="M83,281.5c0,0.8-0.7,1.5-1.5,1.5s-1.5-0.7-1.5-1.5s0.7-1.5,1.5-1.5S83,280.7,83,281.5z"/>
	<path class="st0" d="M103,281.5c0,0.8-0.7,1.5-1.5,1.5s-1.5-0.7-1.5-1.5s0.7-1.5,1.5-1.5S103,280.7,103,281.5z"/>
	<path class="st0" d="M83,301.5c0,0.8-0.7,1.5-1.5,1.5s-1.5-0.7-1.5-1.5s0.7-1.5,1.5-1.5S83,300.7,83,301.5z"/>
	<path class="st0" d="M103,301.5c0,0.8-0.7,1.5-1.5,1.5s-1.5-0.7-1.5-1.5s0.7-1.5,1.5-1.5S103,300.7,103,301.5z"/>
	<path class="st0" d="M123,281.5c0,0.8-0.7,1.5-1.5,1.5s-1.5-0.7-1.5-1.5s0.7-1.5,1.5-1.5S123,280.7,123,281.5z"/>
	<path class="st0" d="M143,281.5c0,0.8-0.7,1.5-1.5,1.5s-1.5-0.7-1.5-1.5s0.7-1.5,1.5-1.5S143,280.7,143,281.5z"/>
	<path class="st0" d="M123,301.5c0,0.8-0.7,1.5-1.5,1.5s-1.5-0.7-1.5-1.5s0.7-1.5,1.5-1.5S123,300.7,123,301.5z"/>
	<path class="st0" d="M143,301.5c0,0.8-0.7,1.5-1.5,1.5s-1.5-0.7-1.5-1.5s0.7-1.5,1.5-1.5S143,300.7,143,301.5z"/>
	<path class="st0" d="M163,281.5c0,0.8-0.7,1.5-1.5,1.5s-1.5-0.7-1.5-1.5s0.7-1.5,1.5-1.5S163,280.7,163,281.5z"/>
	<path class="st0" d="M183,281.5c0,0.8-0.7,1.5-1.5,1.5s-1.5-0.7-1.5-1.5s0.7-1.5,1.5-1.5S183,280.7,183,281.5z"/>
	<path class="st0" d="M163,301.5c0,0.8-0.7,1.5-1.5,1.5s-1.5-0.7-1.5-1.5s0.7-1.5,1.5-1.5S163,300.7,163,301.5z"/>
	<path class="st0" d="M183,301.5c0,0.8-0.7,1.5-1.5,1.5s-1.5-0.7-1.5-1.5s0.7-1.5,1.5-1.5S183,300.7,183,301.5z"/>
	<path class="st0" d="M203,281.5c0,0.8-0.7,1.5-1.5,1.5s-1.5-0.7-1.5-1.5s0.7-1.5,1.5-1.5S203,280.7,203,281.5z"/>
	<path class="st0" d="M223,281.5c0,0.8-0.7,1.5-1.5,1.5s-1.5-0.7-1.5-1.5s0.7-1.5,1.5-1.5S223,280.7,223,281.5z"/>
	<path class="st0" d="M203,301.5c0,0.8-0.7,1.5-1.5,1.5s-1.5-0.7-1.5-1.5s0.7-1.5,1.5-1.5S203,300.7,203,301.5z"/>
	<path class="st0" d="M223,301.5c0,0.8-0.7,1.5-1.5,1.5s-1.5-0.7-1.5-1.5s0.7-1.5,1.5-1.5S223,300.7,223,301.5z"/>
	<path class="st0" d="M243,281.5c0,0.8-0.7,1.5-1.5,1.5s-1.5-0.7-1.5-1.5s0.7-1.5,1.5-1.5S243,280.7,243,281.5z"/>
	<path class="st0" d="M263,281.5c0,0.8-0.7,1.5-1.5,1.5s-1.5-0.7-1.5-1.5s0.7-1.5,1.5-1.5S263,280.7,263,281.5z"/>
	<path class="st0" d="M243,301.5c0,0.8-0.7,1.5-1.5,1.5s-1.5-0.7-1.5-1.5s0.7-1.5,1.5-1.5S243,300.7,243,301.5z"/>
	<path class="st0" d="M263,301.5c0,0.8-0.7,1.5-1.5,1.5s-1.5-0.7-1.5-1.5s0.7-1.5,1.5-1.5S263,300.7,263,301.5z"/>
	<path class="st0" d="M283,281.5c0,0.8-0.7,1.5-1.5,1.5s-1.5-0.7-1.5-1.5s0.7-1.5,1.5-1.5S283,280.7,283,281.5z"/>
	<path class="st0" d="M303,281.5c0,0.8-0.7,1.5-1.5,1.5s-1.5-0.7-1.5-1.5s0.7-1.5,1.5-1.5S303,280.7,303,281.5z"/>
	<path class="st0" d="M283,301.5c0,0.8-0.7,1.5-1.5,1.5s-1.5-0.7-1.5-1.5s0.7-1.5,1.5-1.5S283,300.7,283,301.5z"/>
	<path class="st0" d="M303,301.5c0,0.8-0.7,1.5-1.5,1.5s-1.5-0.7-1.5-1.5s0.7-1.5,1.5-1.5S303,300.7,303,301.5z"/>
</g>
</svg>
