<svg width="261" height="74" viewBox="0 0 261 74" fill="none" xmlns="http://www.w3.org/2000/svg">
<path d="M159.096 10.5632C152.827 10.5632 147.968 12.2552 144.65 15.5922C140.956 19.3132 139.108 25.1482 139.166 32.9332C139.366 48.3992 145.747 55.6542 159.211 55.7672C172.694 55.7672 179.251 48.3002 179.251 32.9392C179.249 17.8822 172.655 10.5632 159.096 10.5632ZM159.203 47.1872C152.188 47.0692 148.648 42.3202 148.648 33.0512C148.648 24.1252 152.213 19.5982 159.214 19.5982H159.488C166.488 19.5982 169.888 23.9982 169.888 33.0542C169.872 42.1662 166.082 47.1872 159.202 47.1872H159.203Z" fill="url(#paint0_linear)"/>
<path d="M92.886 11.5172C92.2291 11.161 91.4943 10.9728 90.747 10.9692C89.7177 11.0319 88.7285 11.3912 87.8989 12.0038C87.0693 12.6163 86.4348 13.4559 86.072 14.4212L76.359 36.0132L63.932 13.9442C63.5126 13.0914 62.873 12.366 62.0795 11.843C61.2859 11.32 60.3671 11.0184 59.418 10.9692C58.5184 10.9776 57.6421 11.2563 56.903 11.7692C54.452 13.3922 53.826 16.7952 55.452 19.6832L71.137 47.5352L63.05 65.3232C61.679 68.3612 62.598 71.6822 65.175 73.0472C65.8318 73.4039 66.5666 73.5925 67.314 73.5962C68.3419 73.5342 69.3297 73.175 70.1574 72.5622C70.985 71.9493 71.6168 71.1093 71.976 70.1442L77.704 57.5302L77.756 57.5552L94.996 19.2312C96.376 16.2072 95.463 12.8862 92.886 11.5172Z" fill="url(#paint1_linear)"/>
<path d="M22.4601 32.8201C31.2601 29.4141 32.7131 36.3031 39.4911 33.8291C46.0721 31.4381 46.2011 21.4891 39.7051 18.9291C34.7311 16.9851 32.4491 20.8871 27.3301 15.9291C26.2281 14.7824 25.3897 13.4091 24.8734 11.9048C24.3572 10.4006 24.1755 8.80182 24.3411 7.22011C24.3447 6.59812 24.2813 5.97756 24.1521 5.36913C22.2871 -2.60187 10.4411 -1.21188 10.4191 6.95412C10.4254 7.95286 10.6454 8.93867 11.0642 9.84536C11.4831 10.752 12.0911 11.5586 12.8474 12.2109C13.6038 12.8631 14.491 13.346 15.4494 13.627C16.4078 13.908 17.4152 13.9807 18.4041 13.8401C23.6501 13.2921 29.3731 18.6311 29.1591 23.1221C28.8301 29.7831 18.2231 34.6391 12.0041 30.4631C10.1294 29.4432 7.92788 29.2043 5.87806 29.7985C3.82824 30.3926 2.09573 31.7717 1.05706 33.6361C-2.71494 39.9741 4.32305 48.0741 11.1021 45.1161C17.0111 42.1001 25.0871 46.3161 26.7321 52.5831C26.9607 54.7012 27.9071 56.6773 29.4141 58.1831C35.0711 63.8071 45.0661 57.5741 42.6231 50.0361C41.4051 45.3741 35.7841 42.9581 31.4571 45.0261C23.1341 48.3301 8.44705 37.7321 22.4601 32.8201Z" fill="url(#paint2_linear)"/>
<path d="M116.035 10.5632C109.764 10.5632 104.905 12.2552 101.589 15.5922C97.889 19.3132 96.044 25.1482 96.105 32.9332C96.305 48.3992 102.686 55.6542 116.15 55.7672C129.633 55.7672 136.187 48.3002 136.187 32.9392C136.179 17.8822 129.592 10.5632 116.035 10.5632ZM116.135 47.1872C109.121 47.0692 105.567 42.3142 105.567 33.0512C105.567 24.1252 109.132 19.5982 116.135 19.5982H116.409C123.409 19.5982 126.809 23.9982 126.809 33.0542C126.809 42.1662 123.019 47.1872 116.139 47.1872H116.135Z" fill="url(#paint3_linear)"/>
<path d="M217.55 15.779H215.556C215.394 15.7952 215.23 15.775 215.076 15.72C214.923 15.665 214.783 15.5766 214.668 15.461C212.906 13.7934 210.831 12.4919 208.563 11.6319C206.295 10.7719 203.879 10.3705 201.454 10.451C188.108 10.451 181.62 17.879 181.62 33.167C181.62 48.298 188.108 55.653 201.454 55.653C205.504 55.653 210.229 54.309 210.879 53.853C211.193 53.6847 211.518 53.5399 211.853 53.42L211.809 56.11C211.899 58.299 211.126 60.4358 209.657 62.061C208.267 63.69 205.892 64.425 201.979 64.425H201.669C194.759 64.425 193.169 60.86 192.483 59.33C192.423 59.193 192.368 59.069 192.316 58.965C192.042 58.1968 191.516 57.5443 190.823 57.1143C190.13 56.6843 189.312 56.5023 188.502 56.598H186.415C185.911 56.5523 185.403 56.6148 184.925 56.7812C184.447 56.9476 184.01 57.2141 183.643 57.563C183.301 58.0475 183.065 58.5982 182.948 59.1796C182.832 59.7611 182.839 60.3604 182.969 60.939C183.767 64.3712 185.634 67.4611 188.302 69.763C191.088 72.247 195.563 73.457 201.98 73.457C206.842 73.6128 211.623 72.1824 215.6 69.382C219.42 66.272 221.29 61.539 221.29 54.936V19.9C221.298 17.01 220.179 15.779 217.55 15.779ZM201.679 47.071C194.656 47.071 191.103 42.393 191.103 33.166C191.103 23.939 194.561 19.485 201.671 19.485C206.538 19.485 212.341 21.857 212.341 33.166C212.345 42.276 208.758 46.957 201.679 47.071Z" fill="url(#paint4_linear)"/>
<path d="M242.556 10.4232C242.23 10.4232 241.925 10.4092 241.626 10.4092C233.512 10.4092 228.738 13.3512 226.138 19.9492C225.688 21.4272 225.68 22.5572 226.138 23.1682C226.397 23.434 226.714 23.6361 227.064 23.7588C227.414 23.8815 227.788 23.9213 228.156 23.8752H234.093C234.833 20.4672 237.746 18.7392 242.75 18.7392C248.626 18.7392 251.111 20.5022 251.319 24.8182C251.319 25.6712 250.719 25.7592 246.811 26.3072C243.921 26.7132 239.555 27.3242 233.786 28.5012C226.656 30.2122 223.498 34.8082 224.145 42.5542C224.723 50.7672 230.433 55.0332 241.116 55.2472C247.478 55.2472 250.631 53.3602 253.416 50.5282L253.534 50.4022C255.349 48.3112 257.543 46.5825 260 45.3072V27.2072C260.093 21.5582 258.824 17.4812 256.125 14.7362C253.275 11.8292 248.838 10.4232 242.556 10.4232ZM251.331 37.8032C251.331 42.9532 248.391 45.7552 242.339 46.3612H242.27C238.157 46.3612 234.416 46.0702 233.35 42.7962L233.331 42.7142C233.158 42.0322 233.129 41.3217 233.245 40.6277C233.361 39.9338 233.62 39.2715 234.006 38.6832C234.513 38.0738 235.14 37.5749 235.847 37.2169C236.555 36.859 237.328 36.6498 238.119 36.6022C243.137 35.7792 249.384 34.7702 250.256 34.4082L251.32 33.8212L251.331 37.8032Z" fill="url(#paint5_linear)"/>
<defs>
<linearGradient id="paint0_linear" x1="159.208" y1="55.7672" x2="159.208" y2="10.5632" gradientUnits="userSpaceOnUse">
<stop stop-color="#29B9DF"/>
<stop offset="0.39" stop-color="#29B6DE"/>
<stop offset="0.7" stop-color="#29ACDB"/>
<stop offset="0.98" stop-color="#299BD6"/>
<stop offset="1" stop-color="#299AD6"/>
</linearGradient>
<linearGradient id="paint1_linear" x1="75.0937" y1="73.5962" x2="75.0937" y2="10.9692" gradientUnits="userSpaceOnUse">
<stop stop-color="#29B9DF"/>
<stop offset="0.39" stop-color="#29B6DE"/>
<stop offset="0.7" stop-color="#29ACDB"/>
<stop offset="0.98" stop-color="#299BD6"/>
<stop offset="1" stop-color="#299AD6"/>
</linearGradient>
<linearGradient id="paint2_linear" x1="22.2521" y1="60.3531" x2="22.2521" y2="0.059082" gradientUnits="userSpaceOnUse">
<stop stop-color="#29B9DF"/>
<stop offset="0.39" stop-color="#29B6DE"/>
<stop offset="0.7" stop-color="#29ACDB"/>
<stop offset="0.98" stop-color="#299BD6"/>
<stop offset="1" stop-color="#299AD6"/>
</linearGradient>
<linearGradient id="paint3_linear" x1="116.145" y1="55.7672" x2="116.145" y2="10.5632" gradientUnits="userSpaceOnUse">
<stop stop-color="#29B9DF"/>
<stop offset="0.39" stop-color="#29B6DE"/>
<stop offset="0.7" stop-color="#29ACDB"/>
<stop offset="0.98" stop-color="#299BD6"/>
<stop offset="1" stop-color="#299AD6"/>
</linearGradient>
<linearGradient id="paint4_linear" x1="201.455" y1="73.4685" x2="201.455" y2="10.4409" gradientUnits="userSpaceOnUse">
<stop stop-color="#29B9DF"/>
<stop offset="0.39" stop-color="#29B6DE"/>
<stop offset="0.7" stop-color="#29ACDB"/>
<stop offset="0.98" stop-color="#299BD6"/>
<stop offset="1" stop-color="#299AD6"/>
</linearGradient>
<linearGradient id="paint5_linear" x1="242.034" y1="55.2472" x2="242.034" y2="10.4092" gradientUnits="userSpaceOnUse">
<stop stop-color="#29B9DF"/>
<stop offset="0.39" stop-color="#29B6DE"/>
<stop offset="0.7" stop-color="#29ACDB"/>
<stop offset="0.98" stop-color="#299BD6"/>
<stop offset="1" stop-color="#299AD6"/>
</linearGradient>
</defs>
</svg>
